M48
; DRILL file {KiCad 9.0.7} date 2026-03-23T10:39:09+0530
; FORMAT={-:-/ absolute / metric / decimal}
; #@! TF.CreationDate,2026-03-23T10:39:09+05:30
; #@! TF.GenerationSoftware,Kicad,Pcbnew,9.0.7
; #@! TF.FileFunction,Plated,1,2,PTH
FMAT,2
METRIC
; #@! TA.AperFunction,Plated,PTH,ViaDrill
T1C0.300
; #@! TA.AperFunction,Plated,PTH,ComponentDrill
T2C0.300
; #@! TA.AperFunction,Plated,PTH,ViaDrill
T3C0.400
; #@! TA.AperFunction,Plated,PTH,ViaDrill
T4C0.500
; #@! TA.AperFunction,Plated,PTH,ComponentDrill
T5C0.500
; #@! TA.AperFunction,Plated,PTH,ComponentDrill
T6C0.600
; #@! TA.AperFunction,Plated,PTH,ComponentDrill
T7C0.800
; #@! TA.AperFunction,Plated,PTH,ComponentDrill
T8C0.900
; #@! TA.AperFunction,Plated,PTH,ComponentDrill
T9C1.000
; #@! TA.AperFunction,Plated,PTH,ComponentDrill
T10C1.020
; #@! TA.AperFunction,Plated,PTH,ComponentDrill
T11C1.200
; #@! TA.AperFunction,Plated,PTH,ComponentDrill
T12C1.300
; #@! TA.AperFunction,Plated,PTH,ComponentDrill
T13C1.700
; #@! TA.AperFunction,Plated,PTH,ComponentDrill
T14C3.000
; #@! TA.AperFunction,Plated,PTH,ComponentDrill
T15C3.200
%
G90
G05
T1
X92.8Y-98.4
X92.8Y-99.2
X92.8Y-100.0
X93.6Y-98.4
X93.6Y-99.2
X93.6Y-100.0
X94.4Y-98.4
X94.4Y-99.2
X94.4Y-100.0
X95.07Y-103.27
X95.5Y-85.0
X95.885Y-71.12
X96.0Y-84.0
X96.0Y-86.0
X96.5Y-85.0
X96.52Y-69.85
X96.52Y-72.39
X96.68Y-94.91
X97.0Y-84.0
X97.0Y-86.0
X97.155Y-71.12
X97.5Y-85.0
X97.79Y-69.85
X97.79Y-72.39
X98.255Y-88.53
X98.33Y-78.97
X98.425Y-71.12
X99.9Y-79.0
X100.0Y-85.0
X100.0Y-86.0
X100.0Y-87.0
X100.0Y-88.0
X100.0Y-89.0
X100.33Y-113.03
X100.33Y-114.3
X100.6Y-58.42
X100.6Y-60.96
X100.95Y-99.78
X101.0Y-85.0
X101.0Y-86.0
X101.0Y-87.0
X101.0Y-88.0
X101.0Y-89.0
X101.6Y-57.15
X101.6Y-59.69
X101.6Y-62.23
X101.6Y-113.03
X101.6Y-114.3
X102.235Y-120.65
X102.6Y-58.42
X102.6Y-60.96
X102.87Y-113.03
X102.87Y-114.3
X102.87Y-119.38
X102.87Y-121.92
X103.505Y-120.65
X103.6Y-57.15
X103.6Y-59.69
X103.6Y-62.23
X104.14Y-113.03
X104.14Y-114.3
X104.14Y-119.38
X104.14Y-121.92
X104.45Y-100.77
X104.505Y-58.42
X104.505Y-60.96
X104.775Y-120.65
X105.0Y-78.0
X105.0Y-79.0
X105.0Y-80.0
X105.0Y-98.0
X105.0Y-99.0
X105.09Y-89.89
X105.32Y-74.85
X105.41Y-113.03
X105.41Y-114.3
X105.91Y-92.74
X106.0Y-78.0
X106.0Y-79.0
X106.0Y-80.0
X106.0Y-98.0
X106.0Y-99.0
X106.4Y-88.0
X106.4Y-88.8
X106.4Y-89.6
X107.0Y-98.0
X107.0Y-99.0
X107.03Y-93.5
X107.2Y-88.0
X107.2Y-88.8
X107.2Y-89.6
X107.47Y-86.21
X107.53Y-78.12
X107.955Y-73.265
X108.0Y-88.0
X108.0Y-88.8
X108.0Y-89.6
X108.72Y-86.25
X108.89Y-99.21
X110.0Y-86.28
X110.5Y-91.0
X111.0Y-90.0
X111.0Y-92.0
X111.0Y-98.0
X111.0Y-99.0
X111.0Y-100.0
X111.3Y-86.26
X111.47Y-72.37
X111.5Y-91.0
X112.0Y-90.0
X112.0Y-92.0
X112.0Y-98.0
X112.0Y-99.0
X112.0Y-100.0
X112.18Y-79.44
X112.5Y-91.0
X112.63Y-86.27
X112.69Y-72.35
X113.85Y-86.24
X114.03Y-58.91
X114.03Y-61.45
X114.665Y-57.64
X114.665Y-60.18
X114.665Y-62.72
X115.06Y-86.12
X115.23Y-68.89
X115.23Y-73.96
X115.3Y-58.91
X115.3Y-61.45
X115.695Y-84.85
X115.695Y-87.39
X115.93Y-62.72
X115.935Y-57.64
X115.935Y-60.18
X116.33Y-86.12
X116.555Y-94.77
X116.57Y-58.91
X116.57Y-61.45
X116.965Y-84.85
X116.965Y-87.39
X117.11Y-116.49
X117.19Y-93.5
X117.19Y-96.04
X117.205Y-57.64
X117.205Y-60.18
X117.205Y-62.72
X117.6Y-86.12
X117.825Y-94.77
X117.84Y-58.91
X117.84Y-61.45
X117.91Y-77.9
X118.46Y-93.5
X118.46Y-96.04
X118.49Y-77.15
X118.69Y-83.46
X118.93Y-78.27
X119.07Y-117.92
X119.095Y-94.77
X119.2Y-115.2
X119.2Y-116.0
X119.2Y-116.8
X119.93Y-107.9
X119.96Y-112.34
X120.0Y-115.2
X120.0Y-116.0
X120.0Y-116.8
X120.05Y-78.33
X121.0Y-94.24
X121.0Y-95.44
X121.02Y-77.06
X121.02Y-121.58
X121.05Y-78.29
X121.23Y-119.74
X121.88Y-118.8
X121.9Y-121.56
X122.2Y-94.24
X122.2Y-95.44
X122.86Y-99.0
X122.99Y-114.06
X122.99Y-115.36
X123.11Y-112.79
X123.13Y-111.5
X123.19Y-119.72
X125.04Y-86.4
X125.61Y-103.23
X125.68Y-97.86
X127.64Y-102.9
X127.94Y-116.7
X128.0Y-70.4
X128.0Y-71.2
X128.0Y-72.0
X128.39Y-96.38
X128.42Y-86.79
X128.45Y-93.79
X128.48Y-87.91
X128.5Y-90.68
X128.51Y-89.29
X128.54Y-85.68
X128.54Y-97.3
X128.8Y-70.4
X128.8Y-71.2
X128.8Y-72.0
X128.89Y-84.53
X129.32Y-102.75
X129.6Y-70.4
X129.6Y-71.2
X129.6Y-72.0
X130.14Y-91.76
X130.27Y-84.12
X130.4Y-106.4
X130.4Y-107.2
X130.409Y-103.429
X130.47Y-74.44
X130.74Y-86.26
X130.81Y-94.29
X130.95Y-88.34
X131.2Y-107.2
X131.37Y-80.84
X131.59Y-69.84
X131.68Y-93.8
X131.93Y-106.87
X132.14Y-79.91
X132.23Y-81.01
X132.47Y-94.3
X133.01Y-83.35
X133.13Y-102.48
X133.19Y-95.78
X133.39Y-87.82
X133.41Y-94.88
X133.45Y-110.31
X134.16Y-103.65
X134.71Y-70.9
X134.88Y-69.84
X134.96Y-68.81
X134.987Y-87.093
X135.32Y-86.38
X136.02Y-91.27
X136.03Y-92.36
X136.03Y-93.48
X136.05Y-94.48
X136.27Y-65.59
X136.325Y-86.66
X136.69Y-103.69
X137.17Y-84.7
X137.27Y-65.57
X137.53Y-86.82
X137.82Y-107.3
X137.97Y-103.71
X138.27Y-65.61
X138.3Y-68.33
X138.35Y-95.19
X138.65Y-84.8
X138.99Y-103.12
X139.14Y-68.34
X139.15Y-98.65
X139.17Y-99.46
X139.18Y-89.48
X139.61Y-83.84
X140.36Y-68.16
X140.36Y-91.06
X140.38Y-89.83
X140.42Y-65.54
X140.82Y-97.3
X140.82Y-102.57
X140.85Y-99.84
X140.88Y-98.19
X141.385Y-70.665
X141.51Y-92.04
X141.73Y-99.74
X142.1Y-105.34
X142.43Y-93.35
X142.705Y-65.535
X142.74Y-102.89
X142.93Y-97.31
X143.14Y-93.85
X143.36Y-103.58
X143.73Y-64.65
X143.78Y-117.84
X143.79Y-119.14
X143.8Y-120.45
X143.91Y-104.57
X143.94Y-84.12
X143.99Y-71.51
X144.01Y-105.95
X144.09Y-110.3
X144.21Y-113.88
X144.24Y-111.5
X144.27Y-68.11
X144.461Y-103.83
X144.62Y-105.26
X144.79Y-68.83
X145.16Y-72.24
X145.29Y-60.72
X145.29Y-61.92
X145.32Y-98.7
X145.5Y-100.31
X145.51Y-93.22
X145.81Y-68.2
X146.001Y-102.191
X146.07Y-86.63
X146.1Y-85.03
X146.49Y-60.72
X146.49Y-61.92
X146.51Y-95.57
X146.56Y-82.61
X146.61Y-99.14
X147.0Y-97.0
X147.0Y-98.0
X147.02Y-100.53
X147.25Y-99.76
X147.28Y-96.16
X147.35Y-103.54
X147.41Y-85.7
X147.83Y-95.44
X148.28Y-83.26
X149.49Y-115.09
X149.57Y-112.74
X150.0Y-82.22
X150.25Y-61.4
X150.25Y-62.6
X150.25Y-116.88
X151.0Y-82.22
X151.13Y-98.97
X151.18Y-94.66
X151.27Y-92.16
X151.45Y-61.4
X151.45Y-62.6
X151.87Y-91.1
X151.88Y-94.0
X152.0Y-82.22
X152.14Y-70.87
X152.14Y-72.07
X152.18Y-92.28
X152.23Y-67.52
X152.23Y-68.72
X152.7Y-95.97
X152.87Y-99.65
X153.0Y-82.22
X153.34Y-70.87
X153.34Y-72.07
X153.39Y-74.17
X153.39Y-77.07
X153.43Y-67.52
X153.43Y-68.72
X153.86Y-95.27
X154.0Y-82.22
X154.42Y-92.62
X154.61Y-96.1
X154.65Y-99.65
X155.0Y-82.22
X155.55Y-93.61
X156.0Y-82.22
X156.07Y-64.06
X156.42Y-99.63
X157.0Y-82.22
X157.35Y-75.22
X157.4Y-76.46
X157.92Y-115.93
X158.0Y-82.22
X159.0Y-82.22
X159.25Y-66.53
X159.25Y-67.73
X159.46Y-87.37
X160.0Y-82.22
X160.0Y-92.92
X160.0Y-94.9
X160.1Y-104.73
X160.1Y-105.93
X160.45Y-66.53
X160.45Y-67.73
X160.62Y-115.94
X161.0Y-82.22
X161.0Y-92.86
X161.0Y-94.9
X161.29Y-97.79
X161.29Y-99.06
X161.3Y-104.73
X161.3Y-105.93
X162.0Y-92.88
X162.0Y-94.9
X162.56Y-97.79
X162.56Y-99.06
X162.56Y-100.33
X162.92Y-58.72
X163.0Y-92.83
X163.0Y-94.95
X163.64Y-63.27
X163.83Y-85.09
X163.83Y-86.36
X163.83Y-90.17
X163.83Y-91.44
X163.83Y-97.79
X163.83Y-99.06
X163.83Y-100.33
X164.0Y-92.85
X164.0Y-94.98
X164.4Y-68.06
X165.0Y-92.89
X165.0Y-95.02
X165.1Y-85.09
X165.1Y-86.36
X165.1Y-91.44
X165.1Y-97.79
X165.8Y-66.45
X166.0Y-92.88
X166.0Y-95.06
X166.37Y-85.09
X166.37Y-86.36
X167.0Y-92.87
X167.785Y-67.435
X167.8Y-61.59
X169.02Y-67.51
X169.19Y-68.84
X169.54Y-98.37
X169.82Y-81.04
X169.86Y-81.87
X170.04Y-78.61
X170.35Y-61.92
X170.702Y-64.342
X171.07Y-65.42
X171.17Y-92.81
X171.26Y-95.03
X171.585Y-67.555
X171.84Y-65.17
X172.48Y-92.81
X172.57Y-95.05
X172.93Y-81.13
X172.94Y-71.43
X173.09Y-72.26
X173.31Y-79.59
X173.62Y-74.64
X173.87Y-92.82
X173.89Y-95.06
X174.01Y-82.22
X174.51Y-82.87
X174.79Y-70.36
X175.05Y-85.75
X175.18Y-92.84
X175.18Y-102.6
X175.23Y-95.06
X175.57Y-67.52
X175.58Y-82.76
X176.0Y-114.0
X176.0Y-115.0
X176.0Y-116.0
X176.0Y-117.0
X176.0Y-118.0
X176.43Y-102.57
X176.6Y-95.0
X176.78Y-70.82
X176.87Y-73.96
X176.87Y-75.23
X177.0Y-114.0
X177.0Y-115.0
X177.0Y-116.0
X177.0Y-117.0
X177.0Y-118.0
X177.02Y-79.61
X177.14Y-67.5
X177.4Y-66.61
X178.0Y-114.0
X178.0Y-115.0
X178.0Y-116.0
X178.0Y-117.0
X178.0Y-118.0
X178.01Y-67.26
X178.12Y-72.14
X178.14Y-73.96
X178.14Y-75.23
X178.79Y-66.37
X179.0Y-114.0
X179.0Y-115.0
X179.0Y-116.0
X179.0Y-117.0
X179.0Y-118.0
X179.55Y-67.16
X180.0Y-114.0
X180.0Y-115.0
X180.0Y-116.0
X180.0Y-117.0
X180.0Y-118.0
X180.04Y-70.92
X180.04Y-72.12
X180.26Y-76.02
X180.78Y-98.45
X181.0Y-61.9
X181.18Y-66.26
X181.24Y-70.92
X181.24Y-72.12
X181.27Y-67.37
X182.04Y-76.57
X182.04Y-77.84
X182.04Y-79.11
X182.89Y-72.36
X183.54Y-89.38
X183.58Y-70.44
X183.62Y-79.97
X184.11Y-82.56
X184.4Y-70.82
X184.43Y-102.58
X185.18Y-70.36
X186.22Y-102.58
X186.39Y-66.06
X186.39Y-67.26
X186.87Y-62.32
X186.87Y-63.52
X187.59Y-66.06
X187.59Y-67.26
X188.07Y-62.32
X188.07Y-63.52
X188.26Y-74.48
X188.36Y-77.73
X188.66Y-73.73
X189.04Y-112.51
X189.04Y-115.05
X189.865Y-100.33
X190.04Y-111.24
X190.04Y-113.78
X190.04Y-116.32
X190.5Y-99.06
X190.5Y-101.6
X190.75Y-80.13
X191.04Y-112.51
X191.04Y-115.05
X191.135Y-100.33
X191.61Y-74.8
X191.77Y-99.06
X191.77Y-101.6
X192.04Y-111.24
X192.04Y-113.78
X192.04Y-116.32
X192.405Y-100.33
X193.04Y-112.51
X193.04Y-115.05
X193.32Y-74.82
T2
X133.62Y-114.53
X133.62Y-115.93
X134.32Y-113.83
X134.32Y-115.23
X134.32Y-116.63
X135.02Y-114.53
X135.02Y-115.93
X135.72Y-113.83
X135.72Y-115.23
X135.72Y-116.63
X136.42Y-114.53
X136.42Y-115.93
T3
X99.1Y-103.15
X101.93Y-76.56
X114.98Y-100.9
X121.8Y-99.5
X130.28Y-73.28
X138.83Y-85.85
X140.74Y-85.85
X148.35Y-120.82
X150.8Y-108.87
X151.32Y-102.48
X152.81Y-122.85
X155.18Y-110.87
X155.27Y-69.05
X155.94Y-115.52
X158.67Y-106.8
X161.96Y-115.78
X175.11Y-89.82
X193.96Y-101.9
T4
X122.92Y-81.34
X134.74Y-100.87
X136.84Y-61.38
X148.29Y-109.65
T5
X91.92Y-60.18
X91.92Y-119.82
X92.579Y-58.589
X92.579Y-61.771
X92.579Y-118.229
X92.579Y-121.411
X94.17Y-57.93
X94.17Y-62.43
X94.17Y-117.57
X94.17Y-122.07
X95.761Y-58.589
X95.761Y-61.771
X95.761Y-118.229
X95.761Y-121.411
X96.42Y-60.18
X96.42Y-119.82
X192.58Y-60.18
X192.58Y-119.82
X193.239Y-58.589
X193.239Y-61.771
X193.239Y-118.229
X193.239Y-121.411
X194.83Y-57.93
X194.83Y-62.43
X194.83Y-117.57
X194.83Y-122.07
X196.421Y-58.589
X196.421Y-61.771
X196.421Y-118.229
X196.421Y-121.411
X197.08Y-60.18
X197.08Y-119.82
T7
X191.05Y-66.425
X193.59Y-66.425
X196.13Y-66.425
T8
X91.51Y-81.07
X91.51Y-93.53
X91.53Y-87.3
X91.56Y-74.84
X91.61Y-68.61
X94.05Y-81.07
X94.05Y-93.53
X94.07Y-87.3
X94.1Y-74.84
X94.15Y-68.61
X172.4Y-105.33
X173.67Y-107.87
X174.94Y-105.33
X176.21Y-107.87
X177.48Y-105.33
X178.75Y-107.87
X180.02Y-105.33
X182.56Y-105.33
X183.83Y-107.87
T9
X108.77Y-67.07
X110.155Y-64.23
X111.54Y-67.07
X112.925Y-64.23
X114.31Y-67.07
X115.695Y-64.23
X117.08Y-67.07
X118.465Y-64.23
X119.85Y-67.07
X140.23Y-72.14
X140.23Y-74.68
X140.23Y-77.22
X140.23Y-79.76
X140.23Y-82.3
X152.56Y-57.85
X155.1Y-57.85
X157.64Y-57.85
X159.87Y-70.62
X159.87Y-73.16
X159.89Y-76.93
X159.89Y-79.47
X160.18Y-57.85
X164.04Y-70.88
X164.04Y-73.42
X164.04Y-75.96
X164.04Y-78.5
X164.04Y-81.04
X165.45Y-57.86
X166.52Y-63.33
X166.58Y-70.88
X166.58Y-73.42
X166.58Y-75.96
X166.58Y-78.5
X166.58Y-81.04
X167.99Y-57.86
X169.06Y-63.33
X169.52Y-85.915
X169.52Y-88.455
X170.53Y-57.86
X171.6Y-63.33
X173.07Y-57.86
X174.14Y-63.33
X176.68Y-63.33
X178.4Y-57.87
X179.22Y-63.33
X180.94Y-57.87
X181.07Y-93.95
X181.76Y-63.33
X183.48Y-57.87
X183.61Y-93.95
X184.3Y-63.33
X185.91Y-88.94
X186.02Y-57.87
X186.15Y-93.95
X188.45Y-88.94
X188.69Y-93.95
X192.79Y-76.22
X192.79Y-78.76
X192.79Y-81.3
X192.79Y-83.84
X192.79Y-86.38
X192.79Y-88.92
X192.79Y-91.46
X192.79Y-94.0
X197.1Y-71.14
X197.1Y-73.68
X197.1Y-76.22
X197.1Y-78.76
X197.1Y-81.3
X197.1Y-83.84
X197.1Y-86.38
X197.1Y-88.92
X197.1Y-91.46
X197.1Y-94.0
X197.1Y-96.54
X197.1Y-99.08
T10
X171.48Y-118.28
X174.02Y-118.28
X182.2Y-118.28
X184.74Y-118.28
T11
X93.27Y-107.97
X93.27Y-110.51
T12
X121.81Y-85.48
X121.81Y-105.48
T13
X170.235Y-111.17
X185.985Y-111.17
T14
X94.17Y-60.18
X94.17Y-119.82
X194.83Y-60.18
X194.83Y-119.82
T15
X101.81Y-65.65
X126.81Y-65.65
T6
X154.85Y-117.515G85X154.85Y-118.615
G05
X154.85Y-121.845G85X154.85Y-122.645
G05
X163.49Y-117.515G85X163.49Y-118.615
G05
X163.49Y-121.845G85X163.49Y-122.645
G05
T9
X102.59Y-110.55G85X105.19Y-110.55
G05
X102.79Y-116.85G85X104.99Y-116.85
G05
X108.69Y-112.35G85X108.69Y-114.55
G05
M30
