%TF.GenerationSoftware,KiCad,Pcbnew,9.0.7*%
%TF.CreationDate,2026-03-23T10:39:09+05:30*%
%TF.ProjectId,AnexVM_V01,416e6578-564d-45f5-9630-312e6b696361,rev?*%
%TF.SameCoordinates,Original*%
%TF.FileFunction,Drillmap*%
%TF.FilePolarity,Positive*%
%FSLAX45Y45*%
G04 Gerber Fmt 4.5, Leading zero omitted, Abs format (unit mm)*
G04 Created by KiCad (PCBNEW 9.0.7) date 2026-03-23 10:39:09*
%MOMM*%
%LPD*%
G01*
G04 APERTURE LIST*
%ADD10C,0.050000*%
%ADD11C,0.200000*%
%ADD12C,0.100000*%
%ADD13C,0.320000*%
G04 APERTURE END LIST*
D10*
X9000000Y-12000000D02*
X9000000Y-6000000D01*
X9400000Y-5600000D02*
X19500000Y-5600000D01*
X19500000Y-12400000D02*
X9400000Y-12400000D01*
X19900000Y-12000000D02*
G75*
G02*
X19500000Y-12400000I-400000J0D01*
G01*
X9000000Y-6000000D02*
G75*
G02*
X9400000Y-5600000I400000J0D01*
G01*
X19500000Y-5600000D02*
G75*
G02*
X19900000Y-6000000I0J-400000D01*
G01*
X19900000Y-6000000D02*
X19900000Y-12000000D01*
X9400000Y-12400000D02*
G75*
G02*
X9000000Y-12000000I0J400000D01*
G01*
D11*
D12*
X15595500Y-11824000D02*
X15660500Y-11889000D01*
X15660500Y-11824000D02*
X15595500Y-11889000D01*
X16173500Y-11824000D02*
X16238500Y-11889000D01*
X16238500Y-11824000D02*
X16173500Y-11889000D01*
X13095000Y-11985000D02*
G75*
G02*
X12995000Y-11985000I-50000J0D01*
G01*
X12995000Y-11985000D02*
G75*
G02*
X13095000Y-11985000I50000J0D01*
G01*
X13895000Y-11985000D02*
G75*
G02*
X13795000Y-11985000I-50000J0D01*
G01*
X13795000Y-11985000D02*
G75*
G02*
X13895000Y-11985000I50000J0D01*
G01*
D13*
X17240000Y-11262000D02*
X17240000Y-11582000D01*
X17080000Y-11422000D02*
X17400000Y-11422000D01*
X18383000Y-11262000D02*
X18383000Y-11582000D01*
X18223000Y-11422000D02*
X18543000Y-11422000D01*
D11*
X9258277Y-12713984D02*
X9258277Y-12513984D01*
X9258277Y-12513984D02*
X9305896Y-12513984D01*
X9305896Y-12513984D02*
X9334467Y-12523508D01*
X9334467Y-12523508D02*
X9353515Y-12542555D01*
X9353515Y-12542555D02*
X9363039Y-12561603D01*
X9363039Y-12561603D02*
X9372563Y-12599698D01*
X9372563Y-12599698D02*
X9372563Y-12628269D01*
X9372563Y-12628269D02*
X9363039Y-12666365D01*
X9363039Y-12666365D02*
X9353515Y-12685412D01*
X9353515Y-12685412D02*
X9334467Y-12704460D01*
X9334467Y-12704460D02*
X9305896Y-12713984D01*
X9305896Y-12713984D02*
X9258277Y-12713984D01*
X9458277Y-12713984D02*
X9458277Y-12580650D01*
X9458277Y-12618746D02*
X9467801Y-12599698D01*
X9467801Y-12599698D02*
X9477324Y-12590174D01*
X9477324Y-12590174D02*
X9496372Y-12580650D01*
X9496372Y-12580650D02*
X9515420Y-12580650D01*
X9582086Y-12713984D02*
X9582086Y-12580650D01*
X9582086Y-12513984D02*
X9572563Y-12523508D01*
X9572563Y-12523508D02*
X9582086Y-12533031D01*
X9582086Y-12533031D02*
X9591610Y-12523508D01*
X9591610Y-12523508D02*
X9582086Y-12513984D01*
X9582086Y-12513984D02*
X9582086Y-12533031D01*
X9705896Y-12713984D02*
X9686848Y-12704460D01*
X9686848Y-12704460D02*
X9677324Y-12685412D01*
X9677324Y-12685412D02*
X9677324Y-12513984D01*
X9810658Y-12713984D02*
X9791610Y-12704460D01*
X9791610Y-12704460D02*
X9782086Y-12685412D01*
X9782086Y-12685412D02*
X9782086Y-12513984D01*
X10039229Y-12713984D02*
X10039229Y-12513984D01*
X10039229Y-12513984D02*
X10105896Y-12656841D01*
X10105896Y-12656841D02*
X10172563Y-12513984D01*
X10172563Y-12513984D02*
X10172563Y-12713984D01*
X10353515Y-12713984D02*
X10353515Y-12609222D01*
X10353515Y-12609222D02*
X10343991Y-12590174D01*
X10343991Y-12590174D02*
X10324944Y-12580650D01*
X10324944Y-12580650D02*
X10286848Y-12580650D01*
X10286848Y-12580650D02*
X10267801Y-12590174D01*
X10353515Y-12704460D02*
X10334467Y-12713984D01*
X10334467Y-12713984D02*
X10286848Y-12713984D01*
X10286848Y-12713984D02*
X10267801Y-12704460D01*
X10267801Y-12704460D02*
X10258277Y-12685412D01*
X10258277Y-12685412D02*
X10258277Y-12666365D01*
X10258277Y-12666365D02*
X10267801Y-12647317D01*
X10267801Y-12647317D02*
X10286848Y-12637793D01*
X10286848Y-12637793D02*
X10334467Y-12637793D01*
X10334467Y-12637793D02*
X10353515Y-12628269D01*
X10448753Y-12580650D02*
X10448753Y-12780650D01*
X10448753Y-12590174D02*
X10467801Y-12580650D01*
X10467801Y-12580650D02*
X10505896Y-12580650D01*
X10505896Y-12580650D02*
X10524944Y-12590174D01*
X10524944Y-12590174D02*
X10534467Y-12599698D01*
X10534467Y-12599698D02*
X10543991Y-12618746D01*
X10543991Y-12618746D02*
X10543991Y-12675888D01*
X10543991Y-12675888D02*
X10534467Y-12694936D01*
X10534467Y-12694936D02*
X10524944Y-12704460D01*
X10524944Y-12704460D02*
X10505896Y-12713984D01*
X10505896Y-12713984D02*
X10467801Y-12713984D01*
X10467801Y-12713984D02*
X10448753Y-12704460D01*
X10629705Y-12694936D02*
X10639229Y-12704460D01*
X10639229Y-12704460D02*
X10629705Y-12713984D01*
X10629705Y-12713984D02*
X10620182Y-12704460D01*
X10620182Y-12704460D02*
X10629705Y-12694936D01*
X10629705Y-12694936D02*
X10629705Y-12713984D01*
X10629705Y-12590174D02*
X10639229Y-12599698D01*
X10639229Y-12599698D02*
X10629705Y-12609222D01*
X10629705Y-12609222D02*
X10620182Y-12599698D01*
X10620182Y-12599698D02*
X10629705Y-12590174D01*
X10629705Y-12590174D02*
X10629705Y-12609222D01*
D12*
X8932500Y-13010000D02*
X8997500Y-13075000D01*
X8997500Y-13010000D02*
X8932500Y-13075000D01*
D11*
X9296372Y-12933984D02*
X9315420Y-12933984D01*
X9315420Y-12933984D02*
X9334467Y-12943508D01*
X9334467Y-12943508D02*
X9343991Y-12953031D01*
X9343991Y-12953031D02*
X9353515Y-12972079D01*
X9353515Y-12972079D02*
X9363039Y-13010174D01*
X9363039Y-13010174D02*
X9363039Y-13057793D01*
X9363039Y-13057793D02*
X9353515Y-13095888D01*
X9353515Y-13095888D02*
X9343991Y-13114936D01*
X9343991Y-13114936D02*
X9334467Y-13124460D01*
X9334467Y-13124460D02*
X9315420Y-13133984D01*
X9315420Y-13133984D02*
X9296372Y-13133984D01*
X9296372Y-13133984D02*
X9277324Y-13124460D01*
X9277324Y-13124460D02*
X9267801Y-13114936D01*
X9267801Y-13114936D02*
X9258277Y-13095888D01*
X9258277Y-13095888D02*
X9248753Y-13057793D01*
X9248753Y-13057793D02*
X9248753Y-13010174D01*
X9248753Y-13010174D02*
X9258277Y-12972079D01*
X9258277Y-12972079D02*
X9267801Y-12953031D01*
X9267801Y-12953031D02*
X9277324Y-12943508D01*
X9277324Y-12943508D02*
X9296372Y-12933984D01*
X9448753Y-13114936D02*
X9458277Y-13124460D01*
X9458277Y-13124460D02*
X9448753Y-13133984D01*
X9448753Y-13133984D02*
X9439229Y-13124460D01*
X9439229Y-13124460D02*
X9448753Y-13114936D01*
X9448753Y-13114936D02*
X9448753Y-13133984D01*
X9629705Y-12933984D02*
X9591610Y-12933984D01*
X9591610Y-12933984D02*
X9572563Y-12943508D01*
X9572563Y-12943508D02*
X9563039Y-12953031D01*
X9563039Y-12953031D02*
X9543991Y-12981603D01*
X9543991Y-12981603D02*
X9534467Y-13019698D01*
X9534467Y-13019698D02*
X9534467Y-13095888D01*
X9534467Y-13095888D02*
X9543991Y-13114936D01*
X9543991Y-13114936D02*
X9553515Y-13124460D01*
X9553515Y-13124460D02*
X9572563Y-13133984D01*
X9572563Y-13133984D02*
X9610658Y-13133984D01*
X9610658Y-13133984D02*
X9629705Y-13124460D01*
X9629705Y-13124460D02*
X9639229Y-13114936D01*
X9639229Y-13114936D02*
X9648753Y-13095888D01*
X9648753Y-13095888D02*
X9648753Y-13048269D01*
X9648753Y-13048269D02*
X9639229Y-13029222D01*
X9639229Y-13029222D02*
X9629705Y-13019698D01*
X9629705Y-13019698D02*
X9610658Y-13010174D01*
X9610658Y-13010174D02*
X9572563Y-13010174D01*
X9572563Y-13010174D02*
X9553515Y-13019698D01*
X9553515Y-13019698D02*
X9543991Y-13029222D01*
X9543991Y-13029222D02*
X9534467Y-13048269D01*
X9829705Y-12933984D02*
X9734467Y-12933984D01*
X9734467Y-12933984D02*
X9724944Y-13029222D01*
X9724944Y-13029222D02*
X9734467Y-13019698D01*
X9734467Y-13019698D02*
X9753515Y-13010174D01*
X9753515Y-13010174D02*
X9801134Y-13010174D01*
X9801134Y-13010174D02*
X9820182Y-13019698D01*
X9820182Y-13019698D02*
X9829705Y-13029222D01*
X9829705Y-13029222D02*
X9839229Y-13048269D01*
X9839229Y-13048269D02*
X9839229Y-13095888D01*
X9839229Y-13095888D02*
X9829705Y-13114936D01*
X9829705Y-13114936D02*
X9820182Y-13124460D01*
X9820182Y-13124460D02*
X9801134Y-13133984D01*
X9801134Y-13133984D02*
X9753515Y-13133984D01*
X9753515Y-13133984D02*
X9734467Y-13124460D01*
X9734467Y-13124460D02*
X9724944Y-13114936D01*
X9963039Y-12933984D02*
X9982086Y-12933984D01*
X9982086Y-12933984D02*
X10001134Y-12943508D01*
X10001134Y-12943508D02*
X10010658Y-12953031D01*
X10010658Y-12953031D02*
X10020182Y-12972079D01*
X10020182Y-12972079D02*
X10029705Y-13010174D01*
X10029705Y-13010174D02*
X10029705Y-13057793D01*
X10029705Y-13057793D02*
X10020182Y-13095888D01*
X10020182Y-13095888D02*
X10010658Y-13114936D01*
X10010658Y-13114936D02*
X10001134Y-13124460D01*
X10001134Y-13124460D02*
X9982086Y-13133984D01*
X9982086Y-13133984D02*
X9963039Y-13133984D01*
X9963039Y-13133984D02*
X9943991Y-13124460D01*
X9943991Y-13124460D02*
X9934467Y-13114936D01*
X9934467Y-13114936D02*
X9924944Y-13095888D01*
X9924944Y-13095888D02*
X9915420Y-13057793D01*
X9915420Y-13057793D02*
X9915420Y-13010174D01*
X9915420Y-13010174D02*
X9924944Y-12972079D01*
X9924944Y-12972079D02*
X9934467Y-12953031D01*
X9934467Y-12953031D02*
X9943991Y-12943508D01*
X9943991Y-12943508D02*
X9963039Y-12933984D01*
X10115420Y-13133984D02*
X10115420Y-13000650D01*
X10115420Y-13019698D02*
X10124944Y-13010174D01*
X10124944Y-13010174D02*
X10143991Y-13000650D01*
X10143991Y-13000650D02*
X10172563Y-13000650D01*
X10172563Y-13000650D02*
X10191610Y-13010174D01*
X10191610Y-13010174D02*
X10201134Y-13029222D01*
X10201134Y-13029222D02*
X10201134Y-13133984D01*
X10201134Y-13029222D02*
X10210658Y-13010174D01*
X10210658Y-13010174D02*
X10229705Y-13000650D01*
X10229705Y-13000650D02*
X10258277Y-13000650D01*
X10258277Y-13000650D02*
X10277325Y-13010174D01*
X10277325Y-13010174D02*
X10286848Y-13029222D01*
X10286848Y-13029222D02*
X10286848Y-13133984D01*
X10382086Y-13133984D02*
X10382086Y-13000650D01*
X10382086Y-13019698D02*
X10391610Y-13010174D01*
X10391610Y-13010174D02*
X10410658Y-13000650D01*
X10410658Y-13000650D02*
X10439229Y-13000650D01*
X10439229Y-13000650D02*
X10458277Y-13010174D01*
X10458277Y-13010174D02*
X10467801Y-13029222D01*
X10467801Y-13029222D02*
X10467801Y-13133984D01*
X10467801Y-13029222D02*
X10477325Y-13010174D01*
X10477325Y-13010174D02*
X10496372Y-13000650D01*
X10496372Y-13000650D02*
X10524944Y-13000650D01*
X10524944Y-13000650D02*
X10543991Y-13010174D01*
X10543991Y-13010174D02*
X10553515Y-13029222D01*
X10553515Y-13029222D02*
X10553515Y-13133984D01*
X10943991Y-12924460D02*
X10772563Y-13181603D01*
X11201134Y-12933984D02*
X11220182Y-12933984D01*
X11220182Y-12933984D02*
X11239229Y-12943508D01*
X11239229Y-12943508D02*
X11248753Y-12953031D01*
X11248753Y-12953031D02*
X11258277Y-12972079D01*
X11258277Y-12972079D02*
X11267801Y-13010174D01*
X11267801Y-13010174D02*
X11267801Y-13057793D01*
X11267801Y-13057793D02*
X11258277Y-13095888D01*
X11258277Y-13095888D02*
X11248753Y-13114936D01*
X11248753Y-13114936D02*
X11239229Y-13124460D01*
X11239229Y-13124460D02*
X11220182Y-13133984D01*
X11220182Y-13133984D02*
X11201134Y-13133984D01*
X11201134Y-13133984D02*
X11182087Y-13124460D01*
X11182087Y-13124460D02*
X11172563Y-13114936D01*
X11172563Y-13114936D02*
X11163039Y-13095888D01*
X11163039Y-13095888D02*
X11153515Y-13057793D01*
X11153515Y-13057793D02*
X11153515Y-13010174D01*
X11153515Y-13010174D02*
X11163039Y-12972079D01*
X11163039Y-12972079D02*
X11172563Y-12953031D01*
X11172563Y-12953031D02*
X11182087Y-12943508D01*
X11182087Y-12943508D02*
X11201134Y-12933984D01*
X11353515Y-13114936D02*
X11363039Y-13124460D01*
X11363039Y-13124460D02*
X11353515Y-13133984D01*
X11353515Y-13133984D02*
X11343991Y-13124460D01*
X11343991Y-13124460D02*
X11353515Y-13114936D01*
X11353515Y-13114936D02*
X11353515Y-13133984D01*
X11486848Y-12933984D02*
X11505896Y-12933984D01*
X11505896Y-12933984D02*
X11524944Y-12943508D01*
X11524944Y-12943508D02*
X11534467Y-12953031D01*
X11534467Y-12953031D02*
X11543991Y-12972079D01*
X11543991Y-12972079D02*
X11553515Y-13010174D01*
X11553515Y-13010174D02*
X11553515Y-13057793D01*
X11553515Y-13057793D02*
X11543991Y-13095888D01*
X11543991Y-13095888D02*
X11534467Y-13114936D01*
X11534467Y-13114936D02*
X11524944Y-13124460D01*
X11524944Y-13124460D02*
X11505896Y-13133984D01*
X11505896Y-13133984D02*
X11486848Y-13133984D01*
X11486848Y-13133984D02*
X11467801Y-13124460D01*
X11467801Y-13124460D02*
X11458277Y-13114936D01*
X11458277Y-13114936D02*
X11448753Y-13095888D01*
X11448753Y-13095888D02*
X11439229Y-13057793D01*
X11439229Y-13057793D02*
X11439229Y-13010174D01*
X11439229Y-13010174D02*
X11448753Y-12972079D01*
X11448753Y-12972079D02*
X11458277Y-12953031D01*
X11458277Y-12953031D02*
X11467801Y-12943508D01*
X11467801Y-12943508D02*
X11486848Y-12933984D01*
X11629706Y-12953031D02*
X11639229Y-12943508D01*
X11639229Y-12943508D02*
X11658277Y-12933984D01*
X11658277Y-12933984D02*
X11705896Y-12933984D01*
X11705896Y-12933984D02*
X11724944Y-12943508D01*
X11724944Y-12943508D02*
X11734467Y-12953031D01*
X11734467Y-12953031D02*
X11743991Y-12972079D01*
X11743991Y-12972079D02*
X11743991Y-12991127D01*
X11743991Y-12991127D02*
X11734467Y-13019698D01*
X11734467Y-13019698D02*
X11620182Y-13133984D01*
X11620182Y-13133984D02*
X11743991Y-13133984D01*
X11924944Y-12933984D02*
X11829706Y-12933984D01*
X11829706Y-12933984D02*
X11820182Y-13029222D01*
X11820182Y-13029222D02*
X11829706Y-13019698D01*
X11829706Y-13019698D02*
X11848753Y-13010174D01*
X11848753Y-13010174D02*
X11896372Y-13010174D01*
X11896372Y-13010174D02*
X11915420Y-13019698D01*
X11915420Y-13019698D02*
X11924944Y-13029222D01*
X11924944Y-13029222D02*
X11934467Y-13048269D01*
X11934467Y-13048269D02*
X11934467Y-13095888D01*
X11934467Y-13095888D02*
X11924944Y-13114936D01*
X11924944Y-13114936D02*
X11915420Y-13124460D01*
X11915420Y-13124460D02*
X11896372Y-13133984D01*
X11896372Y-13133984D02*
X11848753Y-13133984D01*
X11848753Y-13133984D02*
X11829706Y-13124460D01*
X11829706Y-13124460D02*
X11820182Y-13114936D01*
X12105896Y-12933984D02*
X12067801Y-12933984D01*
X12067801Y-12933984D02*
X12048753Y-12943508D01*
X12048753Y-12943508D02*
X12039229Y-12953031D01*
X12039229Y-12953031D02*
X12020182Y-12981603D01*
X12020182Y-12981603D02*
X12010658Y-13019698D01*
X12010658Y-13019698D02*
X12010658Y-13095888D01*
X12010658Y-13095888D02*
X12020182Y-13114936D01*
X12020182Y-13114936D02*
X12029706Y-13124460D01*
X12029706Y-13124460D02*
X12048753Y-13133984D01*
X12048753Y-13133984D02*
X12086848Y-13133984D01*
X12086848Y-13133984D02*
X12105896Y-13124460D01*
X12105896Y-13124460D02*
X12115420Y-13114936D01*
X12115420Y-13114936D02*
X12124944Y-13095888D01*
X12124944Y-13095888D02*
X12124944Y-13048269D01*
X12124944Y-13048269D02*
X12115420Y-13029222D01*
X12115420Y-13029222D02*
X12105896Y-13019698D01*
X12105896Y-13019698D02*
X12086848Y-13010174D01*
X12086848Y-13010174D02*
X12048753Y-13010174D01*
X12048753Y-13010174D02*
X12029706Y-13019698D01*
X12029706Y-13019698D02*
X12020182Y-13029222D01*
X12020182Y-13029222D02*
X12010658Y-13048269D01*
X12201134Y-12933984D02*
X12201134Y-12972079D01*
X12277325Y-12933984D02*
X12277325Y-12972079D01*
X12572563Y-13210174D02*
X12563039Y-13200650D01*
X12563039Y-13200650D02*
X12543991Y-13172079D01*
X12543991Y-13172079D02*
X12534468Y-13153031D01*
X12534468Y-13153031D02*
X12524944Y-13124460D01*
X12524944Y-13124460D02*
X12515420Y-13076841D01*
X12515420Y-13076841D02*
X12515420Y-13038746D01*
X12515420Y-13038746D02*
X12524944Y-12991127D01*
X12524944Y-12991127D02*
X12534468Y-12962555D01*
X12534468Y-12962555D02*
X12543991Y-12943508D01*
X12543991Y-12943508D02*
X12563039Y-12914936D01*
X12563039Y-12914936D02*
X12572563Y-12905412D01*
X12639229Y-12953031D02*
X12648753Y-12943508D01*
X12648753Y-12943508D02*
X12667801Y-12933984D01*
X12667801Y-12933984D02*
X12715420Y-12933984D01*
X12715420Y-12933984D02*
X12734468Y-12943508D01*
X12734468Y-12943508D02*
X12743991Y-12953031D01*
X12743991Y-12953031D02*
X12753515Y-12972079D01*
X12753515Y-12972079D02*
X12753515Y-12991127D01*
X12753515Y-12991127D02*
X12743991Y-13019698D01*
X12743991Y-13019698D02*
X12629706Y-13133984D01*
X12629706Y-13133984D02*
X12753515Y-13133984D01*
X12991610Y-13133984D02*
X12991610Y-12933984D01*
X13077325Y-13133984D02*
X13077325Y-13029222D01*
X13077325Y-13029222D02*
X13067801Y-13010174D01*
X13067801Y-13010174D02*
X13048753Y-13000650D01*
X13048753Y-13000650D02*
X13020182Y-13000650D01*
X13020182Y-13000650D02*
X13001134Y-13010174D01*
X13001134Y-13010174D02*
X12991610Y-13019698D01*
X13201134Y-13133984D02*
X13182087Y-13124460D01*
X13182087Y-13124460D02*
X13172563Y-13114936D01*
X13172563Y-13114936D02*
X13163039Y-13095888D01*
X13163039Y-13095888D02*
X13163039Y-13038746D01*
X13163039Y-13038746D02*
X13172563Y-13019698D01*
X13172563Y-13019698D02*
X13182087Y-13010174D01*
X13182087Y-13010174D02*
X13201134Y-13000650D01*
X13201134Y-13000650D02*
X13229706Y-13000650D01*
X13229706Y-13000650D02*
X13248753Y-13010174D01*
X13248753Y-13010174D02*
X13258277Y-13019698D01*
X13258277Y-13019698D02*
X13267801Y-13038746D01*
X13267801Y-13038746D02*
X13267801Y-13095888D01*
X13267801Y-13095888D02*
X13258277Y-13114936D01*
X13258277Y-13114936D02*
X13248753Y-13124460D01*
X13248753Y-13124460D02*
X13229706Y-13133984D01*
X13229706Y-13133984D02*
X13201134Y-13133984D01*
X13382087Y-13133984D02*
X13363039Y-13124460D01*
X13363039Y-13124460D02*
X13353515Y-13105412D01*
X13353515Y-13105412D02*
X13353515Y-12933984D01*
X13534468Y-13124460D02*
X13515420Y-13133984D01*
X13515420Y-13133984D02*
X13477325Y-13133984D01*
X13477325Y-13133984D02*
X13458277Y-13124460D01*
X13458277Y-13124460D02*
X13448753Y-13105412D01*
X13448753Y-13105412D02*
X13448753Y-13029222D01*
X13448753Y-13029222D02*
X13458277Y-13010174D01*
X13458277Y-13010174D02*
X13477325Y-13000650D01*
X13477325Y-13000650D02*
X13515420Y-13000650D01*
X13515420Y-13000650D02*
X13534468Y-13010174D01*
X13534468Y-13010174D02*
X13543991Y-13029222D01*
X13543991Y-13029222D02*
X13543991Y-13048269D01*
X13543991Y-13048269D02*
X13448753Y-13067317D01*
X13620182Y-13124460D02*
X13639230Y-13133984D01*
X13639230Y-13133984D02*
X13677325Y-13133984D01*
X13677325Y-13133984D02*
X13696372Y-13124460D01*
X13696372Y-13124460D02*
X13705896Y-13105412D01*
X13705896Y-13105412D02*
X13705896Y-13095888D01*
X13705896Y-13095888D02*
X13696372Y-13076841D01*
X13696372Y-13076841D02*
X13677325Y-13067317D01*
X13677325Y-13067317D02*
X13648753Y-13067317D01*
X13648753Y-13067317D02*
X13629706Y-13057793D01*
X13629706Y-13057793D02*
X13620182Y-13038746D01*
X13620182Y-13038746D02*
X13620182Y-13029222D01*
X13620182Y-13029222D02*
X13629706Y-13010174D01*
X13629706Y-13010174D02*
X13648753Y-13000650D01*
X13648753Y-13000650D02*
X13677325Y-13000650D01*
X13677325Y-13000650D02*
X13696372Y-13010174D01*
X13772563Y-13210174D02*
X13782087Y-13200650D01*
X13782087Y-13200650D02*
X13801134Y-13172079D01*
X13801134Y-13172079D02*
X13810658Y-13153031D01*
X13810658Y-13153031D02*
X13820182Y-13124460D01*
X13820182Y-13124460D02*
X13829706Y-13076841D01*
X13829706Y-13076841D02*
X13829706Y-13038746D01*
X13829706Y-13038746D02*
X13820182Y-12991127D01*
X13820182Y-12991127D02*
X13810658Y-12962555D01*
X13810658Y-12962555D02*
X13801134Y-12943508D01*
X13801134Y-12943508D02*
X13782087Y-12914936D01*
X13782087Y-12914936D02*
X13772563Y-12905412D01*
X14134468Y-13210174D02*
X14124944Y-13200650D01*
X14124944Y-13200650D02*
X14105896Y-13172079D01*
X14105896Y-13172079D02*
X14096372Y-13153031D01*
X14096372Y-13153031D02*
X14086849Y-13124460D01*
X14086849Y-13124460D02*
X14077325Y-13076841D01*
X14077325Y-13076841D02*
X14077325Y-13038746D01*
X14077325Y-13038746D02*
X14086849Y-12991127D01*
X14086849Y-12991127D02*
X14096372Y-12962555D01*
X14096372Y-12962555D02*
X14105896Y-12943508D01*
X14105896Y-12943508D02*
X14124944Y-12914936D01*
X14124944Y-12914936D02*
X14134468Y-12905412D01*
X14210658Y-13000650D02*
X14210658Y-13133984D01*
X14210658Y-13019698D02*
X14220182Y-13010174D01*
X14220182Y-13010174D02*
X14239230Y-13000650D01*
X14239230Y-13000650D02*
X14267801Y-13000650D01*
X14267801Y-13000650D02*
X14286849Y-13010174D01*
X14286849Y-13010174D02*
X14296372Y-13029222D01*
X14296372Y-13029222D02*
X14296372Y-13133984D01*
X14420182Y-13133984D02*
X14401134Y-13124460D01*
X14401134Y-13124460D02*
X14391611Y-13114936D01*
X14391611Y-13114936D02*
X14382087Y-13095888D01*
X14382087Y-13095888D02*
X14382087Y-13038746D01*
X14382087Y-13038746D02*
X14391611Y-13019698D01*
X14391611Y-13019698D02*
X14401134Y-13010174D01*
X14401134Y-13010174D02*
X14420182Y-13000650D01*
X14420182Y-13000650D02*
X14448753Y-13000650D01*
X14448753Y-13000650D02*
X14467801Y-13010174D01*
X14467801Y-13010174D02*
X14477325Y-13019698D01*
X14477325Y-13019698D02*
X14486849Y-13038746D01*
X14486849Y-13038746D02*
X14486849Y-13095888D01*
X14486849Y-13095888D02*
X14477325Y-13114936D01*
X14477325Y-13114936D02*
X14467801Y-13124460D01*
X14467801Y-13124460D02*
X14448753Y-13133984D01*
X14448753Y-13133984D02*
X14420182Y-13133984D01*
X14543992Y-13000650D02*
X14620182Y-13000650D01*
X14572563Y-12933984D02*
X14572563Y-13105412D01*
X14572563Y-13105412D02*
X14582087Y-13124460D01*
X14582087Y-13124460D02*
X14601134Y-13133984D01*
X14601134Y-13133984D02*
X14620182Y-13133984D01*
X14839230Y-13000650D02*
X14839230Y-13200650D01*
X14839230Y-13010174D02*
X14858277Y-13000650D01*
X14858277Y-13000650D02*
X14896373Y-13000650D01*
X14896373Y-13000650D02*
X14915420Y-13010174D01*
X14915420Y-13010174D02*
X14924944Y-13019698D01*
X14924944Y-13019698D02*
X14934468Y-13038746D01*
X14934468Y-13038746D02*
X14934468Y-13095888D01*
X14934468Y-13095888D02*
X14924944Y-13114936D01*
X14924944Y-13114936D02*
X14915420Y-13124460D01*
X14915420Y-13124460D02*
X14896373Y-13133984D01*
X14896373Y-13133984D02*
X14858277Y-13133984D01*
X14858277Y-13133984D02*
X14839230Y-13124460D01*
X15048753Y-13133984D02*
X15029706Y-13124460D01*
X15029706Y-13124460D02*
X15020182Y-13105412D01*
X15020182Y-13105412D02*
X15020182Y-12933984D01*
X15210658Y-13133984D02*
X15210658Y-13029222D01*
X15210658Y-13029222D02*
X15201134Y-13010174D01*
X15201134Y-13010174D02*
X15182087Y-13000650D01*
X15182087Y-13000650D02*
X15143992Y-13000650D01*
X15143992Y-13000650D02*
X15124944Y-13010174D01*
X15210658Y-13124460D02*
X15191611Y-13133984D01*
X15191611Y-13133984D02*
X15143992Y-13133984D01*
X15143992Y-13133984D02*
X15124944Y-13124460D01*
X15124944Y-13124460D02*
X15115420Y-13105412D01*
X15115420Y-13105412D02*
X15115420Y-13086365D01*
X15115420Y-13086365D02*
X15124944Y-13067317D01*
X15124944Y-13067317D02*
X15143992Y-13057793D01*
X15143992Y-13057793D02*
X15191611Y-13057793D01*
X15191611Y-13057793D02*
X15210658Y-13048269D01*
X15277325Y-13000650D02*
X15353515Y-13000650D01*
X15305896Y-12933984D02*
X15305896Y-13105412D01*
X15305896Y-13105412D02*
X15315420Y-13124460D01*
X15315420Y-13124460D02*
X15334468Y-13133984D01*
X15334468Y-13133984D02*
X15353515Y-13133984D01*
X15496373Y-13124460D02*
X15477325Y-13133984D01*
X15477325Y-13133984D02*
X15439230Y-13133984D01*
X15439230Y-13133984D02*
X15420182Y-13124460D01*
X15420182Y-13124460D02*
X15410658Y-13105412D01*
X15410658Y-13105412D02*
X15410658Y-13029222D01*
X15410658Y-13029222D02*
X15420182Y-13010174D01*
X15420182Y-13010174D02*
X15439230Y-13000650D01*
X15439230Y-13000650D02*
X15477325Y-13000650D01*
X15477325Y-13000650D02*
X15496373Y-13010174D01*
X15496373Y-13010174D02*
X15505896Y-13029222D01*
X15505896Y-13029222D02*
X15505896Y-13048269D01*
X15505896Y-13048269D02*
X15410658Y-13067317D01*
X15677325Y-13133984D02*
X15677325Y-12933984D01*
X15677325Y-13124460D02*
X15658277Y-13133984D01*
X15658277Y-13133984D02*
X15620182Y-13133984D01*
X15620182Y-13133984D02*
X15601134Y-13124460D01*
X15601134Y-13124460D02*
X15591611Y-13114936D01*
X15591611Y-13114936D02*
X15582087Y-13095888D01*
X15582087Y-13095888D02*
X15582087Y-13038746D01*
X15582087Y-13038746D02*
X15591611Y-13019698D01*
X15591611Y-13019698D02*
X15601134Y-13010174D01*
X15601134Y-13010174D02*
X15620182Y-13000650D01*
X15620182Y-13000650D02*
X15658277Y-13000650D01*
X15658277Y-13000650D02*
X15677325Y-13010174D01*
X15753515Y-13210174D02*
X15763039Y-13200650D01*
X15763039Y-13200650D02*
X15782087Y-13172079D01*
X15782087Y-13172079D02*
X15791611Y-13153031D01*
X15791611Y-13153031D02*
X15801134Y-13124460D01*
X15801134Y-13124460D02*
X15810658Y-13076841D01*
X15810658Y-13076841D02*
X15810658Y-13038746D01*
X15810658Y-13038746D02*
X15801134Y-12991127D01*
X15801134Y-12991127D02*
X15791611Y-12962555D01*
X15791611Y-12962555D02*
X15782087Y-12943508D01*
X15782087Y-12943508D02*
X15763039Y-12914936D01*
X15763039Y-12914936D02*
X15753515Y-12905412D01*
D12*
X8997500Y-13306500D02*
G75*
G02*
X8897500Y-13306500I-50000J0D01*
G01*
X8897500Y-13306500D02*
G75*
G02*
X8997500Y-13306500I50000J0D01*
G01*
D11*
X9363039Y-13397984D02*
X9248753Y-13397984D01*
X9305896Y-13397984D02*
X9305896Y-13197984D01*
X9305896Y-13197984D02*
X9286848Y-13226555D01*
X9286848Y-13226555D02*
X9267801Y-13245603D01*
X9267801Y-13245603D02*
X9248753Y-13255127D01*
X9448753Y-13378936D02*
X9458277Y-13388460D01*
X9458277Y-13388460D02*
X9448753Y-13397984D01*
X9448753Y-13397984D02*
X9439229Y-13388460D01*
X9439229Y-13388460D02*
X9448753Y-13378936D01*
X9448753Y-13378936D02*
X9448753Y-13397984D01*
X9582086Y-13197984D02*
X9601134Y-13197984D01*
X9601134Y-13197984D02*
X9620182Y-13207508D01*
X9620182Y-13207508D02*
X9629705Y-13217031D01*
X9629705Y-13217031D02*
X9639229Y-13236079D01*
X9639229Y-13236079D02*
X9648753Y-13274174D01*
X9648753Y-13274174D02*
X9648753Y-13321793D01*
X9648753Y-13321793D02*
X9639229Y-13359888D01*
X9639229Y-13359888D02*
X9629705Y-13378936D01*
X9629705Y-13378936D02*
X9620182Y-13388460D01*
X9620182Y-13388460D02*
X9601134Y-13397984D01*
X9601134Y-13397984D02*
X9582086Y-13397984D01*
X9582086Y-13397984D02*
X9563039Y-13388460D01*
X9563039Y-13388460D02*
X9553515Y-13378936D01*
X9553515Y-13378936D02*
X9543991Y-13359888D01*
X9543991Y-13359888D02*
X9534467Y-13321793D01*
X9534467Y-13321793D02*
X9534467Y-13274174D01*
X9534467Y-13274174D02*
X9543991Y-13236079D01*
X9543991Y-13236079D02*
X9553515Y-13217031D01*
X9553515Y-13217031D02*
X9563039Y-13207508D01*
X9563039Y-13207508D02*
X9582086Y-13197984D01*
X9772563Y-13197984D02*
X9791610Y-13197984D01*
X9791610Y-13197984D02*
X9810658Y-13207508D01*
X9810658Y-13207508D02*
X9820182Y-13217031D01*
X9820182Y-13217031D02*
X9829705Y-13236079D01*
X9829705Y-13236079D02*
X9839229Y-13274174D01*
X9839229Y-13274174D02*
X9839229Y-13321793D01*
X9839229Y-13321793D02*
X9829705Y-13359888D01*
X9829705Y-13359888D02*
X9820182Y-13378936D01*
X9820182Y-13378936D02*
X9810658Y-13388460D01*
X9810658Y-13388460D02*
X9791610Y-13397984D01*
X9791610Y-13397984D02*
X9772563Y-13397984D01*
X9772563Y-13397984D02*
X9753515Y-13388460D01*
X9753515Y-13388460D02*
X9743991Y-13378936D01*
X9743991Y-13378936D02*
X9734467Y-13359888D01*
X9734467Y-13359888D02*
X9724944Y-13321793D01*
X9724944Y-13321793D02*
X9724944Y-13274174D01*
X9724944Y-13274174D02*
X9734467Y-13236079D01*
X9734467Y-13236079D02*
X9743991Y-13217031D01*
X9743991Y-13217031D02*
X9753515Y-13207508D01*
X9753515Y-13207508D02*
X9772563Y-13197984D01*
X9963039Y-13197984D02*
X9982086Y-13197984D01*
X9982086Y-13197984D02*
X10001134Y-13207508D01*
X10001134Y-13207508D02*
X10010658Y-13217031D01*
X10010658Y-13217031D02*
X10020182Y-13236079D01*
X10020182Y-13236079D02*
X10029705Y-13274174D01*
X10029705Y-13274174D02*
X10029705Y-13321793D01*
X10029705Y-13321793D02*
X10020182Y-13359888D01*
X10020182Y-13359888D02*
X10010658Y-13378936D01*
X10010658Y-13378936D02*
X10001134Y-13388460D01*
X10001134Y-13388460D02*
X9982086Y-13397984D01*
X9982086Y-13397984D02*
X9963039Y-13397984D01*
X9963039Y-13397984D02*
X9943991Y-13388460D01*
X9943991Y-13388460D02*
X9934467Y-13378936D01*
X9934467Y-13378936D02*
X9924944Y-13359888D01*
X9924944Y-13359888D02*
X9915420Y-13321793D01*
X9915420Y-13321793D02*
X9915420Y-13274174D01*
X9915420Y-13274174D02*
X9924944Y-13236079D01*
X9924944Y-13236079D02*
X9934467Y-13217031D01*
X9934467Y-13217031D02*
X9943991Y-13207508D01*
X9943991Y-13207508D02*
X9963039Y-13197984D01*
X10115420Y-13397984D02*
X10115420Y-13264650D01*
X10115420Y-13283698D02*
X10124944Y-13274174D01*
X10124944Y-13274174D02*
X10143991Y-13264650D01*
X10143991Y-13264650D02*
X10172563Y-13264650D01*
X10172563Y-13264650D02*
X10191610Y-13274174D01*
X10191610Y-13274174D02*
X10201134Y-13293222D01*
X10201134Y-13293222D02*
X10201134Y-13397984D01*
X10201134Y-13293222D02*
X10210658Y-13274174D01*
X10210658Y-13274174D02*
X10229705Y-13264650D01*
X10229705Y-13264650D02*
X10258277Y-13264650D01*
X10258277Y-13264650D02*
X10277325Y-13274174D01*
X10277325Y-13274174D02*
X10286848Y-13293222D01*
X10286848Y-13293222D02*
X10286848Y-13397984D01*
X10382086Y-13397984D02*
X10382086Y-13264650D01*
X10382086Y-13283698D02*
X10391610Y-13274174D01*
X10391610Y-13274174D02*
X10410658Y-13264650D01*
X10410658Y-13264650D02*
X10439229Y-13264650D01*
X10439229Y-13264650D02*
X10458277Y-13274174D01*
X10458277Y-13274174D02*
X10467801Y-13293222D01*
X10467801Y-13293222D02*
X10467801Y-13397984D01*
X10467801Y-13293222D02*
X10477325Y-13274174D01*
X10477325Y-13274174D02*
X10496372Y-13264650D01*
X10496372Y-13264650D02*
X10524944Y-13264650D01*
X10524944Y-13264650D02*
X10543991Y-13274174D01*
X10543991Y-13274174D02*
X10553515Y-13293222D01*
X10553515Y-13293222D02*
X10553515Y-13397984D01*
X10943991Y-13188460D02*
X10772563Y-13445603D01*
X11201134Y-13197984D02*
X11220182Y-13197984D01*
X11220182Y-13197984D02*
X11239229Y-13207508D01*
X11239229Y-13207508D02*
X11248753Y-13217031D01*
X11248753Y-13217031D02*
X11258277Y-13236079D01*
X11258277Y-13236079D02*
X11267801Y-13274174D01*
X11267801Y-13274174D02*
X11267801Y-13321793D01*
X11267801Y-13321793D02*
X11258277Y-13359888D01*
X11258277Y-13359888D02*
X11248753Y-13378936D01*
X11248753Y-13378936D02*
X11239229Y-13388460D01*
X11239229Y-13388460D02*
X11220182Y-13397984D01*
X11220182Y-13397984D02*
X11201134Y-13397984D01*
X11201134Y-13397984D02*
X11182087Y-13388460D01*
X11182087Y-13388460D02*
X11172563Y-13378936D01*
X11172563Y-13378936D02*
X11163039Y-13359888D01*
X11163039Y-13359888D02*
X11153515Y-13321793D01*
X11153515Y-13321793D02*
X11153515Y-13274174D01*
X11153515Y-13274174D02*
X11163039Y-13236079D01*
X11163039Y-13236079D02*
X11172563Y-13217031D01*
X11172563Y-13217031D02*
X11182087Y-13207508D01*
X11182087Y-13207508D02*
X11201134Y-13197984D01*
X11353515Y-13378936D02*
X11363039Y-13388460D01*
X11363039Y-13388460D02*
X11353515Y-13397984D01*
X11353515Y-13397984D02*
X11343991Y-13388460D01*
X11343991Y-13388460D02*
X11353515Y-13378936D01*
X11353515Y-13378936D02*
X11353515Y-13397984D01*
X11486848Y-13197984D02*
X11505896Y-13197984D01*
X11505896Y-13197984D02*
X11524944Y-13207508D01*
X11524944Y-13207508D02*
X11534467Y-13217031D01*
X11534467Y-13217031D02*
X11543991Y-13236079D01*
X11543991Y-13236079D02*
X11553515Y-13274174D01*
X11553515Y-13274174D02*
X11553515Y-13321793D01*
X11553515Y-13321793D02*
X11543991Y-13359888D01*
X11543991Y-13359888D02*
X11534467Y-13378936D01*
X11534467Y-13378936D02*
X11524944Y-13388460D01*
X11524944Y-13388460D02*
X11505896Y-13397984D01*
X11505896Y-13397984D02*
X11486848Y-13397984D01*
X11486848Y-13397984D02*
X11467801Y-13388460D01*
X11467801Y-13388460D02*
X11458277Y-13378936D01*
X11458277Y-13378936D02*
X11448753Y-13359888D01*
X11448753Y-13359888D02*
X11439229Y-13321793D01*
X11439229Y-13321793D02*
X11439229Y-13274174D01*
X11439229Y-13274174D02*
X11448753Y-13236079D01*
X11448753Y-13236079D02*
X11458277Y-13217031D01*
X11458277Y-13217031D02*
X11467801Y-13207508D01*
X11467801Y-13207508D02*
X11486848Y-13197984D01*
X11620182Y-13197984D02*
X11743991Y-13197984D01*
X11743991Y-13197984D02*
X11677325Y-13274174D01*
X11677325Y-13274174D02*
X11705896Y-13274174D01*
X11705896Y-13274174D02*
X11724944Y-13283698D01*
X11724944Y-13283698D02*
X11734467Y-13293222D01*
X11734467Y-13293222D02*
X11743991Y-13312269D01*
X11743991Y-13312269D02*
X11743991Y-13359888D01*
X11743991Y-13359888D02*
X11734467Y-13378936D01*
X11734467Y-13378936D02*
X11724944Y-13388460D01*
X11724944Y-13388460D02*
X11705896Y-13397984D01*
X11705896Y-13397984D02*
X11648753Y-13397984D01*
X11648753Y-13397984D02*
X11629706Y-13388460D01*
X11629706Y-13388460D02*
X11620182Y-13378936D01*
X11839229Y-13397984D02*
X11877325Y-13397984D01*
X11877325Y-13397984D02*
X11896372Y-13388460D01*
X11896372Y-13388460D02*
X11905896Y-13378936D01*
X11905896Y-13378936D02*
X11924944Y-13350365D01*
X11924944Y-13350365D02*
X11934467Y-13312269D01*
X11934467Y-13312269D02*
X11934467Y-13236079D01*
X11934467Y-13236079D02*
X11924944Y-13217031D01*
X11924944Y-13217031D02*
X11915420Y-13207508D01*
X11915420Y-13207508D02*
X11896372Y-13197984D01*
X11896372Y-13197984D02*
X11858277Y-13197984D01*
X11858277Y-13197984D02*
X11839229Y-13207508D01*
X11839229Y-13207508D02*
X11829706Y-13217031D01*
X11829706Y-13217031D02*
X11820182Y-13236079D01*
X11820182Y-13236079D02*
X11820182Y-13283698D01*
X11820182Y-13283698D02*
X11829706Y-13302746D01*
X11829706Y-13302746D02*
X11839229Y-13312269D01*
X11839229Y-13312269D02*
X11858277Y-13321793D01*
X11858277Y-13321793D02*
X11896372Y-13321793D01*
X11896372Y-13321793D02*
X11915420Y-13312269D01*
X11915420Y-13312269D02*
X11924944Y-13302746D01*
X11924944Y-13302746D02*
X11934467Y-13283698D01*
X12105896Y-13264650D02*
X12105896Y-13397984D01*
X12058277Y-13188460D02*
X12010658Y-13331317D01*
X12010658Y-13331317D02*
X12134467Y-13331317D01*
X12201134Y-13197984D02*
X12201134Y-13236079D01*
X12277325Y-13197984D02*
X12277325Y-13236079D01*
X12572563Y-13474174D02*
X12563039Y-13464650D01*
X12563039Y-13464650D02*
X12543991Y-13436079D01*
X12543991Y-13436079D02*
X12534468Y-13417031D01*
X12534468Y-13417031D02*
X12524944Y-13388460D01*
X12524944Y-13388460D02*
X12515420Y-13340841D01*
X12515420Y-13340841D02*
X12515420Y-13302746D01*
X12515420Y-13302746D02*
X12524944Y-13255127D01*
X12524944Y-13255127D02*
X12534468Y-13226555D01*
X12534468Y-13226555D02*
X12543991Y-13207508D01*
X12543991Y-13207508D02*
X12563039Y-13178936D01*
X12563039Y-13178936D02*
X12572563Y-13169412D01*
X12639229Y-13217031D02*
X12648753Y-13207508D01*
X12648753Y-13207508D02*
X12667801Y-13197984D01*
X12667801Y-13197984D02*
X12715420Y-13197984D01*
X12715420Y-13197984D02*
X12734468Y-13207508D01*
X12734468Y-13207508D02*
X12743991Y-13217031D01*
X12743991Y-13217031D02*
X12753515Y-13236079D01*
X12753515Y-13236079D02*
X12753515Y-13255127D01*
X12753515Y-13255127D02*
X12743991Y-13283698D01*
X12743991Y-13283698D02*
X12629706Y-13397984D01*
X12629706Y-13397984D02*
X12753515Y-13397984D01*
X12991610Y-13397984D02*
X12991610Y-13197984D01*
X13077325Y-13397984D02*
X13077325Y-13293222D01*
X13077325Y-13293222D02*
X13067801Y-13274174D01*
X13067801Y-13274174D02*
X13048753Y-13264650D01*
X13048753Y-13264650D02*
X13020182Y-13264650D01*
X13020182Y-13264650D02*
X13001134Y-13274174D01*
X13001134Y-13274174D02*
X12991610Y-13283698D01*
X13201134Y-13397984D02*
X13182087Y-13388460D01*
X13182087Y-13388460D02*
X13172563Y-13378936D01*
X13172563Y-13378936D02*
X13163039Y-13359888D01*
X13163039Y-13359888D02*
X13163039Y-13302746D01*
X13163039Y-13302746D02*
X13172563Y-13283698D01*
X13172563Y-13283698D02*
X13182087Y-13274174D01*
X13182087Y-13274174D02*
X13201134Y-13264650D01*
X13201134Y-13264650D02*
X13229706Y-13264650D01*
X13229706Y-13264650D02*
X13248753Y-13274174D01*
X13248753Y-13274174D02*
X13258277Y-13283698D01*
X13258277Y-13283698D02*
X13267801Y-13302746D01*
X13267801Y-13302746D02*
X13267801Y-13359888D01*
X13267801Y-13359888D02*
X13258277Y-13378936D01*
X13258277Y-13378936D02*
X13248753Y-13388460D01*
X13248753Y-13388460D02*
X13229706Y-13397984D01*
X13229706Y-13397984D02*
X13201134Y-13397984D01*
X13382087Y-13397984D02*
X13363039Y-13388460D01*
X13363039Y-13388460D02*
X13353515Y-13369412D01*
X13353515Y-13369412D02*
X13353515Y-13197984D01*
X13534468Y-13388460D02*
X13515420Y-13397984D01*
X13515420Y-13397984D02*
X13477325Y-13397984D01*
X13477325Y-13397984D02*
X13458277Y-13388460D01*
X13458277Y-13388460D02*
X13448753Y-13369412D01*
X13448753Y-13369412D02*
X13448753Y-13293222D01*
X13448753Y-13293222D02*
X13458277Y-13274174D01*
X13458277Y-13274174D02*
X13477325Y-13264650D01*
X13477325Y-13264650D02*
X13515420Y-13264650D01*
X13515420Y-13264650D02*
X13534468Y-13274174D01*
X13534468Y-13274174D02*
X13543991Y-13293222D01*
X13543991Y-13293222D02*
X13543991Y-13312269D01*
X13543991Y-13312269D02*
X13448753Y-13331317D01*
X13620182Y-13388460D02*
X13639230Y-13397984D01*
X13639230Y-13397984D02*
X13677325Y-13397984D01*
X13677325Y-13397984D02*
X13696372Y-13388460D01*
X13696372Y-13388460D02*
X13705896Y-13369412D01*
X13705896Y-13369412D02*
X13705896Y-13359888D01*
X13705896Y-13359888D02*
X13696372Y-13340841D01*
X13696372Y-13340841D02*
X13677325Y-13331317D01*
X13677325Y-13331317D02*
X13648753Y-13331317D01*
X13648753Y-13331317D02*
X13629706Y-13321793D01*
X13629706Y-13321793D02*
X13620182Y-13302746D01*
X13620182Y-13302746D02*
X13620182Y-13293222D01*
X13620182Y-13293222D02*
X13629706Y-13274174D01*
X13629706Y-13274174D02*
X13648753Y-13264650D01*
X13648753Y-13264650D02*
X13677325Y-13264650D01*
X13677325Y-13264650D02*
X13696372Y-13274174D01*
X13772563Y-13474174D02*
X13782087Y-13464650D01*
X13782087Y-13464650D02*
X13801134Y-13436079D01*
X13801134Y-13436079D02*
X13810658Y-13417031D01*
X13810658Y-13417031D02*
X13820182Y-13388460D01*
X13820182Y-13388460D02*
X13829706Y-13340841D01*
X13829706Y-13340841D02*
X13829706Y-13302746D01*
X13829706Y-13302746D02*
X13820182Y-13255127D01*
X13820182Y-13255127D02*
X13810658Y-13226555D01*
X13810658Y-13226555D02*
X13801134Y-13207508D01*
X13801134Y-13207508D02*
X13782087Y-13178936D01*
X13782087Y-13178936D02*
X13772563Y-13169412D01*
X14134468Y-13474174D02*
X14124944Y-13464650D01*
X14124944Y-13464650D02*
X14105896Y-13436079D01*
X14105896Y-13436079D02*
X14096372Y-13417031D01*
X14096372Y-13417031D02*
X14086849Y-13388460D01*
X14086849Y-13388460D02*
X14077325Y-13340841D01*
X14077325Y-13340841D02*
X14077325Y-13302746D01*
X14077325Y-13302746D02*
X14086849Y-13255127D01*
X14086849Y-13255127D02*
X14096372Y-13226555D01*
X14096372Y-13226555D02*
X14105896Y-13207508D01*
X14105896Y-13207508D02*
X14124944Y-13178936D01*
X14124944Y-13178936D02*
X14134468Y-13169412D01*
X14210658Y-13264650D02*
X14210658Y-13397984D01*
X14210658Y-13283698D02*
X14220182Y-13274174D01*
X14220182Y-13274174D02*
X14239230Y-13264650D01*
X14239230Y-13264650D02*
X14267801Y-13264650D01*
X14267801Y-13264650D02*
X14286849Y-13274174D01*
X14286849Y-13274174D02*
X14296372Y-13293222D01*
X14296372Y-13293222D02*
X14296372Y-13397984D01*
X14420182Y-13397984D02*
X14401134Y-13388460D01*
X14401134Y-13388460D02*
X14391611Y-13378936D01*
X14391611Y-13378936D02*
X14382087Y-13359888D01*
X14382087Y-13359888D02*
X14382087Y-13302746D01*
X14382087Y-13302746D02*
X14391611Y-13283698D01*
X14391611Y-13283698D02*
X14401134Y-13274174D01*
X14401134Y-13274174D02*
X14420182Y-13264650D01*
X14420182Y-13264650D02*
X14448753Y-13264650D01*
X14448753Y-13264650D02*
X14467801Y-13274174D01*
X14467801Y-13274174D02*
X14477325Y-13283698D01*
X14477325Y-13283698D02*
X14486849Y-13302746D01*
X14486849Y-13302746D02*
X14486849Y-13359888D01*
X14486849Y-13359888D02*
X14477325Y-13378936D01*
X14477325Y-13378936D02*
X14467801Y-13388460D01*
X14467801Y-13388460D02*
X14448753Y-13397984D01*
X14448753Y-13397984D02*
X14420182Y-13397984D01*
X14543992Y-13264650D02*
X14620182Y-13264650D01*
X14572563Y-13197984D02*
X14572563Y-13369412D01*
X14572563Y-13369412D02*
X14582087Y-13388460D01*
X14582087Y-13388460D02*
X14601134Y-13397984D01*
X14601134Y-13397984D02*
X14620182Y-13397984D01*
X14839230Y-13264650D02*
X14839230Y-13464650D01*
X14839230Y-13274174D02*
X14858277Y-13264650D01*
X14858277Y-13264650D02*
X14896373Y-13264650D01*
X14896373Y-13264650D02*
X14915420Y-13274174D01*
X14915420Y-13274174D02*
X14924944Y-13283698D01*
X14924944Y-13283698D02*
X14934468Y-13302746D01*
X14934468Y-13302746D02*
X14934468Y-13359888D01*
X14934468Y-13359888D02*
X14924944Y-13378936D01*
X14924944Y-13378936D02*
X14915420Y-13388460D01*
X14915420Y-13388460D02*
X14896373Y-13397984D01*
X14896373Y-13397984D02*
X14858277Y-13397984D01*
X14858277Y-13397984D02*
X14839230Y-13388460D01*
X15048753Y-13397984D02*
X15029706Y-13388460D01*
X15029706Y-13388460D02*
X15020182Y-13369412D01*
X15020182Y-13369412D02*
X15020182Y-13197984D01*
X15210658Y-13397984D02*
X15210658Y-13293222D01*
X15210658Y-13293222D02*
X15201134Y-13274174D01*
X15201134Y-13274174D02*
X15182087Y-13264650D01*
X15182087Y-13264650D02*
X15143992Y-13264650D01*
X15143992Y-13264650D02*
X15124944Y-13274174D01*
X15210658Y-13388460D02*
X15191611Y-13397984D01*
X15191611Y-13397984D02*
X15143992Y-13397984D01*
X15143992Y-13397984D02*
X15124944Y-13388460D01*
X15124944Y-13388460D02*
X15115420Y-13369412D01*
X15115420Y-13369412D02*
X15115420Y-13350365D01*
X15115420Y-13350365D02*
X15124944Y-13331317D01*
X15124944Y-13331317D02*
X15143992Y-13321793D01*
X15143992Y-13321793D02*
X15191611Y-13321793D01*
X15191611Y-13321793D02*
X15210658Y-13312269D01*
X15277325Y-13264650D02*
X15353515Y-13264650D01*
X15305896Y-13197984D02*
X15305896Y-13369412D01*
X15305896Y-13369412D02*
X15315420Y-13388460D01*
X15315420Y-13388460D02*
X15334468Y-13397984D01*
X15334468Y-13397984D02*
X15353515Y-13397984D01*
X15496373Y-13388460D02*
X15477325Y-13397984D01*
X15477325Y-13397984D02*
X15439230Y-13397984D01*
X15439230Y-13397984D02*
X15420182Y-13388460D01*
X15420182Y-13388460D02*
X15410658Y-13369412D01*
X15410658Y-13369412D02*
X15410658Y-13293222D01*
X15410658Y-13293222D02*
X15420182Y-13274174D01*
X15420182Y-13274174D02*
X15439230Y-13264650D01*
X15439230Y-13264650D02*
X15477325Y-13264650D01*
X15477325Y-13264650D02*
X15496373Y-13274174D01*
X15496373Y-13274174D02*
X15505896Y-13293222D01*
X15505896Y-13293222D02*
X15505896Y-13312269D01*
X15505896Y-13312269D02*
X15410658Y-13331317D01*
X15677325Y-13397984D02*
X15677325Y-13197984D01*
X15677325Y-13388460D02*
X15658277Y-13397984D01*
X15658277Y-13397984D02*
X15620182Y-13397984D01*
X15620182Y-13397984D02*
X15601134Y-13388460D01*
X15601134Y-13388460D02*
X15591611Y-13378936D01*
X15591611Y-13378936D02*
X15582087Y-13359888D01*
X15582087Y-13359888D02*
X15582087Y-13302746D01*
X15582087Y-13302746D02*
X15591611Y-13283698D01*
X15591611Y-13283698D02*
X15601134Y-13274174D01*
X15601134Y-13274174D02*
X15620182Y-13264650D01*
X15620182Y-13264650D02*
X15658277Y-13264650D01*
X15658277Y-13264650D02*
X15677325Y-13274174D01*
X15753515Y-13474174D02*
X15763039Y-13464650D01*
X15763039Y-13464650D02*
X15782087Y-13436079D01*
X15782087Y-13436079D02*
X15791611Y-13417031D01*
X15791611Y-13417031D02*
X15801134Y-13388460D01*
X15801134Y-13388460D02*
X15810658Y-13340841D01*
X15810658Y-13340841D02*
X15810658Y-13302746D01*
X15810658Y-13302746D02*
X15801134Y-13255127D01*
X15801134Y-13255127D02*
X15791611Y-13226555D01*
X15791611Y-13226555D02*
X15782087Y-13207508D01*
X15782087Y-13207508D02*
X15763039Y-13178936D01*
X15763039Y-13178936D02*
X15753515Y-13169412D01*
X8897500Y-13470500D02*
X8897500Y-13670500D01*
X8797500Y-13570500D02*
X8997500Y-13570500D01*
X9239229Y-13461984D02*
X9363039Y-13461984D01*
X9363039Y-13461984D02*
X9296372Y-13538174D01*
X9296372Y-13538174D02*
X9324944Y-13538174D01*
X9324944Y-13538174D02*
X9343991Y-13547698D01*
X9343991Y-13547698D02*
X9353515Y-13557222D01*
X9353515Y-13557222D02*
X9363039Y-13576269D01*
X9363039Y-13576269D02*
X9363039Y-13623888D01*
X9363039Y-13623888D02*
X9353515Y-13642936D01*
X9353515Y-13642936D02*
X9343991Y-13652460D01*
X9343991Y-13652460D02*
X9324944Y-13661984D01*
X9324944Y-13661984D02*
X9267801Y-13661984D01*
X9267801Y-13661984D02*
X9248753Y-13652460D01*
X9248753Y-13652460D02*
X9239229Y-13642936D01*
X9448753Y-13642936D02*
X9458277Y-13652460D01*
X9458277Y-13652460D02*
X9448753Y-13661984D01*
X9448753Y-13661984D02*
X9439229Y-13652460D01*
X9439229Y-13652460D02*
X9448753Y-13642936D01*
X9448753Y-13642936D02*
X9448753Y-13661984D01*
X9534467Y-13481031D02*
X9543991Y-13471508D01*
X9543991Y-13471508D02*
X9563039Y-13461984D01*
X9563039Y-13461984D02*
X9610658Y-13461984D01*
X9610658Y-13461984D02*
X9629705Y-13471508D01*
X9629705Y-13471508D02*
X9639229Y-13481031D01*
X9639229Y-13481031D02*
X9648753Y-13500079D01*
X9648753Y-13500079D02*
X9648753Y-13519127D01*
X9648753Y-13519127D02*
X9639229Y-13547698D01*
X9639229Y-13547698D02*
X9524944Y-13661984D01*
X9524944Y-13661984D02*
X9648753Y-13661984D01*
X9772563Y-13461984D02*
X9791610Y-13461984D01*
X9791610Y-13461984D02*
X9810658Y-13471508D01*
X9810658Y-13471508D02*
X9820182Y-13481031D01*
X9820182Y-13481031D02*
X9829705Y-13500079D01*
X9829705Y-13500079D02*
X9839229Y-13538174D01*
X9839229Y-13538174D02*
X9839229Y-13585793D01*
X9839229Y-13585793D02*
X9829705Y-13623888D01*
X9829705Y-13623888D02*
X9820182Y-13642936D01*
X9820182Y-13642936D02*
X9810658Y-13652460D01*
X9810658Y-13652460D02*
X9791610Y-13661984D01*
X9791610Y-13661984D02*
X9772563Y-13661984D01*
X9772563Y-13661984D02*
X9753515Y-13652460D01*
X9753515Y-13652460D02*
X9743991Y-13642936D01*
X9743991Y-13642936D02*
X9734467Y-13623888D01*
X9734467Y-13623888D02*
X9724944Y-13585793D01*
X9724944Y-13585793D02*
X9724944Y-13538174D01*
X9724944Y-13538174D02*
X9734467Y-13500079D01*
X9734467Y-13500079D02*
X9743991Y-13481031D01*
X9743991Y-13481031D02*
X9753515Y-13471508D01*
X9753515Y-13471508D02*
X9772563Y-13461984D01*
X9963039Y-13461984D02*
X9982086Y-13461984D01*
X9982086Y-13461984D02*
X10001134Y-13471508D01*
X10001134Y-13471508D02*
X10010658Y-13481031D01*
X10010658Y-13481031D02*
X10020182Y-13500079D01*
X10020182Y-13500079D02*
X10029705Y-13538174D01*
X10029705Y-13538174D02*
X10029705Y-13585793D01*
X10029705Y-13585793D02*
X10020182Y-13623888D01*
X10020182Y-13623888D02*
X10010658Y-13642936D01*
X10010658Y-13642936D02*
X10001134Y-13652460D01*
X10001134Y-13652460D02*
X9982086Y-13661984D01*
X9982086Y-13661984D02*
X9963039Y-13661984D01*
X9963039Y-13661984D02*
X9943991Y-13652460D01*
X9943991Y-13652460D02*
X9934467Y-13642936D01*
X9934467Y-13642936D02*
X9924944Y-13623888D01*
X9924944Y-13623888D02*
X9915420Y-13585793D01*
X9915420Y-13585793D02*
X9915420Y-13538174D01*
X9915420Y-13538174D02*
X9924944Y-13500079D01*
X9924944Y-13500079D02*
X9934467Y-13481031D01*
X9934467Y-13481031D02*
X9943991Y-13471508D01*
X9943991Y-13471508D02*
X9963039Y-13461984D01*
X10115420Y-13661984D02*
X10115420Y-13528650D01*
X10115420Y-13547698D02*
X10124944Y-13538174D01*
X10124944Y-13538174D02*
X10143991Y-13528650D01*
X10143991Y-13528650D02*
X10172563Y-13528650D01*
X10172563Y-13528650D02*
X10191610Y-13538174D01*
X10191610Y-13538174D02*
X10201134Y-13557222D01*
X10201134Y-13557222D02*
X10201134Y-13661984D01*
X10201134Y-13557222D02*
X10210658Y-13538174D01*
X10210658Y-13538174D02*
X10229705Y-13528650D01*
X10229705Y-13528650D02*
X10258277Y-13528650D01*
X10258277Y-13528650D02*
X10277325Y-13538174D01*
X10277325Y-13538174D02*
X10286848Y-13557222D01*
X10286848Y-13557222D02*
X10286848Y-13661984D01*
X10382086Y-13661984D02*
X10382086Y-13528650D01*
X10382086Y-13547698D02*
X10391610Y-13538174D01*
X10391610Y-13538174D02*
X10410658Y-13528650D01*
X10410658Y-13528650D02*
X10439229Y-13528650D01*
X10439229Y-13528650D02*
X10458277Y-13538174D01*
X10458277Y-13538174D02*
X10467801Y-13557222D01*
X10467801Y-13557222D02*
X10467801Y-13661984D01*
X10467801Y-13557222D02*
X10477325Y-13538174D01*
X10477325Y-13538174D02*
X10496372Y-13528650D01*
X10496372Y-13528650D02*
X10524944Y-13528650D01*
X10524944Y-13528650D02*
X10543991Y-13538174D01*
X10543991Y-13538174D02*
X10553515Y-13557222D01*
X10553515Y-13557222D02*
X10553515Y-13661984D01*
X10943991Y-13452460D02*
X10772563Y-13709603D01*
X11201134Y-13461984D02*
X11220182Y-13461984D01*
X11220182Y-13461984D02*
X11239229Y-13471508D01*
X11239229Y-13471508D02*
X11248753Y-13481031D01*
X11248753Y-13481031D02*
X11258277Y-13500079D01*
X11258277Y-13500079D02*
X11267801Y-13538174D01*
X11267801Y-13538174D02*
X11267801Y-13585793D01*
X11267801Y-13585793D02*
X11258277Y-13623888D01*
X11258277Y-13623888D02*
X11248753Y-13642936D01*
X11248753Y-13642936D02*
X11239229Y-13652460D01*
X11239229Y-13652460D02*
X11220182Y-13661984D01*
X11220182Y-13661984D02*
X11201134Y-13661984D01*
X11201134Y-13661984D02*
X11182087Y-13652460D01*
X11182087Y-13652460D02*
X11172563Y-13642936D01*
X11172563Y-13642936D02*
X11163039Y-13623888D01*
X11163039Y-13623888D02*
X11153515Y-13585793D01*
X11153515Y-13585793D02*
X11153515Y-13538174D01*
X11153515Y-13538174D02*
X11163039Y-13500079D01*
X11163039Y-13500079D02*
X11172563Y-13481031D01*
X11172563Y-13481031D02*
X11182087Y-13471508D01*
X11182087Y-13471508D02*
X11201134Y-13461984D01*
X11353515Y-13642936D02*
X11363039Y-13652460D01*
X11363039Y-13652460D02*
X11353515Y-13661984D01*
X11353515Y-13661984D02*
X11343991Y-13652460D01*
X11343991Y-13652460D02*
X11353515Y-13642936D01*
X11353515Y-13642936D02*
X11353515Y-13661984D01*
X11553515Y-13661984D02*
X11439229Y-13661984D01*
X11496372Y-13661984D02*
X11496372Y-13461984D01*
X11496372Y-13461984D02*
X11477325Y-13490555D01*
X11477325Y-13490555D02*
X11458277Y-13509603D01*
X11458277Y-13509603D02*
X11439229Y-13519127D01*
X11629706Y-13481031D02*
X11639229Y-13471508D01*
X11639229Y-13471508D02*
X11658277Y-13461984D01*
X11658277Y-13461984D02*
X11705896Y-13461984D01*
X11705896Y-13461984D02*
X11724944Y-13471508D01*
X11724944Y-13471508D02*
X11734467Y-13481031D01*
X11734467Y-13481031D02*
X11743991Y-13500079D01*
X11743991Y-13500079D02*
X11743991Y-13519127D01*
X11743991Y-13519127D02*
X11734467Y-13547698D01*
X11734467Y-13547698D02*
X11620182Y-13661984D01*
X11620182Y-13661984D02*
X11743991Y-13661984D01*
X11915420Y-13461984D02*
X11877325Y-13461984D01*
X11877325Y-13461984D02*
X11858277Y-13471508D01*
X11858277Y-13471508D02*
X11848753Y-13481031D01*
X11848753Y-13481031D02*
X11829706Y-13509603D01*
X11829706Y-13509603D02*
X11820182Y-13547698D01*
X11820182Y-13547698D02*
X11820182Y-13623888D01*
X11820182Y-13623888D02*
X11829706Y-13642936D01*
X11829706Y-13642936D02*
X11839229Y-13652460D01*
X11839229Y-13652460D02*
X11858277Y-13661984D01*
X11858277Y-13661984D02*
X11896372Y-13661984D01*
X11896372Y-13661984D02*
X11915420Y-13652460D01*
X11915420Y-13652460D02*
X11924944Y-13642936D01*
X11924944Y-13642936D02*
X11934467Y-13623888D01*
X11934467Y-13623888D02*
X11934467Y-13576269D01*
X11934467Y-13576269D02*
X11924944Y-13557222D01*
X11924944Y-13557222D02*
X11915420Y-13547698D01*
X11915420Y-13547698D02*
X11896372Y-13538174D01*
X11896372Y-13538174D02*
X11858277Y-13538174D01*
X11858277Y-13538174D02*
X11839229Y-13547698D01*
X11839229Y-13547698D02*
X11829706Y-13557222D01*
X11829706Y-13557222D02*
X11820182Y-13576269D01*
X12058277Y-13461984D02*
X12077325Y-13461984D01*
X12077325Y-13461984D02*
X12096372Y-13471508D01*
X12096372Y-13471508D02*
X12105896Y-13481031D01*
X12105896Y-13481031D02*
X12115420Y-13500079D01*
X12115420Y-13500079D02*
X12124944Y-13538174D01*
X12124944Y-13538174D02*
X12124944Y-13585793D01*
X12124944Y-13585793D02*
X12115420Y-13623888D01*
X12115420Y-13623888D02*
X12105896Y-13642936D01*
X12105896Y-13642936D02*
X12096372Y-13652460D01*
X12096372Y-13652460D02*
X12077325Y-13661984D01*
X12077325Y-13661984D02*
X12058277Y-13661984D01*
X12058277Y-13661984D02*
X12039229Y-13652460D01*
X12039229Y-13652460D02*
X12029706Y-13642936D01*
X12029706Y-13642936D02*
X12020182Y-13623888D01*
X12020182Y-13623888D02*
X12010658Y-13585793D01*
X12010658Y-13585793D02*
X12010658Y-13538174D01*
X12010658Y-13538174D02*
X12020182Y-13500079D01*
X12020182Y-13500079D02*
X12029706Y-13481031D01*
X12029706Y-13481031D02*
X12039229Y-13471508D01*
X12039229Y-13471508D02*
X12058277Y-13461984D01*
X12201134Y-13461984D02*
X12201134Y-13500079D01*
X12277325Y-13461984D02*
X12277325Y-13500079D01*
X12572563Y-13738174D02*
X12563039Y-13728650D01*
X12563039Y-13728650D02*
X12543991Y-13700079D01*
X12543991Y-13700079D02*
X12534468Y-13681031D01*
X12534468Y-13681031D02*
X12524944Y-13652460D01*
X12524944Y-13652460D02*
X12515420Y-13604841D01*
X12515420Y-13604841D02*
X12515420Y-13566746D01*
X12515420Y-13566746D02*
X12524944Y-13519127D01*
X12524944Y-13519127D02*
X12534468Y-13490555D01*
X12534468Y-13490555D02*
X12543991Y-13471508D01*
X12543991Y-13471508D02*
X12563039Y-13442936D01*
X12563039Y-13442936D02*
X12572563Y-13433412D01*
X12639229Y-13481031D02*
X12648753Y-13471508D01*
X12648753Y-13471508D02*
X12667801Y-13461984D01*
X12667801Y-13461984D02*
X12715420Y-13461984D01*
X12715420Y-13461984D02*
X12734468Y-13471508D01*
X12734468Y-13471508D02*
X12743991Y-13481031D01*
X12743991Y-13481031D02*
X12753515Y-13500079D01*
X12753515Y-13500079D02*
X12753515Y-13519127D01*
X12753515Y-13519127D02*
X12743991Y-13547698D01*
X12743991Y-13547698D02*
X12629706Y-13661984D01*
X12629706Y-13661984D02*
X12753515Y-13661984D01*
X12991610Y-13661984D02*
X12991610Y-13461984D01*
X13077325Y-13661984D02*
X13077325Y-13557222D01*
X13077325Y-13557222D02*
X13067801Y-13538174D01*
X13067801Y-13538174D02*
X13048753Y-13528650D01*
X13048753Y-13528650D02*
X13020182Y-13528650D01*
X13020182Y-13528650D02*
X13001134Y-13538174D01*
X13001134Y-13538174D02*
X12991610Y-13547698D01*
X13201134Y-13661984D02*
X13182087Y-13652460D01*
X13182087Y-13652460D02*
X13172563Y-13642936D01*
X13172563Y-13642936D02*
X13163039Y-13623888D01*
X13163039Y-13623888D02*
X13163039Y-13566746D01*
X13163039Y-13566746D02*
X13172563Y-13547698D01*
X13172563Y-13547698D02*
X13182087Y-13538174D01*
X13182087Y-13538174D02*
X13201134Y-13528650D01*
X13201134Y-13528650D02*
X13229706Y-13528650D01*
X13229706Y-13528650D02*
X13248753Y-13538174D01*
X13248753Y-13538174D02*
X13258277Y-13547698D01*
X13258277Y-13547698D02*
X13267801Y-13566746D01*
X13267801Y-13566746D02*
X13267801Y-13623888D01*
X13267801Y-13623888D02*
X13258277Y-13642936D01*
X13258277Y-13642936D02*
X13248753Y-13652460D01*
X13248753Y-13652460D02*
X13229706Y-13661984D01*
X13229706Y-13661984D02*
X13201134Y-13661984D01*
X13382087Y-13661984D02*
X13363039Y-13652460D01*
X13363039Y-13652460D02*
X13353515Y-13633412D01*
X13353515Y-13633412D02*
X13353515Y-13461984D01*
X13534468Y-13652460D02*
X13515420Y-13661984D01*
X13515420Y-13661984D02*
X13477325Y-13661984D01*
X13477325Y-13661984D02*
X13458277Y-13652460D01*
X13458277Y-13652460D02*
X13448753Y-13633412D01*
X13448753Y-13633412D02*
X13448753Y-13557222D01*
X13448753Y-13557222D02*
X13458277Y-13538174D01*
X13458277Y-13538174D02*
X13477325Y-13528650D01*
X13477325Y-13528650D02*
X13515420Y-13528650D01*
X13515420Y-13528650D02*
X13534468Y-13538174D01*
X13534468Y-13538174D02*
X13543991Y-13557222D01*
X13543991Y-13557222D02*
X13543991Y-13576269D01*
X13543991Y-13576269D02*
X13448753Y-13595317D01*
X13620182Y-13652460D02*
X13639230Y-13661984D01*
X13639230Y-13661984D02*
X13677325Y-13661984D01*
X13677325Y-13661984D02*
X13696372Y-13652460D01*
X13696372Y-13652460D02*
X13705896Y-13633412D01*
X13705896Y-13633412D02*
X13705896Y-13623888D01*
X13705896Y-13623888D02*
X13696372Y-13604841D01*
X13696372Y-13604841D02*
X13677325Y-13595317D01*
X13677325Y-13595317D02*
X13648753Y-13595317D01*
X13648753Y-13595317D02*
X13629706Y-13585793D01*
X13629706Y-13585793D02*
X13620182Y-13566746D01*
X13620182Y-13566746D02*
X13620182Y-13557222D01*
X13620182Y-13557222D02*
X13629706Y-13538174D01*
X13629706Y-13538174D02*
X13648753Y-13528650D01*
X13648753Y-13528650D02*
X13677325Y-13528650D01*
X13677325Y-13528650D02*
X13696372Y-13538174D01*
X13772563Y-13738174D02*
X13782087Y-13728650D01*
X13782087Y-13728650D02*
X13801134Y-13700079D01*
X13801134Y-13700079D02*
X13810658Y-13681031D01*
X13810658Y-13681031D02*
X13820182Y-13652460D01*
X13820182Y-13652460D02*
X13829706Y-13604841D01*
X13829706Y-13604841D02*
X13829706Y-13566746D01*
X13829706Y-13566746D02*
X13820182Y-13519127D01*
X13820182Y-13519127D02*
X13810658Y-13490555D01*
X13810658Y-13490555D02*
X13801134Y-13471508D01*
X13801134Y-13471508D02*
X13782087Y-13442936D01*
X13782087Y-13442936D02*
X13772563Y-13433412D01*
X14134468Y-13738174D02*
X14124944Y-13728650D01*
X14124944Y-13728650D02*
X14105896Y-13700079D01*
X14105896Y-13700079D02*
X14096372Y-13681031D01*
X14096372Y-13681031D02*
X14086849Y-13652460D01*
X14086849Y-13652460D02*
X14077325Y-13604841D01*
X14077325Y-13604841D02*
X14077325Y-13566746D01*
X14077325Y-13566746D02*
X14086849Y-13519127D01*
X14086849Y-13519127D02*
X14096372Y-13490555D01*
X14096372Y-13490555D02*
X14105896Y-13471508D01*
X14105896Y-13471508D02*
X14124944Y-13442936D01*
X14124944Y-13442936D02*
X14134468Y-13433412D01*
X14210658Y-13528650D02*
X14210658Y-13661984D01*
X14210658Y-13547698D02*
X14220182Y-13538174D01*
X14220182Y-13538174D02*
X14239230Y-13528650D01*
X14239230Y-13528650D02*
X14267801Y-13528650D01*
X14267801Y-13528650D02*
X14286849Y-13538174D01*
X14286849Y-13538174D02*
X14296372Y-13557222D01*
X14296372Y-13557222D02*
X14296372Y-13661984D01*
X14420182Y-13661984D02*
X14401134Y-13652460D01*
X14401134Y-13652460D02*
X14391611Y-13642936D01*
X14391611Y-13642936D02*
X14382087Y-13623888D01*
X14382087Y-13623888D02*
X14382087Y-13566746D01*
X14382087Y-13566746D02*
X14391611Y-13547698D01*
X14391611Y-13547698D02*
X14401134Y-13538174D01*
X14401134Y-13538174D02*
X14420182Y-13528650D01*
X14420182Y-13528650D02*
X14448753Y-13528650D01*
X14448753Y-13528650D02*
X14467801Y-13538174D01*
X14467801Y-13538174D02*
X14477325Y-13547698D01*
X14477325Y-13547698D02*
X14486849Y-13566746D01*
X14486849Y-13566746D02*
X14486849Y-13623888D01*
X14486849Y-13623888D02*
X14477325Y-13642936D01*
X14477325Y-13642936D02*
X14467801Y-13652460D01*
X14467801Y-13652460D02*
X14448753Y-13661984D01*
X14448753Y-13661984D02*
X14420182Y-13661984D01*
X14543992Y-13528650D02*
X14620182Y-13528650D01*
X14572563Y-13461984D02*
X14572563Y-13633412D01*
X14572563Y-13633412D02*
X14582087Y-13652460D01*
X14582087Y-13652460D02*
X14601134Y-13661984D01*
X14601134Y-13661984D02*
X14620182Y-13661984D01*
X14839230Y-13528650D02*
X14839230Y-13728650D01*
X14839230Y-13538174D02*
X14858277Y-13528650D01*
X14858277Y-13528650D02*
X14896373Y-13528650D01*
X14896373Y-13528650D02*
X14915420Y-13538174D01*
X14915420Y-13538174D02*
X14924944Y-13547698D01*
X14924944Y-13547698D02*
X14934468Y-13566746D01*
X14934468Y-13566746D02*
X14934468Y-13623888D01*
X14934468Y-13623888D02*
X14924944Y-13642936D01*
X14924944Y-13642936D02*
X14915420Y-13652460D01*
X14915420Y-13652460D02*
X14896373Y-13661984D01*
X14896373Y-13661984D02*
X14858277Y-13661984D01*
X14858277Y-13661984D02*
X14839230Y-13652460D01*
X15048753Y-13661984D02*
X15029706Y-13652460D01*
X15029706Y-13652460D02*
X15020182Y-13633412D01*
X15020182Y-13633412D02*
X15020182Y-13461984D01*
X15210658Y-13661984D02*
X15210658Y-13557222D01*
X15210658Y-13557222D02*
X15201134Y-13538174D01*
X15201134Y-13538174D02*
X15182087Y-13528650D01*
X15182087Y-13528650D02*
X15143992Y-13528650D01*
X15143992Y-13528650D02*
X15124944Y-13538174D01*
X15210658Y-13652460D02*
X15191611Y-13661984D01*
X15191611Y-13661984D02*
X15143992Y-13661984D01*
X15143992Y-13661984D02*
X15124944Y-13652460D01*
X15124944Y-13652460D02*
X15115420Y-13633412D01*
X15115420Y-13633412D02*
X15115420Y-13614365D01*
X15115420Y-13614365D02*
X15124944Y-13595317D01*
X15124944Y-13595317D02*
X15143992Y-13585793D01*
X15143992Y-13585793D02*
X15191611Y-13585793D01*
X15191611Y-13585793D02*
X15210658Y-13576269D01*
X15277325Y-13528650D02*
X15353515Y-13528650D01*
X15305896Y-13461984D02*
X15305896Y-13633412D01*
X15305896Y-13633412D02*
X15315420Y-13652460D01*
X15315420Y-13652460D02*
X15334468Y-13661984D01*
X15334468Y-13661984D02*
X15353515Y-13661984D01*
X15496373Y-13652460D02*
X15477325Y-13661984D01*
X15477325Y-13661984D02*
X15439230Y-13661984D01*
X15439230Y-13661984D02*
X15420182Y-13652460D01*
X15420182Y-13652460D02*
X15410658Y-13633412D01*
X15410658Y-13633412D02*
X15410658Y-13557222D01*
X15410658Y-13557222D02*
X15420182Y-13538174D01*
X15420182Y-13538174D02*
X15439230Y-13528650D01*
X15439230Y-13528650D02*
X15477325Y-13528650D01*
X15477325Y-13528650D02*
X15496373Y-13538174D01*
X15496373Y-13538174D02*
X15505896Y-13557222D01*
X15505896Y-13557222D02*
X15505896Y-13576269D01*
X15505896Y-13576269D02*
X15410658Y-13595317D01*
X15677325Y-13661984D02*
X15677325Y-13461984D01*
X15677325Y-13652460D02*
X15658277Y-13661984D01*
X15658277Y-13661984D02*
X15620182Y-13661984D01*
X15620182Y-13661984D02*
X15601134Y-13652460D01*
X15601134Y-13652460D02*
X15591611Y-13642936D01*
X15591611Y-13642936D02*
X15582087Y-13623888D01*
X15582087Y-13623888D02*
X15582087Y-13566746D01*
X15582087Y-13566746D02*
X15591611Y-13547698D01*
X15591611Y-13547698D02*
X15601134Y-13538174D01*
X15601134Y-13538174D02*
X15620182Y-13528650D01*
X15620182Y-13528650D02*
X15658277Y-13528650D01*
X15658277Y-13528650D02*
X15677325Y-13538174D01*
X15753515Y-13738174D02*
X15763039Y-13728650D01*
X15763039Y-13728650D02*
X15782087Y-13700079D01*
X15782087Y-13700079D02*
X15791611Y-13681031D01*
X15791611Y-13681031D02*
X15801134Y-13652460D01*
X15801134Y-13652460D02*
X15810658Y-13604841D01*
X15810658Y-13604841D02*
X15810658Y-13566746D01*
X15810658Y-13566746D02*
X15801134Y-13519127D01*
X15801134Y-13519127D02*
X15791611Y-13490555D01*
X15791611Y-13490555D02*
X15782087Y-13471508D01*
X15782087Y-13471508D02*
X15763039Y-13442936D01*
X15763039Y-13442936D02*
X15753515Y-13433412D01*
M02*
