%TF.GenerationSoftware,KiCad,Pcbnew,9.0.7*%
%TF.CreationDate,2026-03-23T10:39:07+05:30*%
%TF.ProjectId,AnexVM_V01,416e6578-564d-45f5-9630-312e6b696361,rev?*%
%TF.SameCoordinates,Original*%
%TF.FileFunction,Paste,Bot*%
%TF.FilePolarity,Positive*%
%FSLAX46Y46*%
G04 Gerber Fmt 4.6, Leading zero omitted, Abs format (unit mm)*
G04 Created by KiCad (PCBNEW 9.0.7) date 2026-03-23 10:39:07*
%MOMM*%
%LPD*%
G01*
G04 APERTURE LIST*
G04 Aperture macros list*
%AMRoundRect*
0 Rectangle with rounded corners*
0 $1 Rounding radius*
0 $2 $3 $4 $5 $6 $7 $8 $9 X,Y pos of 4 corners*
0 Add a 4 corners polygon primitive as box body*
4,1,4,$2,$3,$4,$5,$6,$7,$8,$9,$2,$3,0*
0 Add four circle primitives for the rounded corners*
1,1,$1+$1,$2,$3*
1,1,$1+$1,$4,$5*
1,1,$1+$1,$6,$7*
1,1,$1+$1,$8,$9*
0 Add four rect primitives between the rounded corners*
20,1,$1+$1,$2,$3,$4,$5,0*
20,1,$1+$1,$4,$5,$6,$7,0*
20,1,$1+$1,$6,$7,$8,$9,0*
20,1,$1+$1,$8,$9,$2,$3,0*%
G04 Aperture macros list end*
%ADD10RoundRect,0.225000X-0.225000X-0.250000X0.225000X-0.250000X0.225000X0.250000X-0.225000X0.250000X0*%
%ADD11RoundRect,0.225000X-0.250000X0.225000X-0.250000X-0.225000X0.250000X-0.225000X0.250000X0.225000X0*%
%ADD12RoundRect,0.250000X0.475000X-0.250000X0.475000X0.250000X-0.475000X0.250000X-0.475000X-0.250000X0*%
%ADD13RoundRect,0.200000X-0.275000X0.200000X-0.275000X-0.200000X0.275000X-0.200000X0.275000X0.200000X0*%
%ADD14RoundRect,0.200000X0.275000X-0.200000X0.275000X0.200000X-0.275000X0.200000X-0.275000X-0.200000X0*%
%ADD15RoundRect,0.225000X0.225000X0.250000X-0.225000X0.250000X-0.225000X-0.250000X0.225000X-0.250000X0*%
%ADD16RoundRect,0.150000X-0.150000X0.512500X-0.150000X-0.512500X0.150000X-0.512500X0.150000X0.512500X0*%
%ADD17RoundRect,0.150000X0.150000X-0.825000X0.150000X0.825000X-0.150000X0.825000X-0.150000X-0.825000X0*%
%ADD18RoundRect,0.225000X0.250000X-0.225000X0.250000X0.225000X-0.250000X0.225000X-0.250000X-0.225000X0*%
%ADD19R,0.300000X1.300000*%
%ADD20R,1.800000X2.200000*%
%ADD21RoundRect,0.250000X-0.525000X-0.250000X0.525000X-0.250000X0.525000X0.250000X-0.525000X0.250000X0*%
%ADD22R,0.700000X1.600000*%
%ADD23R,1.200000X1.800000*%
%ADD24R,1.600000X1.500000*%
%ADD25R,1.200000X2.200000*%
%ADD26RoundRect,0.250000X-0.475000X0.250000X-0.475000X-0.250000X0.475000X-0.250000X0.475000X0.250000X0*%
%ADD27RoundRect,0.200000X0.200000X0.275000X-0.200000X0.275000X-0.200000X-0.275000X0.200000X-0.275000X0*%
%ADD28R,0.300000X0.850000*%
%ADD29RoundRect,0.249999X1.450001X-0.450001X1.450001X0.450001X-1.450001X0.450001X-1.450001X-0.450001X0*%
G04 APERTURE END LIST*
D10*
%TO.C,C76*%
X193965000Y-100410000D03*
X195515000Y-100410000D03*
%TD*%
D11*
%TO.C,C38*%
X138120000Y-87965000D03*
X138120000Y-89515000D03*
%TD*%
D12*
%TO.C,C28*%
X156070000Y-62510000D03*
X156070000Y-60610000D03*
%TD*%
D13*
%TO.C,R27*%
X119950000Y-109475000D03*
X119950000Y-111125000D03*
%TD*%
D14*
%TO.C,R4*%
X160630000Y-114350000D03*
X160630000Y-112700000D03*
%TD*%
D11*
%TO.C,C23*%
X174775000Y-71617500D03*
X174775000Y-73167500D03*
%TD*%
D15*
%TO.C,C73*%
X133965000Y-105560000D03*
X132415000Y-105560000D03*
%TD*%
D16*
%TO.C,Q2*%
X183775000Y-77237500D03*
X185675000Y-77237500D03*
X184725000Y-79512500D03*
%TD*%
D13*
%TO.C,R41*%
X136300000Y-87920000D03*
X136300000Y-89570000D03*
%TD*%
D17*
%TO.C,U8*%
X117767500Y-75595000D03*
X116497500Y-75595000D03*
X115227500Y-75595000D03*
X113957500Y-75595000D03*
X112687500Y-75595000D03*
X111417500Y-75595000D03*
X110147500Y-75595000D03*
X108877500Y-75595000D03*
X108877500Y-70645000D03*
X110147500Y-70645000D03*
X111417500Y-70645000D03*
X112687500Y-70645000D03*
X113957500Y-70645000D03*
X115227500Y-70645000D03*
X116497500Y-70645000D03*
X117767500Y-70645000D03*
%TD*%
D18*
%TO.C,C36*%
X119690000Y-77155000D03*
X119690000Y-75605000D03*
%TD*%
D19*
%TO.C,J8*%
X134770000Y-66830000D03*
X135270000Y-66830000D03*
X135770000Y-66830000D03*
X136270000Y-66830000D03*
X136770000Y-66830000D03*
X137270000Y-66830000D03*
X137770000Y-66830000D03*
X138270000Y-66830000D03*
X138770000Y-66830000D03*
X139270000Y-66830000D03*
X139770000Y-66830000D03*
X140270000Y-66830000D03*
X140770000Y-66830000D03*
X141270000Y-66830000D03*
X141770000Y-66830000D03*
X142270000Y-66830000D03*
X142770000Y-66830000D03*
X143270000Y-66830000D03*
X143770000Y-66830000D03*
X144270000Y-66830000D03*
X144770000Y-66830000D03*
X145270000Y-66830000D03*
X145770000Y-66830000D03*
X146270000Y-66830000D03*
D20*
X148170000Y-63580000D03*
X132870000Y-63580000D03*
%TD*%
D18*
%TO.C,C41*%
X116490000Y-79495000D03*
X116490000Y-77945000D03*
%TD*%
D13*
%TO.C,R1*%
X152010000Y-117835000D03*
X152010000Y-119485000D03*
%TD*%
D18*
%TO.C,C39*%
X119700000Y-72195000D03*
X119700000Y-70645000D03*
%TD*%
D13*
%TO.C,R49*%
X156430000Y-104515000D03*
X156430000Y-106165000D03*
%TD*%
D18*
%TO.C,C42*%
X110900000Y-79405000D03*
X110900000Y-77855000D03*
%TD*%
D13*
%TO.C,R20*%
X138175000Y-100875000D03*
X138175000Y-102525000D03*
%TD*%
D15*
%TO.C,C19*%
X146565000Y-121220000D03*
X145015000Y-121220000D03*
%TD*%
D14*
%TO.C,R69*%
X182075000Y-75250000D03*
X182075000Y-73600000D03*
%TD*%
D21*
%TO.C,S3*%
X174810000Y-81040000D03*
X180060000Y-81040000D03*
X174810000Y-77840000D03*
X180060000Y-77840000D03*
%TD*%
D13*
%TO.C,R18*%
X136450000Y-100875000D03*
X136450000Y-102525000D03*
%TD*%
%TO.C,R53*%
X152870000Y-104530000D03*
X152870000Y-106180000D03*
%TD*%
D18*
%TO.C,C26*%
X160140000Y-62480000D03*
X160140000Y-60930000D03*
%TD*%
D14*
%TO.C,R5*%
X158230000Y-114330000D03*
X158230000Y-112680000D03*
%TD*%
D22*
%TO.C,J17*%
X131250000Y-108850000D03*
X132350000Y-108850000D03*
X133450000Y-108850000D03*
X134550000Y-108850000D03*
X135650000Y-108850000D03*
X136750000Y-108850000D03*
X137850000Y-108850000D03*
X138950000Y-108850000D03*
D23*
X141250000Y-110150000D03*
D24*
X126650000Y-109900000D03*
D25*
X141250000Y-119450000D03*
X125750000Y-119450000D03*
D22*
X140050000Y-108850000D03*
%TD*%
D11*
%TO.C,C46*%
X144405000Y-73285000D03*
X144405000Y-74835000D03*
%TD*%
D10*
%TO.C,C16*%
X115425000Y-115250000D03*
X116975000Y-115250000D03*
%TD*%
D26*
%TO.C,C47*%
X146345000Y-73060000D03*
X146345000Y-74960000D03*
%TD*%
D18*
%TO.C,C40*%
X121460000Y-72205000D03*
X121460000Y-70655000D03*
%TD*%
D27*
%TO.C,R42*%
X193955000Y-97300000D03*
X192305000Y-97300000D03*
%TD*%
D13*
%TO.C,R21*%
X145200000Y-115300000D03*
X145200000Y-116950000D03*
%TD*%
D27*
%TO.C,R70*%
X188655000Y-86040000D03*
X187005000Y-86040000D03*
%TD*%
D18*
%TO.C,C27*%
X158350000Y-62490000D03*
X158350000Y-60940000D03*
%TD*%
D27*
%TO.C,R35*%
X98355000Y-68630000D03*
X96705000Y-68630000D03*
%TD*%
D13*
%TO.C,R68*%
X183765000Y-73605000D03*
X183765000Y-75255000D03*
%TD*%
%TO.C,R47*%
X157300000Y-69470000D03*
X157300000Y-71120000D03*
%TD*%
D10*
%TO.C,C43*%
X112545000Y-78150000D03*
X114095000Y-78150000D03*
%TD*%
D14*
%TO.C,R32*%
X175105000Y-88537500D03*
X175105000Y-86887500D03*
%TD*%
D27*
%TO.C,R26*%
X146675000Y-119550000D03*
X145025000Y-119550000D03*
%TD*%
D28*
%TO.C,U7*%
X138620000Y-94290000D03*
X138120000Y-94290000D03*
X137620000Y-94290000D03*
X137120000Y-94290000D03*
X137120000Y-91140000D03*
X137620000Y-91140000D03*
X138120000Y-91140000D03*
X138620000Y-91140000D03*
%TD*%
D27*
%TO.C,R74*%
X185200000Y-91150000D03*
X183550000Y-91150000D03*
%TD*%
D13*
%TO.C,R19*%
X146875000Y-115300000D03*
X146875000Y-116950000D03*
%TD*%
D18*
%TO.C,C45*%
X191180000Y-73560000D03*
X191180000Y-72010000D03*
%TD*%
D29*
%TO.C,C1*%
X152020000Y-115040000D03*
X152020000Y-110940000D03*
%TD*%
D27*
%TO.C,R38*%
X141385000Y-69550000D03*
X139735000Y-69550000D03*
%TD*%
%TO.C,R33*%
X98355000Y-81090000D03*
X96705000Y-81090000D03*
%TD*%
D13*
%TO.C,R51*%
X154650000Y-104520000D03*
X154650000Y-106170000D03*
%TD*%
D18*
%TO.C,C37*%
X137600000Y-97685000D03*
X137600000Y-96135000D03*
%TD*%
%TO.C,C44*%
X192880000Y-73545000D03*
X192880000Y-71995000D03*
%TD*%
D13*
%TO.C,R17*%
X120150000Y-117905000D03*
X120150000Y-119555000D03*
%TD*%
M02*
