%TF.GenerationSoftware,KiCad,Pcbnew,9.0.7*%
%TF.CreationDate,2026-03-23T10:39:07+05:30*%
%TF.ProjectId,AnexVM_V01,416e6578-564d-45f5-9630-312e6b696361,rev?*%
%TF.SameCoordinates,Original*%
%TF.FileFunction,Other,User*%
%FSLAX46Y46*%
G04 Gerber Fmt 4.6, Leading zero omitted, Abs format (unit mm)*
G04 Created by KiCad (PCBNEW 9.0.7) date 2026-03-23 10:39:07*
%MOMM*%
%LPD*%
G01*
G04 APERTURE LIST*
%ADD10C,0.050000*%
G04 APERTURE END LIST*
%TO.C,C76*%
D10*
X193260000Y-101140000D02*
X196220000Y-101140000D01*
X196220000Y-99680000D01*
X193260000Y-99680000D01*
X193260000Y-101140000D01*
%TO.C,C38*%
X137390000Y-87260000D02*
X138850000Y-87260000D01*
X138850000Y-90220000D01*
X137390000Y-90220000D01*
X137390000Y-87260000D01*
%TO.C,C28*%
X157050000Y-63260000D02*
X155090000Y-63260000D01*
X155090000Y-59860000D01*
X157050000Y-59860000D01*
X157050000Y-63260000D01*
%TO.C,R27*%
X119220000Y-108820000D02*
X120680000Y-108820000D01*
X120680000Y-111780000D01*
X119220000Y-111780000D01*
X119220000Y-108820000D01*
%TO.C,R4*%
X161360000Y-115005000D02*
X159900000Y-115005000D01*
X159900000Y-112045000D01*
X161360000Y-112045000D01*
X161360000Y-115005000D01*
%TO.C,C23*%
X174045000Y-70912500D02*
X175505000Y-70912500D01*
X175505000Y-73872500D01*
X174045000Y-73872500D01*
X174045000Y-70912500D01*
%TO.C,C73*%
X134670000Y-104830000D02*
X131710000Y-104830000D01*
X131710000Y-106290000D01*
X134670000Y-106290000D01*
X134670000Y-104830000D01*
%TO.C,Q2*%
X183025000Y-77325000D02*
X183025000Y-79425000D01*
X183025000Y-79425000D02*
X184175000Y-79425000D01*
X183225000Y-76325000D02*
X183225000Y-77325000D01*
X183225000Y-77325000D02*
X183025000Y-77325000D01*
X184175000Y-79425000D02*
X184175000Y-80425000D01*
X184175000Y-80425000D02*
X185275000Y-80425000D01*
X184335000Y-76325000D02*
X183225000Y-76325000D01*
X184335000Y-77325000D02*
X184335000Y-76325000D01*
X185115000Y-76325000D02*
X185115000Y-77325000D01*
X185115000Y-77325000D02*
X184335000Y-77325000D01*
X185275000Y-79425000D02*
X186425000Y-79425000D01*
X185275000Y-80425000D02*
X185275000Y-79425000D01*
X186225000Y-76325000D02*
X185115000Y-76325000D01*
X186225000Y-77325000D02*
X186225000Y-76325000D01*
X186425000Y-77325000D02*
X186225000Y-77325000D01*
X186425000Y-79425000D02*
X186425000Y-77325000D01*
%TO.C,R41*%
X135570000Y-87265000D02*
X137030000Y-87265000D01*
X137030000Y-90225000D01*
X135570000Y-90225000D01*
X135570000Y-87265000D01*
%TO.C,U8*%
X108122500Y-70920000D02*
X108122500Y-75320000D01*
X108122500Y-75320000D02*
X108322500Y-75320000D01*
X108322500Y-69420000D02*
X108322500Y-70920000D01*
X108322500Y-70920000D02*
X108122500Y-70920000D01*
X108322500Y-75320000D02*
X108322500Y-76820000D01*
X108322500Y-76820000D02*
X118322500Y-76820000D01*
X118322500Y-69420000D02*
X108322500Y-69420000D01*
X118322500Y-70920000D02*
X118322500Y-69420000D01*
X118322500Y-75320000D02*
X118522500Y-75320000D01*
X118322500Y-76820000D02*
X118322500Y-75320000D01*
X118522500Y-70920000D02*
X118322500Y-70920000D01*
X118522500Y-75320000D02*
X118522500Y-70920000D01*
%TO.C,C36*%
X120420000Y-77860000D02*
X118960000Y-77860000D01*
X118960000Y-74900000D01*
X120420000Y-74900000D01*
X120420000Y-77860000D01*
%TO.C,J8*%
X131470000Y-67980000D02*
X149570000Y-67980000D01*
X149570000Y-60080000D01*
X131470000Y-60080000D01*
X131470000Y-67980000D01*
%TO.C,C41*%
X117220000Y-80200000D02*
X115760000Y-80200000D01*
X115760000Y-77240000D01*
X117220000Y-77240000D01*
X117220000Y-80200000D01*
%TO.C,R1*%
X151280000Y-117180000D02*
X152740000Y-117180000D01*
X152740000Y-120140000D01*
X151280000Y-120140000D01*
X151280000Y-117180000D01*
%TO.C,C39*%
X120430000Y-72900000D02*
X118970000Y-72900000D01*
X118970000Y-69940000D01*
X120430000Y-69940000D01*
X120430000Y-72900000D01*
%TO.C,R49*%
X155700000Y-103860000D02*
X157160000Y-103860000D01*
X157160000Y-106820000D01*
X155700000Y-106820000D01*
X155700000Y-103860000D01*
%TO.C,C42*%
X111630000Y-80110000D02*
X110170000Y-80110000D01*
X110170000Y-77150000D01*
X111630000Y-77150000D01*
X111630000Y-80110000D01*
%TO.C,R20*%
X137445000Y-100220000D02*
X138905000Y-100220000D01*
X138905000Y-103180000D01*
X137445000Y-103180000D01*
X137445000Y-100220000D01*
%TO.C,C19*%
X147270000Y-120490000D02*
X144310000Y-120490000D01*
X144310000Y-121950000D01*
X147270000Y-121950000D01*
X147270000Y-120490000D01*
%TO.C,R69*%
X182805000Y-75905000D02*
X181345000Y-75905000D01*
X181345000Y-72945000D01*
X182805000Y-72945000D01*
X182805000Y-75905000D01*
%TO.C,S3*%
X173785000Y-82140000D02*
X181085000Y-82140000D01*
X181085000Y-76740000D01*
X173785000Y-76740000D01*
X173785000Y-82140000D01*
%TO.C,R18*%
X135720000Y-100220000D02*
X137180000Y-100220000D01*
X137180000Y-103180000D01*
X135720000Y-103180000D01*
X135720000Y-100220000D01*
%TO.C,R53*%
X152140000Y-103875000D02*
X153600000Y-103875000D01*
X153600000Y-106835000D01*
X152140000Y-106835000D01*
X152140000Y-103875000D01*
%TO.C,C26*%
X160870000Y-63185000D02*
X159410000Y-63185000D01*
X159410000Y-60225000D01*
X160870000Y-60225000D01*
X160870000Y-63185000D01*
%TO.C,R5*%
X158960000Y-114985000D02*
X157500000Y-114985000D01*
X157500000Y-112025000D01*
X158960000Y-112025000D01*
X158960000Y-114985000D01*
%TO.C,J17*%
X124900000Y-107800000D02*
X124900000Y-129700000D01*
X124900000Y-129700000D02*
X142100000Y-129700000D01*
X142100000Y-107800000D02*
X124900000Y-107800000D01*
X142100000Y-129700000D02*
X142100000Y-107800000D01*
%TO.C,C46*%
X143675000Y-72580000D02*
X145135000Y-72580000D01*
X145135000Y-75540000D01*
X143675000Y-75540000D01*
X143675000Y-72580000D01*
%TO.C,C16*%
X114720000Y-115980000D02*
X117680000Y-115980000D01*
X117680000Y-114520000D01*
X114720000Y-114520000D01*
X114720000Y-115980000D01*
%TO.C,C47*%
X145365000Y-72310000D02*
X147325000Y-72310000D01*
X147325000Y-75710000D01*
X145365000Y-75710000D01*
X145365000Y-72310000D01*
%TO.C,C40*%
X122190000Y-72910000D02*
X120730000Y-72910000D01*
X120730000Y-69950000D01*
X122190000Y-69950000D01*
X122190000Y-72910000D01*
%TO.C,R42*%
X194610000Y-96570000D02*
X191650000Y-96570000D01*
X191650000Y-98030000D01*
X194610000Y-98030000D01*
X194610000Y-96570000D01*
%TO.C,R21*%
X144470000Y-114645000D02*
X145930000Y-114645000D01*
X145930000Y-117605000D01*
X144470000Y-117605000D01*
X144470000Y-114645000D01*
%TO.C,TP12*%
X122180000Y-68680000D02*
G75*
G02*
X120180000Y-68680000I-1000000J0D01*
G01*
X120180000Y-68680000D02*
G75*
G02*
X122180000Y-68680000I1000000J0D01*
G01*
%TO.C,R70*%
X189310000Y-85310000D02*
X186350000Y-85310000D01*
X186350000Y-86770000D01*
X189310000Y-86770000D01*
X189310000Y-85310000D01*
%TO.C,C27*%
X159080000Y-63195000D02*
X157620000Y-63195000D01*
X157620000Y-60235000D01*
X159080000Y-60235000D01*
X159080000Y-63195000D01*
%TO.C,R35*%
X99010000Y-67900000D02*
X96050000Y-67900000D01*
X96050000Y-69360000D01*
X99010000Y-69360000D01*
X99010000Y-67900000D01*
%TO.C,R68*%
X183035000Y-72950000D02*
X184495000Y-72950000D01*
X184495000Y-75910000D01*
X183035000Y-75910000D01*
X183035000Y-72950000D01*
%TO.C,R47*%
X156570000Y-68815000D02*
X158030000Y-68815000D01*
X158030000Y-71775000D01*
X156570000Y-71775000D01*
X156570000Y-68815000D01*
%TO.C,C43*%
X111840000Y-78880000D02*
X114800000Y-78880000D01*
X114800000Y-77420000D01*
X111840000Y-77420000D01*
X111840000Y-78880000D01*
%TO.C,R32*%
X175835000Y-89192500D02*
X174375000Y-89192500D01*
X174375000Y-86232500D01*
X175835000Y-86232500D01*
X175835000Y-89192500D01*
%TO.C,TP7*%
X154120000Y-62490000D02*
G75*
G02*
X152120000Y-62490000I-1000000J0D01*
G01*
X152120000Y-62490000D02*
G75*
G02*
X154120000Y-62490000I1000000J0D01*
G01*
%TO.C,R26*%
X147330000Y-118820000D02*
X144370000Y-118820000D01*
X144370000Y-120280000D01*
X147330000Y-120280000D01*
X147330000Y-118820000D01*
%TO.C,U7*%
X136570000Y-90465000D02*
X136570000Y-94965000D01*
X136570000Y-94965000D02*
X139170000Y-94965000D01*
X139170000Y-90465000D02*
X136570000Y-90465000D01*
X139170000Y-94965000D02*
X139170000Y-90465000D01*
%TO.C,R74*%
X185855000Y-90420000D02*
X182895000Y-90420000D01*
X182895000Y-91880000D01*
X185855000Y-91880000D01*
X185855000Y-90420000D01*
%TO.C,R19*%
X146145000Y-114645000D02*
X147605000Y-114645000D01*
X147605000Y-117605000D01*
X146145000Y-117605000D01*
X146145000Y-114645000D01*
%TO.C,C45*%
X191910000Y-74265000D02*
X190450000Y-74265000D01*
X190450000Y-71305000D01*
X191910000Y-71305000D01*
X191910000Y-74265000D01*
%TO.C,C1*%
X153970000Y-115990000D02*
X150070000Y-115990000D01*
X150070000Y-109990000D01*
X153970000Y-109990000D01*
X153970000Y-115990000D01*
%TO.C,R38*%
X142040000Y-68820000D02*
X139080000Y-68820000D01*
X139080000Y-70280000D01*
X142040000Y-70280000D01*
X142040000Y-68820000D01*
%TO.C,R33*%
X99010000Y-80360000D02*
X96050000Y-80360000D01*
X96050000Y-81820000D01*
X99010000Y-81820000D01*
X99010000Y-80360000D01*
%TO.C,R51*%
X153920000Y-103865000D02*
X155380000Y-103865000D01*
X155380000Y-106825000D01*
X153920000Y-106825000D01*
X153920000Y-103865000D01*
%TO.C,BT1*%
X117810000Y-106980000D02*
X117810000Y-104048400D01*
X125810000Y-104048400D02*
X125810000Y-106980000D01*
X125810000Y-106980000D02*
X117810000Y-106980000D01*
X117810000Y-104048400D02*
G75*
G02*
X125810000Y-104048400I4000000J10568953D01*
G01*
%TO.C,C37*%
X138330000Y-98390000D02*
X136870000Y-98390000D01*
X136870000Y-95430000D01*
X138330000Y-95430000D01*
X138330000Y-98390000D01*
%TO.C,C44*%
X193610000Y-74250000D02*
X192150000Y-74250000D01*
X192150000Y-71290000D01*
X193610000Y-71290000D01*
X193610000Y-74250000D01*
%TO.C,R17*%
X119420000Y-117250000D02*
X120880000Y-117250000D01*
X120880000Y-120210000D01*
X119420000Y-120210000D01*
X119420000Y-117250000D01*
%TD*%
M02*
