%TF.GenerationSoftware,KiCad,Pcbnew,9.0.7*%
%TF.CreationDate,2026-03-23T10:39:07+05:30*%
%TF.ProjectId,AnexVM_V01,416e6578-564d-45f5-9630-312e6b696361,rev?*%
%TF.SameCoordinates,Original*%
%TF.FileFunction,Soldermask,Bot*%
%TF.FilePolarity,Negative*%
%FSLAX46Y46*%
G04 Gerber Fmt 4.6, Leading zero omitted, Abs format (unit mm)*
G04 Created by KiCad (PCBNEW 9.0.7) date 2026-03-23 10:39:07*
%MOMM*%
%LPD*%
G01*
G04 APERTURE LIST*
G04 Aperture macros list*
%AMRoundRect*
0 Rectangle with rounded corners*
0 $1 Rounding radius*
0 $2 $3 $4 $5 $6 $7 $8 $9 X,Y pos of 4 corners*
0 Add a 4 corners polygon primitive as box body*
4,1,4,$2,$3,$4,$5,$6,$7,$8,$9,$2,$3,0*
0 Add four circle primitives for the rounded corners*
1,1,$1+$1,$2,$3*
1,1,$1+$1,$4,$5*
1,1,$1+$1,$6,$7*
1,1,$1+$1,$8,$9*
0 Add four rect primitives between the rounded corners*
20,1,$1+$1,$2,$3,$4,$5,0*
20,1,$1+$1,$4,$5,$6,$7,0*
20,1,$1+$1,$6,$7,$8,$9,0*
20,1,$1+$1,$8,$9,$2,$3,0*%
G04 Aperture macros list end*
%ADD10RoundRect,0.225000X-0.225000X-0.250000X0.225000X-0.250000X0.225000X0.250000X-0.225000X0.250000X0*%
%ADD11R,1.700000X1.700000*%
%ADD12C,1.700000*%
%ADD13R,1.800000X1.800000*%
%ADD14C,1.800000*%
%ADD15C,0.650000*%
%ADD16O,1.000000X2.100000*%
%ADD17O,1.000000X1.800000*%
%ADD18C,0.800000*%
%ADD19C,6.000000*%
%ADD20R,4.600000X2.000000*%
%ADD21O,4.200000X2.000000*%
%ADD22O,2.000000X4.200000*%
%ADD23C,1.440000*%
%ADD24RoundRect,0.250000X0.750000X-0.750000X0.750000X0.750000X-0.750000X0.750000X-0.750000X-0.750000X0*%
%ADD25C,2.000000*%
%ADD26R,1.500000X1.500000*%
%ADD27C,1.500000*%
%ADD28C,4.800000*%
%ADD29C,3.200000*%
%ADD30C,3.000000*%
%ADD31RoundRect,0.225000X-0.250000X0.225000X-0.250000X-0.225000X0.250000X-0.225000X0.250000X0.225000X0*%
%ADD32RoundRect,0.250000X0.475000X-0.250000X0.475000X0.250000X-0.475000X0.250000X-0.475000X-0.250000X0*%
%ADD33RoundRect,0.200000X-0.275000X0.200000X-0.275000X-0.200000X0.275000X-0.200000X0.275000X0.200000X0*%
%ADD34RoundRect,0.200000X0.275000X-0.200000X0.275000X0.200000X-0.275000X0.200000X-0.275000X-0.200000X0*%
%ADD35RoundRect,0.225000X0.225000X0.250000X-0.225000X0.250000X-0.225000X-0.250000X0.225000X-0.250000X0*%
%ADD36RoundRect,0.150000X-0.150000X0.512500X-0.150000X-0.512500X0.150000X-0.512500X0.150000X0.512500X0*%
%ADD37RoundRect,0.150000X0.150000X-0.825000X0.150000X0.825000X-0.150000X0.825000X-0.150000X-0.825000X0*%
%ADD38RoundRect,0.225000X0.250000X-0.225000X0.250000X0.225000X-0.250000X0.225000X-0.250000X-0.225000X0*%
%ADD39R,0.300000X1.300000*%
%ADD40R,1.800000X2.200000*%
%ADD41RoundRect,0.250000X-0.525000X-0.250000X0.525000X-0.250000X0.525000X0.250000X-0.525000X0.250000X0*%
%ADD42C,1.000000*%
%ADD43RoundRect,0.102000X0.350000X0.800000X-0.350000X0.800000X-0.350000X-0.800000X0.350000X-0.800000X0*%
%ADD44RoundRect,0.102000X0.600000X0.900000X-0.600000X0.900000X-0.600000X-0.900000X0.600000X-0.900000X0*%
%ADD45RoundRect,0.102000X0.800000X0.750000X-0.800000X0.750000X-0.800000X-0.750000X0.800000X-0.750000X0*%
%ADD46RoundRect,0.102000X0.600000X1.100000X-0.600000X1.100000X-0.600000X-1.100000X0.600000X-1.100000X0*%
%ADD47RoundRect,0.250000X-0.475000X0.250000X-0.475000X-0.250000X0.475000X-0.250000X0.475000X0.250000X0*%
%ADD48RoundRect,0.200000X0.200000X0.275000X-0.200000X0.275000X-0.200000X-0.275000X0.200000X-0.275000X0*%
%ADD49R,0.300000X0.850000*%
%ADD50RoundRect,0.249999X1.450001X-0.450001X1.450001X0.450001X-1.450001X0.450001X-1.450001X-0.450001X0*%
%ADD51RoundRect,0.102000X-0.975000X0.975000X-0.975000X-0.975000X0.975000X-0.975000X0.975000X0.975000X0*%
%ADD52C,2.154000*%
G04 APERTURE END LIST*
D10*
%TO.C,C76*%
X193965000Y-100410000D03*
X195515000Y-100410000D03*
%TD*%
D11*
%TO.C,J10*%
X178400000Y-57870000D03*
D12*
X180940000Y-57870000D03*
X183480000Y-57870000D03*
X186020000Y-57870000D03*
%TD*%
D13*
%TO.C,D6*%
X91610000Y-68610000D03*
D14*
X94150000Y-68610000D03*
%TD*%
D13*
%TO.C,D3*%
X91530000Y-87300000D03*
D14*
X94070000Y-87300000D03*
%TD*%
D15*
%TO.C,J2*%
X156280000Y-118565000D03*
X162060000Y-118565000D03*
D16*
X154850000Y-118065000D03*
D17*
X154850000Y-122245000D03*
D16*
X163490000Y-118065000D03*
D17*
X163490000Y-122245000D03*
%TD*%
D18*
%TO.C,H3*%
X192580000Y-60180000D03*
X193239010Y-58589010D03*
X193239010Y-61770990D03*
X194830000Y-57930000D03*
D19*
X194830000Y-60180000D03*
D18*
X194830000Y-62430000D03*
X196420990Y-58589010D03*
X196420990Y-61770990D03*
X197080000Y-60180000D03*
%TD*%
%TO.C,H1*%
X91920000Y-119820000D03*
X92579010Y-118229010D03*
X92579010Y-121410990D03*
X94170000Y-117570000D03*
D19*
X94170000Y-119820000D03*
D18*
X94170000Y-122070000D03*
X95760990Y-118229010D03*
X95760990Y-121410990D03*
X96420000Y-119820000D03*
%TD*%
D11*
%TO.C,J13*%
X152560000Y-57850000D03*
D12*
X155100000Y-57850000D03*
X157640000Y-57850000D03*
X160180000Y-57850000D03*
%TD*%
D11*
%TO.C,J7*%
X181070000Y-93950000D03*
D12*
X183610000Y-93950000D03*
X186150000Y-93950000D03*
X188690000Y-93950000D03*
%TD*%
D18*
%TO.C,H2*%
X192580000Y-119820000D03*
X193239010Y-118229010D03*
X193239010Y-121410990D03*
X194830000Y-117570000D03*
D19*
X194830000Y-119820000D03*
D18*
X194830000Y-122070000D03*
X196420990Y-118229010D03*
X196420990Y-121410990D03*
X197080000Y-119820000D03*
%TD*%
D11*
%TO.C,J11*%
X197100000Y-71140000D03*
D12*
X197100000Y-73680000D03*
X197100000Y-76220000D03*
X197100000Y-78760000D03*
X197100000Y-81300000D03*
X197100000Y-83840000D03*
X197100000Y-86380000D03*
X197100000Y-88920000D03*
X197100000Y-91460000D03*
X197100000Y-94000000D03*
X197100000Y-96540000D03*
X197100000Y-99080000D03*
%TD*%
D20*
%TO.C,J1*%
X103890000Y-110550000D03*
D21*
X103890000Y-116850000D03*
D22*
X108690000Y-113450000D03*
%TD*%
D11*
%TO.C,J4*%
X184300000Y-63330000D03*
D12*
X181760000Y-63330000D03*
X179220000Y-63330000D03*
X176680000Y-63330000D03*
X174140000Y-63330000D03*
X171600000Y-63330000D03*
X169060000Y-63330000D03*
X166520000Y-63330000D03*
%TD*%
D11*
%TO.C,J14*%
X159890000Y-79470000D03*
D12*
X159890000Y-76930000D03*
%TD*%
D23*
%TO.C,RV1*%
X196130000Y-66425000D03*
X193590000Y-66425000D03*
X191050000Y-66425000D03*
%TD*%
D11*
%TO.C,BZ1*%
X185910000Y-88940000D03*
D12*
X188450000Y-88940000D03*
%TD*%
D11*
%TO.C,J12*%
X165450000Y-57860000D03*
D12*
X167990000Y-57860000D03*
X170530000Y-57860000D03*
X173070000Y-57860000D03*
%TD*%
D11*
%TO.C,J15*%
X140230000Y-72140000D03*
D12*
X140230000Y-74680000D03*
X140230000Y-77220000D03*
X140230000Y-79760000D03*
X140230000Y-82300000D03*
%TD*%
D18*
%TO.C,H4*%
X91920000Y-60180000D03*
X92579010Y-58589010D03*
X92579010Y-61770990D03*
X94170000Y-57930000D03*
D19*
X94170000Y-60180000D03*
D18*
X94170000Y-62430000D03*
X95760990Y-58589010D03*
X95760990Y-61770990D03*
X96420000Y-60180000D03*
%TD*%
D11*
%TO.C,J6*%
X164040000Y-70880000D03*
D12*
X166580000Y-70880000D03*
X164040000Y-73420000D03*
X166580000Y-73420000D03*
X164040000Y-75960000D03*
X166580000Y-75960000D03*
X164040000Y-78500000D03*
X166580000Y-78500000D03*
X164040000Y-81040000D03*
X166580000Y-81040000D03*
%TD*%
D11*
%TO.C,J18*%
X169520000Y-85915000D03*
D12*
X169520000Y-88455000D03*
%TD*%
D13*
%TO.C,D5*%
X91560000Y-74840000D03*
D14*
X94100000Y-74840000D03*
%TD*%
D11*
%TO.C,J16*%
X159870000Y-73160000D03*
D12*
X159870000Y-70620000D03*
%TD*%
D24*
%TO.C,J3*%
X93270000Y-110510000D03*
D25*
X93270000Y-107970000D03*
%TD*%
D26*
%TO.C,J9*%
X108770000Y-67070000D03*
D27*
X111540000Y-67070000D03*
X114310000Y-67070000D03*
X117080000Y-67070000D03*
X119850000Y-67070000D03*
X110155000Y-64230000D03*
X112925000Y-64230000D03*
X115695000Y-64230000D03*
X118465000Y-64230000D03*
D28*
X101810000Y-65650000D03*
X126810000Y-65650000D03*
%TD*%
D29*
%TO.C,U11*%
X172400000Y-114220000D03*
X183830000Y-114220000D03*
D13*
X172400000Y-105330000D03*
D14*
X173670000Y-107870000D03*
X174940000Y-105330000D03*
X176210000Y-107870000D03*
X177480000Y-105330000D03*
X178750000Y-107870000D03*
X180020000Y-105330000D03*
X182560000Y-105330000D03*
X183830000Y-107870000D03*
D25*
X171480000Y-118280000D03*
X174020000Y-118280000D03*
X182200000Y-118280000D03*
X184740000Y-118280000D03*
D30*
X170235000Y-111170000D03*
X185985000Y-111170000D03*
%TD*%
D11*
%TO.C,J5*%
X192790000Y-94000000D03*
D12*
X192790000Y-91460000D03*
X192790000Y-88920000D03*
X192790000Y-86380000D03*
X192790000Y-83840000D03*
X192790000Y-81300000D03*
X192790000Y-78760000D03*
X192790000Y-76220000D03*
%TD*%
D13*
%TO.C,D4*%
X91510000Y-81070000D03*
D14*
X94050000Y-81070000D03*
%TD*%
D13*
%TO.C,D1*%
X91510000Y-93530000D03*
D14*
X94050000Y-93530000D03*
%TD*%
D31*
%TO.C,C38*%
X138120000Y-87965000D03*
X138120000Y-89515000D03*
%TD*%
D32*
%TO.C,C28*%
X156070000Y-62510000D03*
X156070000Y-60610000D03*
%TD*%
D33*
%TO.C,R27*%
X119950000Y-109475000D03*
X119950000Y-111125000D03*
%TD*%
D34*
%TO.C,R4*%
X160630000Y-114350000D03*
X160630000Y-112700000D03*
%TD*%
D31*
%TO.C,C23*%
X174775000Y-71617500D03*
X174775000Y-73167500D03*
%TD*%
D35*
%TO.C,C73*%
X133965000Y-105560000D03*
X132415000Y-105560000D03*
%TD*%
D36*
%TO.C,Q2*%
X183775000Y-77237500D03*
X185675000Y-77237500D03*
X184725000Y-79512500D03*
%TD*%
D33*
%TO.C,R41*%
X136300000Y-87920000D03*
X136300000Y-89570000D03*
%TD*%
D37*
%TO.C,U8*%
X117767500Y-75595000D03*
X116497500Y-75595000D03*
X115227500Y-75595000D03*
X113957500Y-75595000D03*
X112687500Y-75595000D03*
X111417500Y-75595000D03*
X110147500Y-75595000D03*
X108877500Y-75595000D03*
X108877500Y-70645000D03*
X110147500Y-70645000D03*
X111417500Y-70645000D03*
X112687500Y-70645000D03*
X113957500Y-70645000D03*
X115227500Y-70645000D03*
X116497500Y-70645000D03*
X117767500Y-70645000D03*
%TD*%
D38*
%TO.C,C36*%
X119690000Y-77155000D03*
X119690000Y-75605000D03*
%TD*%
D39*
%TO.C,J8*%
X134770000Y-66830000D03*
X135270000Y-66830000D03*
X135770000Y-66830000D03*
X136270000Y-66830000D03*
X136770000Y-66830000D03*
X137270000Y-66830000D03*
X137770000Y-66830000D03*
X138270000Y-66830000D03*
X138770000Y-66830000D03*
X139270000Y-66830000D03*
X139770000Y-66830000D03*
X140270000Y-66830000D03*
X140770000Y-66830000D03*
X141270000Y-66830000D03*
X141770000Y-66830000D03*
X142270000Y-66830000D03*
X142770000Y-66830000D03*
X143270000Y-66830000D03*
X143770000Y-66830000D03*
X144270000Y-66830000D03*
X144770000Y-66830000D03*
X145270000Y-66830000D03*
X145770000Y-66830000D03*
X146270000Y-66830000D03*
D40*
X148170000Y-63580000D03*
X132870000Y-63580000D03*
%TD*%
D38*
%TO.C,C41*%
X116490000Y-79495000D03*
X116490000Y-77945000D03*
%TD*%
D33*
%TO.C,R1*%
X152010000Y-117835000D03*
X152010000Y-119485000D03*
%TD*%
D38*
%TO.C,C39*%
X119700000Y-72195000D03*
X119700000Y-70645000D03*
%TD*%
D33*
%TO.C,R49*%
X156430000Y-104515000D03*
X156430000Y-106165000D03*
%TD*%
D38*
%TO.C,C42*%
X110900000Y-79405000D03*
X110900000Y-77855000D03*
%TD*%
D33*
%TO.C,R20*%
X138175000Y-100875000D03*
X138175000Y-102525000D03*
%TD*%
D35*
%TO.C,C19*%
X146565000Y-121220000D03*
X145015000Y-121220000D03*
%TD*%
D34*
%TO.C,R69*%
X182075000Y-75250000D03*
X182075000Y-73600000D03*
%TD*%
D41*
%TO.C,S3*%
X174810000Y-81040000D03*
X180060000Y-81040000D03*
X174810000Y-77840000D03*
X180060000Y-77840000D03*
%TD*%
D33*
%TO.C,R18*%
X136450000Y-100875000D03*
X136450000Y-102525000D03*
%TD*%
%TO.C,R53*%
X152870000Y-104530000D03*
X152870000Y-106180000D03*
%TD*%
D38*
%TO.C,C26*%
X160140000Y-62480000D03*
X160140000Y-60930000D03*
%TD*%
D34*
%TO.C,R5*%
X158230000Y-114330000D03*
X158230000Y-112680000D03*
%TD*%
D42*
%TO.C,J17*%
X138450000Y-119850000D03*
X130450000Y-119850000D03*
D43*
X131250000Y-108850000D03*
X132350000Y-108850000D03*
X133450000Y-108850000D03*
X134550000Y-108850000D03*
X135650000Y-108850000D03*
X136750000Y-108850000D03*
X137850000Y-108850000D03*
X138950000Y-108850000D03*
D44*
X141250000Y-110150000D03*
D45*
X126650000Y-109900000D03*
D46*
X141250000Y-119450000D03*
X125750000Y-119450000D03*
D43*
X140050000Y-108850000D03*
%TD*%
D31*
%TO.C,C46*%
X144405000Y-73285000D03*
X144405000Y-74835000D03*
%TD*%
D10*
%TO.C,C16*%
X115425000Y-115250000D03*
X116975000Y-115250000D03*
%TD*%
D47*
%TO.C,C47*%
X146345000Y-73060000D03*
X146345000Y-74960000D03*
%TD*%
D38*
%TO.C,C40*%
X121460000Y-72205000D03*
X121460000Y-70655000D03*
%TD*%
D48*
%TO.C,R42*%
X193955000Y-97300000D03*
X192305000Y-97300000D03*
%TD*%
D33*
%TO.C,R21*%
X145200000Y-115300000D03*
X145200000Y-116950000D03*
%TD*%
D42*
%TO.C,TP12*%
X121180000Y-68680000D03*
%TD*%
D48*
%TO.C,R70*%
X188655000Y-86040000D03*
X187005000Y-86040000D03*
%TD*%
D38*
%TO.C,C27*%
X158350000Y-62490000D03*
X158350000Y-60940000D03*
%TD*%
D48*
%TO.C,R35*%
X98355000Y-68630000D03*
X96705000Y-68630000D03*
%TD*%
D33*
%TO.C,R68*%
X183765000Y-73605000D03*
X183765000Y-75255000D03*
%TD*%
%TO.C,R47*%
X157300000Y-69470000D03*
X157300000Y-71120000D03*
%TD*%
D10*
%TO.C,C43*%
X112545000Y-78150000D03*
X114095000Y-78150000D03*
%TD*%
D34*
%TO.C,R32*%
X175105000Y-88537500D03*
X175105000Y-86887500D03*
%TD*%
D42*
%TO.C,TP7*%
X153120000Y-62490000D03*
%TD*%
D48*
%TO.C,R26*%
X146675000Y-119550000D03*
X145025000Y-119550000D03*
%TD*%
D49*
%TO.C,U7*%
X138620000Y-94290000D03*
X138120000Y-94290000D03*
X137620000Y-94290000D03*
X137120000Y-94290000D03*
X137120000Y-91140000D03*
X137620000Y-91140000D03*
X138120000Y-91140000D03*
X138620000Y-91140000D03*
%TD*%
D48*
%TO.C,R74*%
X185200000Y-91150000D03*
X183550000Y-91150000D03*
%TD*%
D33*
%TO.C,R19*%
X146875000Y-115300000D03*
X146875000Y-116950000D03*
%TD*%
D38*
%TO.C,C45*%
X191180000Y-73560000D03*
X191180000Y-72010000D03*
%TD*%
D50*
%TO.C,C1*%
X152020000Y-115040000D03*
X152020000Y-110940000D03*
%TD*%
D48*
%TO.C,R38*%
X141385000Y-69550000D03*
X139735000Y-69550000D03*
%TD*%
%TO.C,R33*%
X98355000Y-81090000D03*
X96705000Y-81090000D03*
%TD*%
D33*
%TO.C,R51*%
X154650000Y-104520000D03*
X154650000Y-106170000D03*
%TD*%
D51*
%TO.C,BT1*%
X121810000Y-105480000D03*
D52*
X121810000Y-85480000D03*
%TD*%
D38*
%TO.C,C37*%
X137600000Y-97685000D03*
X137600000Y-96135000D03*
%TD*%
%TO.C,C44*%
X192880000Y-73545000D03*
X192880000Y-71995000D03*
%TD*%
D33*
%TO.C,R17*%
X120150000Y-117905000D03*
X120150000Y-119555000D03*
%TD*%
M02*
