%TF.GenerationSoftware,KiCad,Pcbnew,9.0.7*%
%TF.CreationDate,2026-03-23T10:39:07+05:30*%
%TF.ProjectId,AnexVM_V01,416e6578-564d-45f5-9630-312e6b696361,rev?*%
%TF.SameCoordinates,Original*%
%TF.FileFunction,Other,User*%
%FSLAX46Y46*%
G04 Gerber Fmt 4.6, Leading zero omitted, Abs format (unit mm)*
G04 Created by KiCad (PCBNEW 9.0.7) date 2026-03-23 10:39:07*
%MOMM*%
%LPD*%
G01*
G04 APERTURE LIST*
%ADD10C,0.050000*%
%ADD11C,0.152400*%
%ADD12C,0.100000*%
G04 APERTURE END LIST*
%TO.C,S4*%
D10*
X192870000Y-110160000D02*
X198270000Y-110160000D01*
X198270000Y-102860000D01*
X192870000Y-102860000D01*
X192870000Y-110160000D01*
%TO.C,R75*%
X197880000Y-112150000D02*
X194920000Y-112150000D01*
X194920000Y-110690000D01*
X197880000Y-110690000D01*
X197880000Y-112150000D01*
%TO.C,U9*%
X149090000Y-69577500D02*
X150590000Y-69577500D01*
X149090000Y-79577500D02*
X149090000Y-69577500D01*
X150590000Y-69377500D02*
X154990000Y-69377500D01*
X150590000Y-69577500D02*
X150590000Y-69377500D01*
X150590000Y-79577500D02*
X149090000Y-79577500D01*
X150590000Y-79777500D02*
X150590000Y-79577500D01*
X154990000Y-69377500D02*
X154990000Y-69577500D01*
X154990000Y-69577500D02*
X156490000Y-69577500D01*
X154990000Y-79577500D02*
X154990000Y-79777500D01*
X154990000Y-79777500D02*
X150590000Y-79777500D01*
X156490000Y-69577500D02*
X156490000Y-79577500D01*
X156490000Y-79577500D02*
X154990000Y-79577500D01*
%TO.C,C50*%
X145685000Y-75870000D02*
X148645000Y-75870000D01*
X148645000Y-77330000D01*
X145685000Y-77330000D01*
X145685000Y-75870000D01*
%TO.C,R72*%
X121750000Y-90520000D02*
X118790000Y-90520000D01*
X118790000Y-89060000D01*
X121750000Y-89060000D01*
X121750000Y-90520000D01*
%TO.C,C25*%
X175835000Y-86237500D02*
X174375000Y-86237500D01*
X174375000Y-89197500D01*
X175835000Y-89197500D01*
X175835000Y-86237500D01*
%TO.C,C33*%
X141140000Y-62170000D02*
X139680000Y-62170000D01*
X139680000Y-65130000D01*
X141140000Y-65130000D01*
X141140000Y-62170000D01*
%TO.C,Y1*%
X180385000Y-89742500D02*
X176185000Y-89742500D01*
X176185000Y-86242500D01*
X180385000Y-86242500D01*
X180385000Y-89742500D01*
%TO.C,C49*%
X151070000Y-66730000D02*
X147670000Y-66730000D01*
X147670000Y-64770000D01*
X151070000Y-64770000D01*
X151070000Y-66730000D01*
%TO.C,J10*%
X176630000Y-59640000D02*
X187790000Y-59640000D01*
X187790000Y-56100000D01*
X176630000Y-56100000D01*
X176630000Y-59640000D01*
%TO.C,C22*%
X176845000Y-90062500D02*
X179805000Y-90062500D01*
X179805000Y-91522500D01*
X176845000Y-91522500D01*
X176845000Y-90062500D01*
%TO.C,D6*%
X90460000Y-66400000D02*
X95300000Y-66400000D01*
X95300000Y-70820000D01*
X90460000Y-70820000D01*
X90460000Y-66400000D01*
%TO.C,R63*%
X172090000Y-99100000D02*
X170630000Y-99100000D01*
X170630000Y-102060000D01*
X172090000Y-102060000D01*
X172090000Y-99100000D01*
%TO.C,FID4*%
X92420000Y-64160000D02*
G75*
G02*
X90920000Y-64160000I-750000J0D01*
G01*
X90920000Y-64160000D02*
G75*
G02*
X92420000Y-64160000I750000J0D01*
G01*
%TO.C,C56*%
X138185000Y-98265000D02*
X139645000Y-98265000D01*
X139645000Y-95305000D01*
X138185000Y-95305000D01*
X138185000Y-98265000D01*
%TO.C,D2*%
X157170000Y-107330000D02*
X164170000Y-107330000D01*
X157170000Y-110830000D02*
X157170000Y-107330000D01*
X164170000Y-107330000D02*
X164170000Y-110830000D01*
X164170000Y-110830000D02*
X157170000Y-110830000D01*
%TO.C,R11*%
X103025000Y-75470000D02*
X105985000Y-75470000D01*
X105985000Y-76930000D01*
X103025000Y-76930000D01*
X103025000Y-75470000D01*
%TO.C,C18*%
X114480000Y-108060000D02*
X117440000Y-108060000D01*
X117440000Y-109520000D01*
X114480000Y-109520000D01*
X114480000Y-108060000D01*
%TO.C,R2*%
X98520000Y-94260000D02*
X95560000Y-94260000D01*
X95560000Y-92800000D01*
X98520000Y-92800000D01*
X98520000Y-94260000D01*
%TO.C,TP13*%
X161840000Y-84390000D02*
G75*
G02*
X159840000Y-84390000I-1000000J0D01*
G01*
X159840000Y-84390000D02*
G75*
G02*
X161840000Y-84390000I1000000J0D01*
G01*
%TO.C,R15*%
X100570000Y-78450000D02*
X97610000Y-78450000D01*
X97610000Y-76990000D01*
X100570000Y-76990000D01*
X100570000Y-78450000D01*
%TO.C,C2*%
X95500000Y-99210000D02*
X97460000Y-99210000D01*
X97460000Y-95810000D01*
X95500000Y-95810000D01*
X95500000Y-99210000D01*
%TO.C,R14*%
X103930000Y-93410000D02*
X105390000Y-93410000D01*
X105390000Y-90450000D01*
X103930000Y-90450000D01*
X103930000Y-93410000D01*
%TO.C,R56*%
X160185000Y-90922500D02*
X163145000Y-90922500D01*
X163145000Y-92382500D01*
X160185000Y-92382500D01*
X160185000Y-90922500D01*
%TO.C,C20*%
X144370000Y-122530000D02*
X145830000Y-122530000D01*
X145830000Y-119570000D01*
X144370000Y-119570000D01*
X144370000Y-122530000D01*
%TO.C,L2*%
X101440000Y-101330000D02*
X102290000Y-101330000D01*
X101440000Y-105330000D02*
X101440000Y-101330000D01*
X102290000Y-99780000D02*
X109490000Y-99780000D01*
X102290000Y-101330000D02*
X102290000Y-99780000D01*
X102290000Y-105330000D02*
X101440000Y-105330000D01*
X102290000Y-106880000D02*
X102290000Y-105330000D01*
X109490000Y-99780000D02*
X109490000Y-101330000D01*
X109490000Y-101330000D02*
X110340000Y-101330000D01*
X109490000Y-105330000D02*
X109490000Y-106880000D01*
X109490000Y-106880000D02*
X102290000Y-106880000D01*
X110340000Y-101330000D02*
X110340000Y-105330000D01*
X110340000Y-105330000D02*
X109490000Y-105330000D01*
%TO.C,C7*%
X105805000Y-84590000D02*
X102845000Y-84590000D01*
X102845000Y-83130000D01*
X105805000Y-83130000D01*
X105805000Y-84590000D01*
%TO.C,R16*%
X100560000Y-80950000D02*
X97600000Y-80950000D01*
X97600000Y-79490000D01*
X100560000Y-79490000D01*
X100560000Y-80950000D01*
%TO.C,D3*%
X90380000Y-85090000D02*
X95220000Y-85090000D01*
X95220000Y-89510000D01*
X90380000Y-89510000D01*
X90380000Y-85090000D01*
%TO.C,J2*%
X153850000Y-116410000D02*
X164490000Y-116410000D01*
X164490000Y-125350000D01*
X153850000Y-125350000D01*
X153850000Y-116410000D01*
%TO.C,C35*%
X141460000Y-65140000D02*
X142920000Y-65140000D01*
X142920000Y-62180000D01*
X141460000Y-62180000D01*
X141460000Y-65140000D01*
%TO.C,R22*%
X147630000Y-110380000D02*
X144670000Y-110380000D01*
X144670000Y-108920000D01*
X147630000Y-108920000D01*
X147630000Y-110380000D01*
%TO.C,U12*%
X119745000Y-92595000D02*
X119985000Y-92595000D01*
X119745000Y-96995000D02*
X119745000Y-92595000D01*
X119985000Y-91095000D02*
X124905000Y-91095000D01*
X119985000Y-92595000D02*
X119985000Y-91095000D01*
X119985000Y-96995000D02*
X119745000Y-96995000D01*
X119985000Y-98495000D02*
X119985000Y-96995000D01*
X124905000Y-91095000D02*
X124905000Y-92595000D01*
X124905000Y-92595000D02*
X125145000Y-92595000D01*
X124905000Y-96995000D02*
X124905000Y-98495000D01*
X124905000Y-98495000D02*
X119985000Y-98495000D01*
X125145000Y-92595000D02*
X125145000Y-96995000D01*
X125145000Y-96995000D02*
X124905000Y-96995000D01*
%TO.C,R67*%
X187310000Y-102055000D02*
X188770000Y-102055000D01*
X188770000Y-99095000D01*
X187310000Y-99095000D01*
X187310000Y-102055000D01*
%TO.C,R12*%
X101900000Y-93405000D02*
X103360000Y-93405000D01*
X103360000Y-90445000D01*
X101900000Y-90445000D01*
X101900000Y-93405000D01*
%TO.C,R9*%
X102350000Y-81470000D02*
X100890000Y-81470000D01*
X100890000Y-84430000D01*
X102350000Y-84430000D01*
X102350000Y-81470000D01*
%TO.C,H3*%
X198080000Y-60180000D02*
G75*
G02*
X191580000Y-60180000I-3250000J0D01*
G01*
X191580000Y-60180000D02*
G75*
G02*
X198080000Y-60180000I3250000J0D01*
G01*
%TO.C,R23*%
X147430000Y-117605000D02*
X144470000Y-117605000D01*
X144470000Y-116145000D01*
X147430000Y-116145000D01*
X147430000Y-117605000D01*
%TO.C,R8*%
X103300000Y-95440000D02*
X100340000Y-95440000D01*
X100340000Y-93980000D01*
X103300000Y-93980000D01*
X103300000Y-95440000D01*
%TO.C,C8*%
X104715000Y-95710000D02*
X107675000Y-95710000D01*
X107675000Y-97170000D01*
X104715000Y-97170000D01*
X104715000Y-95710000D01*
%TO.C,H1*%
X97420000Y-119820000D02*
G75*
G02*
X90920000Y-119820000I-3250000J0D01*
G01*
X90920000Y-119820000D02*
G75*
G02*
X97420000Y-119820000I3250000J0D01*
G01*
%TO.C,C12*%
X115470000Y-102790000D02*
X113510000Y-102790000D01*
X113510000Y-106190000D01*
X115470000Y-106190000D01*
X115470000Y-102790000D01*
%TO.C,L1*%
X156790000Y-111627500D02*
X155090000Y-111627500D01*
X155090000Y-115127500D01*
X156790000Y-115127500D01*
X156790000Y-111627500D01*
%TO.C,J13*%
X150790000Y-59620000D02*
X161950000Y-59620000D01*
X161950000Y-56080000D01*
X150790000Y-56080000D01*
X150790000Y-59620000D01*
%TO.C,R28*%
X144675000Y-107190000D02*
X147635000Y-107190000D01*
X147635000Y-108650000D01*
X144675000Y-108650000D01*
X144675000Y-107190000D01*
%TO.C,C14*%
X117380000Y-103040000D02*
X115920000Y-103040000D01*
X115920000Y-106000000D01*
X117380000Y-106000000D01*
X117380000Y-103040000D01*
%TO.C,J7*%
X179300000Y-95720000D02*
X190460000Y-95720000D01*
X190460000Y-92180000D01*
X179300000Y-92180000D01*
X179300000Y-95720000D01*
%TO.C,U10*%
X148740000Y-90260000D02*
X150140000Y-90260000D01*
X148740000Y-96560000D02*
X148740000Y-90260000D01*
X150140000Y-89660000D02*
X150740000Y-89660000D01*
X150140000Y-90260000D02*
X150140000Y-89660000D01*
X150140000Y-96560000D02*
X148740000Y-96560000D01*
X150140000Y-97160000D02*
X150140000Y-96560000D01*
X150740000Y-88260000D02*
X157040000Y-88260000D01*
X150740000Y-89660000D02*
X150740000Y-88260000D01*
X150740000Y-97160000D02*
X150140000Y-97160000D01*
X150740000Y-98560000D02*
X150740000Y-97160000D01*
X157040000Y-88260000D02*
X157040000Y-89660000D01*
X157040000Y-89660000D02*
X157640000Y-89660000D01*
X157040000Y-97160000D02*
X157040000Y-98560000D01*
X157040000Y-98560000D02*
X150740000Y-98560000D01*
X157640000Y-89660000D02*
X157640000Y-90260000D01*
X157640000Y-90260000D02*
X159040000Y-90260000D01*
X157640000Y-96560000D02*
X157640000Y-97160000D01*
X157640000Y-97160000D02*
X157040000Y-97160000D01*
X159040000Y-90260000D02*
X159040000Y-96560000D01*
X159040000Y-96560000D02*
X157640000Y-96560000D01*
%TO.C,U2*%
X103190000Y-80792500D02*
X103640000Y-80792500D01*
X103190000Y-82452500D02*
X103190000Y-80792500D01*
X103640000Y-80672500D02*
X105140000Y-80672500D01*
X103640000Y-80792500D02*
X103640000Y-80672500D01*
X103640000Y-82452500D02*
X103190000Y-82452500D01*
X103640000Y-82572500D02*
X103640000Y-82452500D01*
X105140000Y-80672500D02*
X105140000Y-80792500D01*
X105140000Y-80792500D02*
X105590000Y-80792500D01*
X105140000Y-82452500D02*
X105140000Y-82572500D01*
X105140000Y-82572500D02*
X103640000Y-82572500D01*
X105590000Y-80792500D02*
X105590000Y-82452500D01*
X105590000Y-82452500D02*
X105140000Y-82452500D01*
%TO.C,C58*%
X157050000Y-87162500D02*
X158510000Y-87162500D01*
X158510000Y-84202500D01*
X157050000Y-84202500D01*
X157050000Y-87162500D01*
%TO.C,R50*%
X153920000Y-103140000D02*
X155380000Y-103140000D01*
X155380000Y-100180000D01*
X153920000Y-100180000D01*
X153920000Y-103140000D01*
%TO.C,R3*%
X98910000Y-88030000D02*
X95950000Y-88030000D01*
X95950000Y-86570000D01*
X98910000Y-86570000D01*
X98910000Y-88030000D01*
%TO.C,R54*%
X146120000Y-94942500D02*
X147580000Y-94942500D01*
X147580000Y-91982500D01*
X146120000Y-91982500D01*
X146120000Y-94942500D01*
%TO.C,C64*%
X155070000Y-87162500D02*
X156530000Y-87162500D01*
X156530000Y-84202500D01*
X155070000Y-84202500D01*
X155070000Y-87162500D01*
%TO.C,C10*%
X113050000Y-102790000D02*
X111090000Y-102790000D01*
X111090000Y-106190000D01*
X113050000Y-106190000D01*
X113050000Y-102790000D01*
%TO.C,FID1*%
X92970000Y-115310000D02*
G75*
G02*
X91470000Y-115310000I-750000J0D01*
G01*
X91470000Y-115310000D02*
G75*
G02*
X92970000Y-115310000I750000J0D01*
G01*
%TO.C,C52*%
X154540000Y-68545000D02*
X156000000Y-68545000D01*
X156000000Y-65585000D01*
X154540000Y-65585000D01*
X154540000Y-68545000D01*
%TO.C,H2*%
X198080000Y-119820000D02*
G75*
G02*
X191580000Y-119820000I-3250000J0D01*
G01*
X191580000Y-119820000D02*
G75*
G02*
X198080000Y-119820000I3250000J0D01*
G01*
%TO.C,C13*%
X118425000Y-82215000D02*
X120385000Y-82215000D01*
X120385000Y-78815000D01*
X118425000Y-78815000D01*
X118425000Y-82215000D01*
%TO.C,R71*%
X125790000Y-91580000D02*
X128750000Y-91580000D01*
X128750000Y-93040000D01*
X125790000Y-93040000D01*
X125790000Y-91580000D01*
%TO.C,Q1*%
X144247500Y-69700000D02*
X145247500Y-69700000D01*
X144247500Y-70800000D02*
X144247500Y-69700000D01*
X145247500Y-68550000D02*
X147347500Y-68550000D01*
X145247500Y-69700000D02*
X145247500Y-68550000D01*
X145247500Y-70800000D02*
X144247500Y-70800000D01*
X145247500Y-71950000D02*
X145247500Y-70800000D01*
X147347500Y-68550000D02*
X147347500Y-68750000D01*
X147347500Y-68750000D02*
X148347500Y-68750000D01*
X147347500Y-69860000D02*
X147347500Y-70640000D01*
X147347500Y-70640000D02*
X148347500Y-70640000D01*
X147347500Y-71750000D02*
X147347500Y-71950000D01*
X147347500Y-71950000D02*
X145247500Y-71950000D01*
X148347500Y-68750000D02*
X148347500Y-69860000D01*
X148347500Y-69860000D02*
X147347500Y-69860000D01*
X148347500Y-70640000D02*
X148347500Y-71750000D01*
X148347500Y-71750000D02*
X147347500Y-71750000D01*
%TO.C,S1*%
X110920000Y-116830000D02*
X118220000Y-116830000D01*
X118220000Y-122230000D01*
X110920000Y-122230000D01*
X110920000Y-116830000D01*
%TO.C,C70*%
X177820000Y-99095000D02*
X176360000Y-99095000D01*
X176360000Y-102055000D01*
X177820000Y-102055000D01*
X177820000Y-99095000D01*
%TO.C,R64*%
X165090000Y-102055000D02*
X166550000Y-102055000D01*
X166550000Y-99095000D01*
X165090000Y-99095000D01*
X165090000Y-102055000D01*
%TO.C,J11*%
X195330000Y-69370000D02*
X198870000Y-69370000D01*
X198870000Y-100850000D01*
X195330000Y-100850000D01*
X195330000Y-69370000D01*
%TO.C,J1*%
X98890000Y-109050000D02*
X98890000Y-124750000D01*
X98890000Y-124750000D02*
X108890000Y-124750000D01*
X108890000Y-109050000D02*
X98890000Y-109050000D01*
X108890000Y-110850000D02*
X108890000Y-109050000D01*
X108890000Y-124750000D02*
X108890000Y-116050000D01*
X110190000Y-110850000D02*
X108890000Y-110850000D01*
X110190000Y-110850000D02*
X110190000Y-116050000D01*
X110190000Y-116050000D02*
X108890000Y-116050000D01*
%TO.C,R61*%
X183350000Y-99095000D02*
X181890000Y-99095000D01*
X181890000Y-102055000D01*
X183350000Y-102055000D01*
X183350000Y-99095000D01*
%TO.C,J4*%
X164750000Y-61530000D02*
X186100000Y-61530000D01*
X164750000Y-65080000D02*
X164750000Y-61530000D01*
X186100000Y-61530000D02*
X186100000Y-65080000D01*
X186100000Y-65080000D02*
X164750000Y-65080000D01*
%TO.C,TP4*%
X118770000Y-99890000D02*
G75*
G02*
X116770000Y-99890000I-1000000J0D01*
G01*
X116770000Y-99890000D02*
G75*
G02*
X118770000Y-99890000I1000000J0D01*
G01*
%TO.C,R65*%
X166970000Y-102055000D02*
X168430000Y-102055000D01*
X168430000Y-99095000D01*
X166970000Y-99095000D01*
X166970000Y-102055000D01*
%TO.C,R24*%
X147430000Y-115830000D02*
X144470000Y-115830000D01*
X144470000Y-114370000D01*
X147430000Y-114370000D01*
X147430000Y-115830000D01*
%TO.C,TP9*%
X132580000Y-76670000D02*
G75*
G02*
X130580000Y-76670000I-1000000J0D01*
G01*
X130580000Y-76670000D02*
G75*
G02*
X132580000Y-76670000I1000000J0D01*
G01*
%TO.C,C31*%
X127470000Y-73037500D02*
X124510000Y-73037500D01*
X124510000Y-71577500D01*
X127470000Y-71577500D01*
X127470000Y-73037500D01*
%TO.C,C11*%
X115775000Y-82315000D02*
X117735000Y-82315000D01*
X117735000Y-78915000D01*
X115775000Y-78915000D01*
X115775000Y-82315000D01*
%TO.C,J14*%
X161660000Y-81240000D02*
X158120000Y-81240000D01*
X158120000Y-75150000D01*
X161660000Y-75150000D01*
X161660000Y-81240000D01*
%TO.C,C3*%
X105840000Y-89410000D02*
X102440000Y-89410000D01*
X102440000Y-87450000D01*
X105840000Y-87450000D01*
X105840000Y-89410000D01*
%TO.C,S2*%
X111350000Y-110020000D02*
X118650000Y-110020000D01*
X118650000Y-115420000D01*
X111350000Y-115420000D01*
X111350000Y-110020000D01*
%TO.C,C74*%
X172470000Y-65610000D02*
X175430000Y-65610000D01*
X175430000Y-67070000D01*
X172470000Y-67070000D01*
X172470000Y-65610000D01*
%TO.C,RV1*%
X188570000Y-63765000D02*
X198610000Y-63765000D01*
X198610000Y-69095000D01*
X188570000Y-69095000D01*
X188570000Y-63765000D01*
%TO.C,FID3*%
X191310000Y-57360000D02*
G75*
G02*
X189810000Y-57360000I-750000J0D01*
G01*
X189810000Y-57360000D02*
G75*
G02*
X191310000Y-57360000I750000J0D01*
G01*
%TO.C,C57*%
X153150000Y-87167500D02*
X154610000Y-87167500D01*
X154610000Y-84207500D01*
X153150000Y-84207500D01*
X153150000Y-87167500D01*
%TO.C,TP17*%
X158300000Y-66870000D02*
G75*
G02*
X156300000Y-66870000I-1000000J0D01*
G01*
X156300000Y-66870000D02*
G75*
G02*
X158300000Y-66870000I1000000J0D01*
G01*
%TO.C,U4*%
X170525000Y-70110000D02*
X171925000Y-70110000D01*
X170525000Y-83170000D02*
X170525000Y-70110000D01*
X171925000Y-69390000D02*
X172645000Y-69390000D01*
X171925000Y-70110000D02*
X171925000Y-69390000D01*
X171925000Y-83170000D02*
X170525000Y-83170000D01*
X171925000Y-83890000D02*
X171925000Y-83170000D01*
X172645000Y-67990000D02*
X185705000Y-67990000D01*
X172645000Y-69390000D02*
X172645000Y-67990000D01*
X172645000Y-83890000D02*
X171925000Y-83890000D01*
X172645000Y-85290000D02*
X172645000Y-83890000D01*
X185705000Y-67990000D02*
X185705000Y-69390000D01*
X185705000Y-69390000D02*
X186425000Y-69390000D01*
X185705000Y-83890000D02*
X185705000Y-85290000D01*
X185705000Y-85290000D02*
X172645000Y-85290000D01*
X186425000Y-69390000D02*
X186425000Y-70110000D01*
X186425000Y-70110000D02*
X187825000Y-70110000D01*
X186425000Y-83170000D02*
X186425000Y-83890000D01*
X186425000Y-83890000D02*
X185705000Y-83890000D01*
X187825000Y-70110000D02*
X187825000Y-83170000D01*
X187825000Y-83170000D02*
X186425000Y-83170000D01*
%TO.C,BZ1*%
X184140000Y-90710000D02*
X190230000Y-90710000D01*
X190230000Y-87170000D01*
X184140000Y-87170000D01*
X184140000Y-90710000D01*
%TO.C,C24*%
X173985000Y-86247500D02*
X172525000Y-86247500D01*
X172525000Y-89207500D01*
X173985000Y-89207500D01*
X173985000Y-86247500D01*
%TO.C,C68*%
X180050000Y-102055000D02*
X181510000Y-102055000D01*
X181510000Y-99095000D01*
X180050000Y-99095000D01*
X180050000Y-102055000D01*
%TO.C,R46*%
X148645000Y-75590000D02*
X145685000Y-75590000D01*
X145685000Y-74130000D01*
X148645000Y-74130000D01*
X148645000Y-75590000D01*
%TO.C,C53*%
X143415000Y-96880000D02*
X146375000Y-96880000D01*
X146375000Y-98340000D01*
X143415000Y-98340000D01*
X143415000Y-96880000D01*
%TO.C,R25*%
X147530000Y-113530000D02*
X144570000Y-113530000D01*
X144570000Y-112070000D01*
X147530000Y-112070000D01*
X147530000Y-113530000D01*
%TO.C,R60*%
X170270000Y-99100000D02*
X168810000Y-99100000D01*
X168810000Y-102060000D01*
X170270000Y-102060000D01*
X170270000Y-99100000D01*
%TO.C,FB1*%
X145650000Y-84362500D02*
X144190000Y-84362500D01*
X144190000Y-87322500D01*
X145650000Y-87322500D01*
X145650000Y-84362500D01*
%TO.C,C48*%
X154620000Y-81790000D02*
X151660000Y-81790000D01*
X151660000Y-80330000D01*
X154620000Y-80330000D01*
X154620000Y-81790000D01*
%TO.C,TP5*%
X125350000Y-82700000D02*
G75*
G02*
X123350000Y-82700000I-1000000J0D01*
G01*
X123350000Y-82700000D02*
G75*
G02*
X125350000Y-82700000I1000000J0D01*
G01*
%TO.C,R52*%
X152140000Y-103140000D02*
X153600000Y-103140000D01*
X153600000Y-100180000D01*
X152140000Y-100180000D01*
X152140000Y-103140000D01*
%TO.C,R7*%
X102650000Y-77190000D02*
X101190000Y-77190000D01*
X101190000Y-80150000D01*
X102650000Y-80150000D01*
X102650000Y-77190000D01*
%TO.C,R31*%
X128360000Y-99390000D02*
X126900000Y-99390000D01*
X126900000Y-102350000D01*
X128360000Y-102350000D01*
X128360000Y-99390000D01*
%TO.C,R48*%
X155690000Y-103140000D02*
X157150000Y-103140000D01*
X157150000Y-100180000D01*
X155690000Y-100180000D01*
X155690000Y-103140000D01*
%TO.C,R39*%
X139350000Y-62170000D02*
X137890000Y-62170000D01*
X137890000Y-65130000D01*
X139350000Y-65130000D01*
X139350000Y-62170000D01*
%TO.C,C4*%
X97880000Y-99210000D02*
X99840000Y-99210000D01*
X99840000Y-95810000D01*
X97880000Y-95810000D01*
X97880000Y-99210000D01*
%TO.C,C54*%
X144920000Y-89730000D02*
X141960000Y-89730000D01*
X141960000Y-88270000D01*
X144920000Y-88270000D01*
X144920000Y-89730000D01*
%TO.C,R30*%
X130050000Y-99395000D02*
X128590000Y-99395000D01*
X128590000Y-102355000D01*
X130050000Y-102355000D01*
X130050000Y-99395000D01*
%TO.C,C62*%
X160160000Y-85752500D02*
X163120000Y-85752500D01*
X163120000Y-87212500D01*
X160160000Y-87212500D01*
X160160000Y-85752500D01*
%TO.C,R73*%
X180370000Y-90420000D02*
X183330000Y-90420000D01*
X183330000Y-91880000D01*
X180370000Y-91880000D01*
X180370000Y-90420000D01*
%TO.C,U5*%
X126000000Y-74462500D02*
X126200000Y-74462500D01*
X126000000Y-76562500D02*
X126000000Y-74462500D01*
X126200000Y-73462500D02*
X127310000Y-73462500D01*
X126200000Y-74462500D02*
X126200000Y-73462500D01*
X126200000Y-76562500D02*
X126000000Y-76562500D01*
X126200000Y-77562500D02*
X126200000Y-76562500D01*
X127310000Y-73462500D02*
X127310000Y-74462500D01*
X127310000Y-74462500D02*
X128090000Y-74462500D01*
X128090000Y-73462500D02*
X129200000Y-73462500D01*
X128090000Y-74462500D02*
X128090000Y-73462500D01*
X129200000Y-73462500D02*
X129200000Y-74462500D01*
X129200000Y-74462500D02*
X129400000Y-74462500D01*
X129200000Y-76562500D02*
X129200000Y-77562500D01*
X129200000Y-77562500D02*
X126200000Y-77562500D01*
X129400000Y-74462500D02*
X129400000Y-76562500D01*
X129400000Y-76562500D02*
X129200000Y-76562500D01*
%TO.C,R62*%
X178210000Y-102055000D02*
X179670000Y-102055000D01*
X179670000Y-99095000D01*
X178210000Y-99095000D01*
X178210000Y-102055000D01*
%TO.C,R59*%
X174070000Y-99095000D02*
X172610000Y-99095000D01*
X172610000Y-102055000D01*
X174070000Y-102055000D01*
X174070000Y-99095000D01*
%TO.C,C72*%
X125345000Y-88590000D02*
X122385000Y-88590000D01*
X122385000Y-87130000D01*
X125345000Y-87130000D01*
X125345000Y-88590000D01*
%TO.C,R36*%
X127930000Y-80832500D02*
X129390000Y-80832500D01*
X129390000Y-77872500D01*
X127930000Y-77872500D01*
X127930000Y-80832500D01*
%TO.C,TP6*%
X152020000Y-121810000D02*
G75*
G02*
X150020000Y-121810000I-1000000J0D01*
G01*
X150020000Y-121810000D02*
G75*
G02*
X152020000Y-121810000I1000000J0D01*
G01*
%TO.C,R58*%
X165680000Y-118940000D02*
X167140000Y-118940000D01*
X167140000Y-115980000D01*
X165680000Y-115980000D01*
X165680000Y-118940000D01*
%TO.C,C21*%
X182215000Y-86562500D02*
X180755000Y-86562500D01*
X180755000Y-89522500D01*
X182215000Y-89522500D01*
X182215000Y-86562500D01*
%TO.C,C17*%
X146195000Y-122575000D02*
X148155000Y-122575000D01*
X148155000Y-119175000D01*
X146195000Y-119175000D01*
X146195000Y-122575000D01*
%TO.C,TP2*%
X93710000Y-97000000D02*
G75*
G02*
X91710000Y-97000000I-1000000J0D01*
G01*
X91710000Y-97000000D02*
G75*
G02*
X93710000Y-97000000I1000000J0D01*
G01*
%TO.C,C61*%
X151340000Y-87177500D02*
X152800000Y-87177500D01*
X152800000Y-84217500D01*
X151340000Y-84217500D01*
X151340000Y-87177500D01*
%TO.C,TP10*%
X132240000Y-72000000D02*
G75*
G02*
X130240000Y-72000000I-1000000J0D01*
G01*
X130240000Y-72000000D02*
G75*
G02*
X132240000Y-72000000I1000000J0D01*
G01*
%TO.C,TP11*%
X125170000Y-74380000D02*
G75*
G02*
X123170000Y-74380000I-1000000J0D01*
G01*
X123170000Y-74380000D02*
G75*
G02*
X125170000Y-74380000I1000000J0D01*
G01*
%TO.C,TP14*%
X165830000Y-112720000D02*
G75*
G02*
X163830000Y-112720000I-1000000J0D01*
G01*
X163830000Y-112720000D02*
G75*
G02*
X165830000Y-112720000I1000000J0D01*
G01*
%TO.C,C69*%
X183700000Y-102055000D02*
X185160000Y-102055000D01*
X185160000Y-99095000D01*
X183700000Y-99095000D01*
X183700000Y-102055000D01*
%TO.C,C63*%
X160140000Y-87472500D02*
X163100000Y-87472500D01*
X163100000Y-88932500D01*
X160140000Y-88932500D01*
X160140000Y-87472500D01*
%TO.C,TP16*%
X153700000Y-65760000D02*
G75*
G02*
X151700000Y-65760000I-1000000J0D01*
G01*
X151700000Y-65760000D02*
G75*
G02*
X153700000Y-65760000I1000000J0D01*
G01*
%TO.C,J12*%
X163680000Y-59630000D02*
X174840000Y-59630000D01*
X174840000Y-56090000D01*
X163680000Y-56090000D01*
X163680000Y-59630000D01*
%TO.C,R34*%
X99375000Y-75560000D02*
X96415000Y-75560000D01*
X96415000Y-74100000D01*
X99375000Y-74100000D01*
X99375000Y-75560000D01*
%TO.C,J15*%
X138460000Y-70370000D02*
X142000000Y-70370000D01*
X142000000Y-84070000D01*
X138460000Y-84070000D01*
X138460000Y-70370000D01*
%TO.C,R44*%
X144460000Y-80330000D02*
X147420000Y-80330000D01*
X147420000Y-81790000D01*
X144460000Y-81790000D01*
X144460000Y-80330000D01*
%TO.C,R10*%
X109630000Y-95790000D02*
X108170000Y-95790000D01*
X108170000Y-98750000D01*
X109630000Y-98750000D01*
X109630000Y-95790000D01*
%TO.C,H4*%
X97420000Y-60180000D02*
G75*
G02*
X90920000Y-60180000I-3250000J0D01*
G01*
X90920000Y-60180000D02*
G75*
G02*
X97420000Y-60180000I3250000J0D01*
G01*
%TO.C,C60*%
X160150000Y-89172500D02*
X163110000Y-89172500D01*
X163110000Y-90632500D01*
X160150000Y-90632500D01*
X160150000Y-89172500D01*
%TO.C,C9*%
X102950000Y-80155000D02*
X104410000Y-80155000D01*
X104410000Y-77195000D01*
X102950000Y-77195000D01*
X102950000Y-80155000D01*
%TO.C,C66*%
X188090000Y-108970000D02*
X191990000Y-108970000D01*
X191990000Y-102970000D01*
X188090000Y-102970000D01*
X188090000Y-108970000D01*
%TO.C,C65*%
X141740000Y-87740000D02*
X143700000Y-87740000D01*
X143700000Y-84340000D01*
X141740000Y-84340000D01*
X141740000Y-87740000D01*
%TO.C,Y2*%
X142000000Y-90092500D02*
X142000000Y-96592500D01*
X142000000Y-96592500D02*
X145700000Y-96592500D01*
X145700000Y-90092500D02*
X142000000Y-90092500D01*
X145700000Y-96592500D02*
X145700000Y-90092500D01*
%TO.C,TP15*%
X170570000Y-95200000D02*
G75*
G02*
X168570000Y-95200000I-1000000J0D01*
G01*
X168570000Y-95200000D02*
G75*
G02*
X170570000Y-95200000I1000000J0D01*
G01*
%TO.C,C55*%
X135645000Y-98415000D02*
X137605000Y-98415000D01*
X137605000Y-95015000D01*
X135645000Y-95015000D01*
X135645000Y-98415000D01*
%TO.C,C75*%
X182080000Y-65610000D02*
X185040000Y-65610000D01*
X185040000Y-67070000D01*
X182080000Y-67070000D01*
X182080000Y-65610000D01*
%TO.C,C59*%
X149520000Y-87182500D02*
X150980000Y-87182500D01*
X150980000Y-84222500D01*
X149520000Y-84222500D01*
X149520000Y-87182500D01*
D11*
%TO.C,L3*%
X106692500Y-79478900D02*
X106992500Y-79478900D01*
X106692500Y-83746100D02*
X106692500Y-79478900D01*
X106692500Y-83746100D02*
X106992500Y-83746100D01*
X106992500Y-77650100D02*
X114962500Y-77658100D01*
X106992500Y-79478900D02*
X106992500Y-77650100D01*
X106992500Y-85574900D02*
X106992500Y-83746100D01*
X114972500Y-77648100D02*
X114972500Y-79476900D01*
X115012500Y-83752500D02*
X115012500Y-85562500D01*
X115012500Y-85571300D02*
X106992500Y-85574900D01*
X115232500Y-79478900D02*
X114972500Y-79478900D01*
X115232500Y-79478900D02*
X115232500Y-83736100D01*
X115232500Y-83746100D02*
X115012500Y-83746100D01*
%TO.C,J6*%
D10*
X162270000Y-69110000D02*
X168360000Y-69110000D01*
X168360000Y-82810000D01*
X162270000Y-82810000D01*
X162270000Y-69110000D01*
%TO.C,J18*%
X167750000Y-84145000D02*
X171290000Y-84145000D01*
X171290000Y-90235000D01*
X167750000Y-90235000D01*
X167750000Y-84145000D01*
%TO.C,D5*%
X90410000Y-72630000D02*
X95250000Y-72630000D01*
X95250000Y-77050000D01*
X90410000Y-77050000D01*
X90410000Y-72630000D01*
%TO.C,R66*%
X185500000Y-102055000D02*
X186960000Y-102055000D01*
X186960000Y-99095000D01*
X185500000Y-99095000D01*
X185500000Y-102055000D01*
%TO.C,C32*%
X132690000Y-71470000D02*
X135650000Y-71470000D01*
X135650000Y-72930000D01*
X132690000Y-72930000D01*
X132690000Y-71470000D01*
%TO.C,R29*%
X144675000Y-105510000D02*
X147635000Y-105510000D01*
X147635000Y-106970000D01*
X144675000Y-106970000D01*
X144675000Y-105510000D01*
%TO.C,F1*%
X92160000Y-105180000D02*
X94420000Y-105180000D01*
X94420000Y-100620000D01*
X92160000Y-100620000D01*
X92160000Y-105180000D01*
%TO.C,C29*%
X127460000Y-79462500D02*
X124500000Y-79462500D01*
X124500000Y-78002500D01*
X127460000Y-78002500D01*
X127460000Y-79462500D01*
%TO.C,R57*%
X167460000Y-118935000D02*
X168920000Y-118935000D01*
X168920000Y-115975000D01*
X167460000Y-115975000D01*
X167460000Y-118935000D01*
%TO.C,R43*%
X144460000Y-78380000D02*
X147420000Y-78380000D01*
X147420000Y-79840000D01*
X144460000Y-79840000D01*
X144460000Y-78380000D01*
%TO.C,J16*%
X161640000Y-74930000D02*
X158100000Y-74930000D01*
X158100000Y-68840000D01*
X161640000Y-68840000D01*
X161640000Y-74930000D01*
%TO.C,U6*%
X132620000Y-74500000D02*
X132820000Y-74500000D01*
X132620000Y-76600000D02*
X132620000Y-74500000D01*
X132820000Y-73500000D02*
X133930000Y-73500000D01*
X132820000Y-74500000D02*
X132820000Y-73500000D01*
X132820000Y-76600000D02*
X132620000Y-76600000D01*
X132820000Y-77600000D02*
X132820000Y-76600000D01*
X133930000Y-73500000D02*
X133930000Y-74500000D01*
X133930000Y-74500000D02*
X134710000Y-74500000D01*
X134710000Y-73500000D02*
X135820000Y-73500000D01*
X134710000Y-74500000D02*
X134710000Y-73500000D01*
X135820000Y-73500000D02*
X135820000Y-74500000D01*
X135820000Y-74500000D02*
X136020000Y-74500000D01*
X135820000Y-76600000D02*
X135820000Y-77600000D01*
X135820000Y-77600000D02*
X132820000Y-77600000D01*
X136020000Y-74500000D02*
X136020000Y-76600000D01*
X136020000Y-76600000D02*
X135820000Y-76600000D01*
%TO.C,TP3*%
X111490000Y-88470000D02*
G75*
G02*
X109490000Y-88470000I-1000000J0D01*
G01*
X109490000Y-88470000D02*
G75*
G02*
X111490000Y-88470000I1000000J0D01*
G01*
%TO.C,J3*%
X89670000Y-112530000D02*
X97170000Y-112530000D01*
X97170000Y-105940000D01*
X89670000Y-105940000D01*
X89670000Y-112530000D01*
%TO.C,R45*%
X145685000Y-72400000D02*
X148645000Y-72400000D01*
X148645000Y-73860000D01*
X145685000Y-73860000D01*
X145685000Y-72400000D01*
D12*
%TO.C,J9*%
X97910000Y-49130000D02*
X130710000Y-49130000D01*
X97910000Y-69630000D02*
X97910000Y-49130000D01*
X130710000Y-49130000D02*
X130710000Y-69630000D01*
X130710000Y-69630000D02*
X97910000Y-69630000D01*
D10*
%TO.C,U11*%
X168360000Y-109170000D02*
X168360000Y-113170000D01*
X168360000Y-113170000D02*
X169480000Y-113170000D01*
X169480000Y-103030000D02*
X169480000Y-109170000D01*
X169480000Y-103030000D02*
X186740000Y-103030000D01*
X169480000Y-109170000D02*
X168360000Y-109170000D01*
X169480000Y-113170000D02*
X169480000Y-125620000D01*
X169480000Y-125620000D02*
X186740000Y-125620000D01*
X186740000Y-103030000D02*
X186740000Y-109170000D01*
X186740000Y-113170000D02*
X186740000Y-125620000D01*
X186740000Y-113170000D02*
X187860000Y-113170000D01*
X187860000Y-109170000D02*
X186740000Y-109170000D01*
X187860000Y-109170000D02*
X187860000Y-113170000D01*
%TO.C,C71*%
X122375000Y-89030000D02*
X125335000Y-89030000D01*
X125335000Y-90490000D01*
X122375000Y-90490000D01*
X122375000Y-89030000D01*
%TO.C,J5*%
X191040000Y-74450000D02*
X194590000Y-74450000D01*
X191040000Y-95800000D02*
X191040000Y-74450000D01*
X194590000Y-74450000D02*
X194590000Y-95800000D01*
X194590000Y-95800000D02*
X191040000Y-95800000D01*
%TO.C,U1*%
X102200000Y-97077500D02*
X102320000Y-97077500D01*
X102200000Y-98577500D02*
X102200000Y-97077500D01*
X102320000Y-96627500D02*
X103980000Y-96627500D01*
X102320000Y-97077500D02*
X102320000Y-96627500D01*
X102320000Y-98577500D02*
X102200000Y-98577500D01*
X102320000Y-99027500D02*
X102320000Y-98577500D01*
X103980000Y-96627500D02*
X103980000Y-97077500D01*
X103980000Y-97077500D02*
X104100000Y-97077500D01*
X103980000Y-98577500D02*
X103980000Y-99027500D01*
X103980000Y-99027500D02*
X102320000Y-99027500D01*
X104100000Y-97077500D02*
X104100000Y-98577500D01*
X104100000Y-98577500D02*
X103980000Y-98577500D01*
%TO.C,C34*%
X134350000Y-65130000D02*
X135810000Y-65130000D01*
X135810000Y-62170000D01*
X134350000Y-62170000D01*
X134350000Y-65130000D01*
%TO.C,FID2*%
X196960000Y-115700000D02*
G75*
G02*
X195460000Y-115700000I-750000J0D01*
G01*
X195460000Y-115700000D02*
G75*
G02*
X196960000Y-115700000I750000J0D01*
G01*
%TO.C,TP1*%
X97420000Y-103390000D02*
G75*
G02*
X95420000Y-103390000I-1000000J0D01*
G01*
X95420000Y-103390000D02*
G75*
G02*
X97420000Y-103390000I1000000J0D01*
G01*
%TO.C,C51*%
X151000000Y-68430000D02*
X148040000Y-68430000D01*
X148040000Y-66970000D01*
X151000000Y-66970000D01*
X151000000Y-68430000D01*
%TO.C,R13*%
X100570000Y-82860000D02*
X97610000Y-82860000D01*
X97610000Y-81400000D01*
X100570000Y-81400000D01*
X100570000Y-82860000D01*
%TO.C,R37*%
X134530000Y-80960000D02*
X135990000Y-80960000D01*
X135990000Y-78000000D01*
X134530000Y-78000000D01*
X134530000Y-80960000D01*
%TO.C,C67*%
X175920000Y-99095000D02*
X174460000Y-99095000D01*
X174460000Y-102055000D01*
X175920000Y-102055000D01*
X175920000Y-99095000D01*
%TO.C,R6*%
X107680000Y-95450000D02*
X104720000Y-95450000D01*
X104720000Y-93990000D01*
X107680000Y-93990000D01*
X107680000Y-95450000D01*
%TO.C,D4*%
X90360000Y-78860000D02*
X95200000Y-78860000D01*
X95200000Y-83280000D01*
X90360000Y-83280000D01*
X90360000Y-78860000D01*
%TO.C,C15*%
X120815000Y-82035000D02*
X122275000Y-82035000D01*
X122275000Y-79075000D01*
X120815000Y-79075000D01*
X120815000Y-82035000D01*
%TO.C,C5*%
X105850000Y-87070000D02*
X102450000Y-87070000D01*
X102450000Y-85110000D01*
X105850000Y-85110000D01*
X105850000Y-87070000D01*
%TO.C,D1*%
X90360000Y-91320000D02*
X95200000Y-91320000D01*
X95200000Y-95740000D01*
X90360000Y-95740000D01*
X90360000Y-91320000D01*
%TO.C,R55*%
X147690000Y-87192500D02*
X149150000Y-87192500D01*
X149150000Y-84232500D01*
X147690000Y-84232500D01*
X147690000Y-87192500D01*
%TO.C,R40*%
X137580000Y-62170000D02*
X136120000Y-62170000D01*
X136120000Y-65130000D01*
X137580000Y-65130000D01*
X137580000Y-62170000D01*
%TO.C,TP8*%
X125230000Y-76640000D02*
G75*
G02*
X123230000Y-76640000I-1000000J0D01*
G01*
X123230000Y-76640000D02*
G75*
G02*
X125230000Y-76640000I1000000J0D01*
G01*
%TO.C,C6*%
X100230000Y-99205000D02*
X101690000Y-99205000D01*
X101690000Y-96245000D01*
X100230000Y-96245000D01*
X100230000Y-99205000D01*
%TO.C,C30*%
X134060000Y-79580000D02*
X131100000Y-79580000D01*
X131100000Y-78120000D01*
X134060000Y-78120000D01*
X134060000Y-79580000D01*
%TO.C,U3*%
X109520000Y-124440000D02*
X109520000Y-145440000D01*
X109520000Y-145440000D02*
X157520000Y-145440000D01*
X123770000Y-124440000D02*
X109520000Y-124440000D01*
X123770000Y-124440000D02*
X123770000Y-104240000D01*
X143270000Y-104240000D02*
X123770000Y-104240000D01*
X143270000Y-104240000D02*
X143270000Y-124440000D01*
X157520000Y-124440000D02*
X143270000Y-124440000D01*
X157520000Y-145440000D02*
X157520000Y-124440000D01*
%TD*%
M02*
