%TF.GenerationSoftware,KiCad,Pcbnew,9.0.7*%
%TF.CreationDate,2026-03-23T10:39:07+05:30*%
%TF.ProjectId,AnexVM_V01,416e6578-564d-45f5-9630-312e6b696361,rev?*%
%TF.SameCoordinates,Original*%
%TF.FileFunction,Soldermask,Top*%
%TF.FilePolarity,Negative*%
%FSLAX46Y46*%
G04 Gerber Fmt 4.6, Leading zero omitted, Abs format (unit mm)*
G04 Created by KiCad (PCBNEW 9.0.7) date 2026-03-23 10:39:07*
%MOMM*%
%LPD*%
G01*
G04 APERTURE LIST*
G04 Aperture macros list*
%AMRoundRect*
0 Rectangle with rounded corners*
0 $1 Rounding radius*
0 $2 $3 $4 $5 $6 $7 $8 $9 X,Y pos of 4 corners*
0 Add a 4 corners polygon primitive as box body*
4,1,4,$2,$3,$4,$5,$6,$7,$8,$9,$2,$3,0*
0 Add four circle primitives for the rounded corners*
1,1,$1+$1,$2,$3*
1,1,$1+$1,$4,$5*
1,1,$1+$1,$6,$7*
1,1,$1+$1,$8,$9*
0 Add four rect primitives between the rounded corners*
20,1,$1+$1,$2,$3,$4,$5,0*
20,1,$1+$1,$4,$5,$6,$7,0*
20,1,$1+$1,$6,$7,$8,$9,0*
20,1,$1+$1,$8,$9,$2,$3,0*%
G04 Aperture macros list end*
%ADD10RoundRect,0.250000X0.250000X-0.525000X0.250000X0.525000X-0.250000X0.525000X-0.250000X-0.525000X0*%
%ADD11RoundRect,0.200000X0.200000X0.275000X-0.200000X0.275000X-0.200000X-0.275000X0.200000X-0.275000X0*%
%ADD12RoundRect,0.150000X-0.825000X-0.150000X0.825000X-0.150000X0.825000X0.150000X-0.825000X0.150000X0*%
%ADD13RoundRect,0.225000X-0.225000X-0.250000X0.225000X-0.250000X0.225000X0.250000X-0.225000X0.250000X0*%
%ADD14RoundRect,0.225000X-0.250000X0.225000X-0.250000X-0.225000X0.250000X-0.225000X0.250000X0.225000X0*%
%ADD15RoundRect,0.250000X0.450000X0.350000X-0.450000X0.350000X-0.450000X-0.350000X0.450000X-0.350000X0*%
%ADD16RoundRect,0.250000X0.250000X0.475000X-0.250000X0.475000X-0.250000X-0.475000X0.250000X-0.475000X0*%
%ADD17R,1.700000X1.700000*%
%ADD18C,1.700000*%
%ADD19R,1.800000X1.800000*%
%ADD20C,1.800000*%
%ADD21RoundRect,0.200000X-0.275000X0.200000X-0.275000X-0.200000X0.275000X-0.200000X0.275000X0.200000X0*%
%ADD22C,1.000000*%
%ADD23RoundRect,0.225000X0.250000X-0.225000X0.250000X0.225000X-0.250000X0.225000X-0.250000X-0.225000X0*%
%ADD24RoundRect,0.250000X1.000000X0.650000X-1.000000X0.650000X-1.000000X-0.650000X1.000000X-0.650000X0*%
%ADD25RoundRect,0.200000X-0.200000X-0.275000X0.200000X-0.275000X0.200000X0.275000X-0.200000X0.275000X0*%
%ADD26RoundRect,0.250000X0.475000X-0.250000X0.475000X0.250000X-0.475000X0.250000X-0.475000X-0.250000X0*%
%ADD27RoundRect,0.200000X0.275000X-0.200000X0.275000X0.200000X-0.275000X0.200000X-0.275000X-0.200000X0*%
%ADD28R,2.950000X3.500000*%
%ADD29RoundRect,0.225000X0.225000X0.250000X-0.225000X0.250000X-0.225000X-0.250000X0.225000X-0.250000X0*%
%ADD30C,0.650000*%
%ADD31RoundRect,0.150000X-0.150000X-0.425000X0.150000X-0.425000X0.150000X0.425000X-0.150000X0.425000X0*%
%ADD32RoundRect,0.075000X-0.075000X-0.500000X0.075000X-0.500000X0.075000X0.500000X-0.075000X0.500000X0*%
%ADD33O,1.000000X2.100000*%
%ADD34O,1.000000X1.800000*%
%ADD35RoundRect,0.150000X-0.150000X0.825000X-0.150000X-0.825000X0.150000X-0.825000X0.150000X0.825000X0*%
%ADD36C,0.800000*%
%ADD37C,6.000000*%
%ADD38RoundRect,0.250000X-0.475000X0.250000X-0.475000X-0.250000X0.475000X-0.250000X0.475000X0.250000X0*%
%ADD39RoundRect,0.218750X-0.381250X0.218750X-0.381250X-0.218750X0.381250X-0.218750X0.381250X0.218750X0*%
%ADD40RoundRect,0.075000X0.662500X0.075000X-0.662500X0.075000X-0.662500X-0.075000X0.662500X-0.075000X0*%
%ADD41RoundRect,0.075000X0.075000X0.662500X-0.075000X0.662500X-0.075000X-0.662500X0.075000X-0.662500X0*%
%ADD42RoundRect,0.087500X0.250000X0.087500X-0.250000X0.087500X-0.250000X-0.087500X0.250000X-0.087500X0*%
%ADD43RoundRect,0.150000X0.512500X0.150000X-0.512500X0.150000X-0.512500X-0.150000X0.512500X-0.150000X0*%
%ADD44RoundRect,0.250000X-0.525000X-0.250000X0.525000X-0.250000X0.525000X0.250000X-0.525000X0.250000X0*%
%ADD45R,4.600000X2.000000*%
%ADD46O,4.200000X2.000000*%
%ADD47O,2.000000X4.200000*%
%ADD48C,1.440000*%
%ADD49RoundRect,0.137500X-0.600000X-0.137500X0.600000X-0.137500X0.600000X0.137500X-0.600000X0.137500X0*%
%ADD50RoundRect,0.137500X-0.137500X-0.600000X0.137500X-0.600000X0.137500X0.600000X-0.137500X0.600000X0*%
%ADD51RoundRect,0.218750X-0.256250X0.218750X-0.256250X-0.218750X0.256250X-0.218750X0.256250X0.218750X0*%
%ADD52RoundRect,0.150000X0.150000X-0.512500X0.150000X0.512500X-0.150000X0.512500X-0.150000X-0.512500X0*%
%ADD53RoundRect,0.249999X1.450001X-0.450001X1.450001X0.450001X-1.450001X0.450001X-1.450001X-0.450001X0*%
%ADD54RoundRect,0.102000X1.200000X-0.950000X1.200000X0.950000X-1.200000X0.950000X-1.200000X-0.950000X0*%
%ADD55R,1.850000X3.400000*%
%ADD56RoundRect,0.250000X0.625000X-0.375000X0.625000X0.375000X-0.625000X0.375000X-0.625000X-0.375000X0*%
%ADD57RoundRect,0.250000X0.750000X-0.750000X0.750000X0.750000X-0.750000X0.750000X-0.750000X-0.750000X0*%
%ADD58C,2.000000*%
%ADD59R,1.500000X1.500000*%
%ADD60C,1.500000*%
%ADD61C,4.800000*%
%ADD62C,3.200000*%
%ADD63C,3.000000*%
%ADD64RoundRect,0.087500X0.087500X-0.250000X0.087500X0.250000X-0.087500X0.250000X-0.087500X-0.250000X0*%
%ADD65R,1.500000X0.900000*%
%ADD66R,0.900000X1.500000*%
%ADD67C,0.600000*%
%ADD68R,3.900000X3.900000*%
%ADD69RoundRect,0.102000X-0.975000X0.975000X-0.975000X-0.975000X0.975000X-0.975000X0.975000X0.975000X0*%
%ADD70C,2.154000*%
G04 APERTURE END LIST*
D10*
%TO.C,S4*%
X193970000Y-109135000D03*
X193970000Y-103885000D03*
X197170000Y-109135000D03*
X197170000Y-103885000D03*
%TD*%
D11*
%TO.C,R75*%
X197225000Y-111420000D03*
X195575000Y-111420000D03*
%TD*%
D12*
%TO.C,U9*%
X150315000Y-70132500D03*
X150315000Y-71402500D03*
X150315000Y-72672500D03*
X150315000Y-73942500D03*
X150315000Y-75212500D03*
X150315000Y-76482500D03*
X150315000Y-77752500D03*
X150315000Y-79022500D03*
X155265000Y-79022500D03*
X155265000Y-77752500D03*
X155265000Y-76482500D03*
X155265000Y-75212500D03*
X155265000Y-73942500D03*
X155265000Y-72672500D03*
X155265000Y-71402500D03*
X155265000Y-70132500D03*
%TD*%
D13*
%TO.C,C50*%
X146390000Y-76600000D03*
X147940000Y-76600000D03*
%TD*%
D11*
%TO.C,R72*%
X121095000Y-89790000D03*
X119445000Y-89790000D03*
%TD*%
D14*
%TO.C,C25*%
X175105000Y-86942500D03*
X175105000Y-88492500D03*
%TD*%
%TO.C,C33*%
X140410000Y-62875000D03*
X140410000Y-64425000D03*
%TD*%
D15*
%TO.C,Y1*%
X179385000Y-87142500D03*
X177185000Y-87142500D03*
X177185000Y-88842500D03*
X179385000Y-88842500D03*
%TD*%
D16*
%TO.C,C49*%
X150320000Y-65750000D03*
X148420000Y-65750000D03*
%TD*%
D17*
%TO.C,J10*%
X178400000Y-57870000D03*
D18*
X180940000Y-57870000D03*
X183480000Y-57870000D03*
X186020000Y-57870000D03*
%TD*%
D13*
%TO.C,C22*%
X177550000Y-90792500D03*
X179100000Y-90792500D03*
%TD*%
D19*
%TO.C,D6*%
X91610000Y-68610000D03*
D20*
X94150000Y-68610000D03*
%TD*%
D21*
%TO.C,R63*%
X171360000Y-99755000D03*
X171360000Y-101405000D03*
%TD*%
D22*
%TO.C,FID4*%
X91670000Y-64160000D03*
%TD*%
D23*
%TO.C,C56*%
X138915000Y-97560000D03*
X138915000Y-96010000D03*
%TD*%
D24*
%TO.C,D2*%
X162670000Y-109080000D03*
X158670000Y-109080000D03*
%TD*%
D25*
%TO.C,R11*%
X103680000Y-76200000D03*
X105330000Y-76200000D03*
%TD*%
D13*
%TO.C,C18*%
X115185000Y-108790000D03*
X116735000Y-108790000D03*
%TD*%
D11*
%TO.C,R2*%
X97865000Y-93530000D03*
X96215000Y-93530000D03*
%TD*%
D22*
%TO.C,TP13*%
X160840000Y-84390000D03*
%TD*%
D11*
%TO.C,R15*%
X99915000Y-77720000D03*
X98265000Y-77720000D03*
%TD*%
D26*
%TO.C,C2*%
X96480000Y-98460000D03*
X96480000Y-96560000D03*
%TD*%
D27*
%TO.C,R14*%
X104660000Y-92755000D03*
X104660000Y-91105000D03*
%TD*%
D25*
%TO.C,R56*%
X160840000Y-91652500D03*
X162490000Y-91652500D03*
%TD*%
D23*
%TO.C,C20*%
X145100000Y-121825000D03*
X145100000Y-120275000D03*
%TD*%
D28*
%TO.C,L2*%
X103165000Y-103330000D03*
X108615000Y-103330000D03*
%TD*%
D29*
%TO.C,C7*%
X105100000Y-83860000D03*
X103550000Y-83860000D03*
%TD*%
D11*
%TO.C,R16*%
X99905000Y-80220000D03*
X98255000Y-80220000D03*
%TD*%
D19*
%TO.C,D3*%
X91530000Y-87300000D03*
D20*
X94070000Y-87300000D03*
%TD*%
D30*
%TO.C,J2*%
X156280000Y-118565000D03*
X162060000Y-118565000D03*
D31*
X155970000Y-117490000D03*
X156770000Y-117490000D03*
D32*
X157920000Y-117490000D03*
X158920000Y-117490000D03*
X159420000Y-117490000D03*
X160420000Y-117490000D03*
D31*
X161570000Y-117490000D03*
X162370000Y-117490000D03*
X162370000Y-117490000D03*
X161570000Y-117490000D03*
D32*
X160920000Y-117490000D03*
X159920000Y-117490000D03*
X158420000Y-117490000D03*
X157420000Y-117490000D03*
D31*
X156770000Y-117490000D03*
X155970000Y-117490000D03*
D33*
X154850000Y-118065000D03*
D34*
X154850000Y-122245000D03*
D33*
X163490000Y-118065000D03*
D34*
X163490000Y-122245000D03*
%TD*%
D23*
%TO.C,C35*%
X142190000Y-64435000D03*
X142190000Y-62885000D03*
%TD*%
D11*
%TO.C,R22*%
X146975000Y-109650000D03*
X145325000Y-109650000D03*
%TD*%
D35*
%TO.C,U12*%
X124350000Y-92320000D03*
X123080000Y-92320000D03*
X121810000Y-92320000D03*
X120540000Y-92320000D03*
X120540000Y-97270000D03*
X121810000Y-97270000D03*
X123080000Y-97270000D03*
X124350000Y-97270000D03*
%TD*%
D27*
%TO.C,R67*%
X188040000Y-101400000D03*
X188040000Y-99750000D03*
%TD*%
%TO.C,R12*%
X102630000Y-92750000D03*
X102630000Y-91100000D03*
%TD*%
D21*
%TO.C,R9*%
X101620000Y-82125000D03*
X101620000Y-83775000D03*
%TD*%
D36*
%TO.C,H3*%
X192580000Y-60180000D03*
X193239010Y-58589010D03*
X193239010Y-61770990D03*
X194830000Y-57930000D03*
D37*
X194830000Y-60180000D03*
D36*
X194830000Y-62430000D03*
X196420990Y-58589010D03*
X196420990Y-61770990D03*
X197080000Y-60180000D03*
%TD*%
D11*
%TO.C,R23*%
X146775000Y-116875000D03*
X145125000Y-116875000D03*
%TD*%
%TO.C,R8*%
X102645000Y-94710000D03*
X100995000Y-94710000D03*
%TD*%
D13*
%TO.C,C8*%
X105420000Y-96440000D03*
X106970000Y-96440000D03*
%TD*%
D36*
%TO.C,H1*%
X91920000Y-119820000D03*
X92579010Y-118229010D03*
X92579010Y-121410990D03*
X94170000Y-117570000D03*
D37*
X94170000Y-119820000D03*
D36*
X94170000Y-122070000D03*
X95760990Y-118229010D03*
X95760990Y-121410990D03*
X96420000Y-119820000D03*
%TD*%
D38*
%TO.C,C12*%
X114490000Y-103540000D03*
X114490000Y-105440000D03*
%TD*%
D39*
%TO.C,L1*%
X155940000Y-112315000D03*
X155940000Y-114440000D03*
%TD*%
D17*
%TO.C,J13*%
X152560000Y-57850000D03*
D18*
X155100000Y-57850000D03*
X157640000Y-57850000D03*
X160180000Y-57850000D03*
%TD*%
D25*
%TO.C,R28*%
X145330000Y-107920000D03*
X146980000Y-107920000D03*
%TD*%
D14*
%TO.C,C14*%
X116650000Y-103745000D03*
X116650000Y-105295000D03*
%TD*%
D17*
%TO.C,J7*%
X181070000Y-93950000D03*
D18*
X183610000Y-93950000D03*
X186150000Y-93950000D03*
X188690000Y-93950000D03*
%TD*%
D40*
%TO.C,U10*%
X158052500Y-96160000D03*
X158052500Y-95660000D03*
X158052500Y-95160000D03*
X158052500Y-94660000D03*
X158052500Y-94160000D03*
X158052500Y-93660000D03*
X158052500Y-93160000D03*
X158052500Y-92660000D03*
X158052500Y-92160000D03*
X158052500Y-91660000D03*
X158052500Y-91160000D03*
X158052500Y-90660000D03*
D41*
X156640000Y-89247500D03*
X156140000Y-89247500D03*
X155640000Y-89247500D03*
X155140000Y-89247500D03*
X154640000Y-89247500D03*
X154140000Y-89247500D03*
X153640000Y-89247500D03*
X153140000Y-89247500D03*
X152640000Y-89247500D03*
X152140000Y-89247500D03*
X151640000Y-89247500D03*
X151140000Y-89247500D03*
D40*
X149727500Y-90660000D03*
X149727500Y-91160000D03*
X149727500Y-91660000D03*
X149727500Y-92160000D03*
X149727500Y-92660000D03*
X149727500Y-93160000D03*
X149727500Y-93660000D03*
X149727500Y-94160000D03*
X149727500Y-94660000D03*
X149727500Y-95160000D03*
X149727500Y-95660000D03*
X149727500Y-96160000D03*
D41*
X151140000Y-97572500D03*
X151640000Y-97572500D03*
X152140000Y-97572500D03*
X152640000Y-97572500D03*
X153140000Y-97572500D03*
X153640000Y-97572500D03*
X154140000Y-97572500D03*
X154640000Y-97572500D03*
X155140000Y-97572500D03*
X155640000Y-97572500D03*
X156140000Y-97572500D03*
X156640000Y-97572500D03*
%TD*%
D42*
%TO.C,U2*%
X105102500Y-82122500D03*
X105102500Y-81622500D03*
X105102500Y-81122500D03*
X103677500Y-81122500D03*
X103677500Y-81622500D03*
X103677500Y-82122500D03*
%TD*%
D23*
%TO.C,C58*%
X157780000Y-86457500D03*
X157780000Y-84907500D03*
%TD*%
D27*
%TO.C,R50*%
X154650000Y-102485000D03*
X154650000Y-100835000D03*
%TD*%
D11*
%TO.C,R3*%
X98255000Y-87300000D03*
X96605000Y-87300000D03*
%TD*%
D27*
%TO.C,R54*%
X146850000Y-94287500D03*
X146850000Y-92637500D03*
%TD*%
D23*
%TO.C,C64*%
X155800000Y-86457500D03*
X155800000Y-84907500D03*
%TD*%
D38*
%TO.C,C10*%
X112070000Y-103540000D03*
X112070000Y-105440000D03*
%TD*%
D22*
%TO.C,FID1*%
X92220000Y-115310000D03*
%TD*%
D23*
%TO.C,C52*%
X155270000Y-67840000D03*
X155270000Y-66290000D03*
%TD*%
D36*
%TO.C,H2*%
X192580000Y-119820000D03*
X193239010Y-118229010D03*
X193239010Y-121410990D03*
X194830000Y-117570000D03*
D37*
X194830000Y-119820000D03*
D36*
X194830000Y-122070000D03*
X196420990Y-118229010D03*
X196420990Y-121410990D03*
X197080000Y-119820000D03*
%TD*%
D26*
%TO.C,C13*%
X119405000Y-81465000D03*
X119405000Y-79565000D03*
%TD*%
D25*
%TO.C,R71*%
X126445000Y-92310000D03*
X128095000Y-92310000D03*
%TD*%
D43*
%TO.C,Q1*%
X147435000Y-71200000D03*
X147435000Y-69300000D03*
X145160000Y-70250000D03*
%TD*%
D44*
%TO.C,S1*%
X111945000Y-117930000D03*
X117195000Y-117930000D03*
X111945000Y-121130000D03*
X117195000Y-121130000D03*
%TD*%
D14*
%TO.C,C70*%
X177090000Y-99800000D03*
X177090000Y-101350000D03*
%TD*%
D27*
%TO.C,R64*%
X165820000Y-101400000D03*
X165820000Y-99750000D03*
%TD*%
D17*
%TO.C,J11*%
X197100000Y-71140000D03*
D18*
X197100000Y-73680000D03*
X197100000Y-76220000D03*
X197100000Y-78760000D03*
X197100000Y-81300000D03*
X197100000Y-83840000D03*
X197100000Y-86380000D03*
X197100000Y-88920000D03*
X197100000Y-91460000D03*
X197100000Y-94000000D03*
X197100000Y-96540000D03*
X197100000Y-99080000D03*
%TD*%
D45*
%TO.C,J1*%
X103890000Y-110550000D03*
D46*
X103890000Y-116850000D03*
D47*
X108690000Y-113450000D03*
%TD*%
D21*
%TO.C,R61*%
X182620000Y-99750000D03*
X182620000Y-101400000D03*
%TD*%
D17*
%TO.C,J4*%
X184300000Y-63330000D03*
D18*
X181760000Y-63330000D03*
X179220000Y-63330000D03*
X176680000Y-63330000D03*
X174140000Y-63330000D03*
X171600000Y-63330000D03*
X169060000Y-63330000D03*
X166520000Y-63330000D03*
%TD*%
D22*
%TO.C,TP4*%
X117770000Y-99890000D03*
%TD*%
D27*
%TO.C,R65*%
X167700000Y-101400000D03*
X167700000Y-99750000D03*
%TD*%
D11*
%TO.C,R24*%
X146775000Y-115100000D03*
X145125000Y-115100000D03*
%TD*%
D22*
%TO.C,TP9*%
X131580000Y-76670000D03*
%TD*%
D29*
%TO.C,C31*%
X126765000Y-72307500D03*
X125215000Y-72307500D03*
%TD*%
D26*
%TO.C,C11*%
X116755000Y-81565000D03*
X116755000Y-79665000D03*
%TD*%
D17*
%TO.C,J14*%
X159890000Y-79470000D03*
D18*
X159890000Y-76930000D03*
%TD*%
D16*
%TO.C,C3*%
X105090000Y-88430000D03*
X103190000Y-88430000D03*
%TD*%
D44*
%TO.C,S2*%
X112375000Y-111120000D03*
X117625000Y-111120000D03*
X112375000Y-114320000D03*
X117625000Y-114320000D03*
%TD*%
D13*
%TO.C,C74*%
X173175000Y-66340000D03*
X174725000Y-66340000D03*
%TD*%
D48*
%TO.C,RV1*%
X196130000Y-66425000D03*
X193590000Y-66425000D03*
X191050000Y-66425000D03*
%TD*%
D22*
%TO.C,FID3*%
X190560000Y-57360000D03*
%TD*%
D23*
%TO.C,C57*%
X153880000Y-86462500D03*
X153880000Y-84912500D03*
%TD*%
D22*
%TO.C,TP17*%
X157300000Y-66870000D03*
%TD*%
D49*
%TO.C,U4*%
X171512500Y-70640000D03*
X171512500Y-71440000D03*
X171512500Y-72240000D03*
X171512500Y-73040000D03*
X171512500Y-73840000D03*
X171512500Y-74640000D03*
X171512500Y-75440000D03*
X171512500Y-76240000D03*
X171512500Y-77040000D03*
X171512500Y-77840000D03*
X171512500Y-78640000D03*
X171512500Y-79440000D03*
X171512500Y-80240000D03*
X171512500Y-81040000D03*
X171512500Y-81840000D03*
X171512500Y-82640000D03*
D50*
X173175000Y-84302500D03*
X173975000Y-84302500D03*
X174775000Y-84302500D03*
X175575000Y-84302500D03*
X176375000Y-84302500D03*
X177175000Y-84302500D03*
X177975000Y-84302500D03*
X178775000Y-84302500D03*
X179575000Y-84302500D03*
X180375000Y-84302500D03*
X181175000Y-84302500D03*
X181975000Y-84302500D03*
X182775000Y-84302500D03*
X183575000Y-84302500D03*
X184375000Y-84302500D03*
X185175000Y-84302500D03*
D49*
X186837500Y-82640000D03*
X186837500Y-81840000D03*
X186837500Y-81040000D03*
X186837500Y-80240000D03*
X186837500Y-79440000D03*
X186837500Y-78640000D03*
X186837500Y-77840000D03*
X186837500Y-77040000D03*
X186837500Y-76240000D03*
X186837500Y-75440000D03*
X186837500Y-74640000D03*
X186837500Y-73840000D03*
X186837500Y-73040000D03*
X186837500Y-72240000D03*
X186837500Y-71440000D03*
X186837500Y-70640000D03*
D50*
X185175000Y-68977500D03*
X184375000Y-68977500D03*
X183575000Y-68977500D03*
X182775000Y-68977500D03*
X181975000Y-68977500D03*
X181175000Y-68977500D03*
X180375000Y-68977500D03*
X179575000Y-68977500D03*
X178775000Y-68977500D03*
X177975000Y-68977500D03*
X177175000Y-68977500D03*
X176375000Y-68977500D03*
X175575000Y-68977500D03*
X174775000Y-68977500D03*
X173975000Y-68977500D03*
X173175000Y-68977500D03*
%TD*%
D17*
%TO.C,BZ1*%
X185910000Y-88940000D03*
D18*
X188450000Y-88940000D03*
%TD*%
D14*
%TO.C,C24*%
X173255000Y-86952500D03*
X173255000Y-88502500D03*
%TD*%
D23*
%TO.C,C68*%
X180780000Y-101350000D03*
X180780000Y-99800000D03*
%TD*%
D11*
%TO.C,R46*%
X147990000Y-74860000D03*
X146340000Y-74860000D03*
%TD*%
D13*
%TO.C,C53*%
X144120000Y-97610000D03*
X145670000Y-97610000D03*
%TD*%
D11*
%TO.C,R25*%
X146875000Y-112800000D03*
X145225000Y-112800000D03*
%TD*%
D21*
%TO.C,R60*%
X169540000Y-99755000D03*
X169540000Y-101405000D03*
%TD*%
D51*
%TO.C,FB1*%
X144920000Y-85055000D03*
X144920000Y-86630000D03*
%TD*%
D29*
%TO.C,C48*%
X153915000Y-81060000D03*
X152365000Y-81060000D03*
%TD*%
D22*
%TO.C,TP5*%
X124350000Y-82700000D03*
%TD*%
D27*
%TO.C,R52*%
X152870000Y-102485000D03*
X152870000Y-100835000D03*
%TD*%
D21*
%TO.C,R7*%
X101920000Y-77845000D03*
X101920000Y-79495000D03*
%TD*%
%TO.C,R31*%
X127630000Y-100045000D03*
X127630000Y-101695000D03*
%TD*%
D27*
%TO.C,R48*%
X156420000Y-102485000D03*
X156420000Y-100835000D03*
%TD*%
D21*
%TO.C,R39*%
X138620000Y-62825000D03*
X138620000Y-64475000D03*
%TD*%
D26*
%TO.C,C4*%
X98860000Y-98460000D03*
X98860000Y-96560000D03*
%TD*%
D29*
%TO.C,C54*%
X144215000Y-89000000D03*
X142665000Y-89000000D03*
%TD*%
D21*
%TO.C,R30*%
X129320000Y-100050000D03*
X129320000Y-101700000D03*
%TD*%
D13*
%TO.C,C62*%
X160865000Y-86482500D03*
X162415000Y-86482500D03*
%TD*%
D25*
%TO.C,R73*%
X181025000Y-91150000D03*
X182675000Y-91150000D03*
%TD*%
D52*
%TO.C,U5*%
X126750000Y-76650000D03*
X127700000Y-76650000D03*
X128650000Y-76650000D03*
X128650000Y-74375000D03*
X126750000Y-74375000D03*
%TD*%
D27*
%TO.C,R62*%
X178940000Y-101400000D03*
X178940000Y-99750000D03*
%TD*%
D21*
%TO.C,R59*%
X173340000Y-99750000D03*
X173340000Y-101400000D03*
%TD*%
D29*
%TO.C,C72*%
X124640000Y-87860000D03*
X123090000Y-87860000D03*
%TD*%
D27*
%TO.C,R36*%
X128660000Y-80177500D03*
X128660000Y-78527500D03*
%TD*%
D22*
%TO.C,TP6*%
X151020000Y-121810000D03*
%TD*%
D27*
%TO.C,R58*%
X166410000Y-118285000D03*
X166410000Y-116635000D03*
%TD*%
D14*
%TO.C,C21*%
X181485000Y-87267500D03*
X181485000Y-88817500D03*
%TD*%
D26*
%TO.C,C17*%
X147175000Y-121825000D03*
X147175000Y-119925000D03*
%TD*%
D22*
%TO.C,TP2*%
X92710000Y-97000000D03*
%TD*%
D23*
%TO.C,C61*%
X152070000Y-86472500D03*
X152070000Y-84922500D03*
%TD*%
D22*
%TO.C,TP10*%
X131240000Y-72000000D03*
%TD*%
%TO.C,TP11*%
X124170000Y-74380000D03*
%TD*%
%TO.C,TP14*%
X164830000Y-112720000D03*
%TD*%
D23*
%TO.C,C69*%
X184430000Y-101350000D03*
X184430000Y-99800000D03*
%TD*%
D13*
%TO.C,C63*%
X160845000Y-88202500D03*
X162395000Y-88202500D03*
%TD*%
D22*
%TO.C,TP16*%
X152700000Y-65760000D03*
%TD*%
D17*
%TO.C,J12*%
X165450000Y-57860000D03*
D18*
X167990000Y-57860000D03*
X170530000Y-57860000D03*
X173070000Y-57860000D03*
%TD*%
D11*
%TO.C,R34*%
X98720000Y-74830000D03*
X97070000Y-74830000D03*
%TD*%
D17*
%TO.C,J15*%
X140230000Y-72140000D03*
D18*
X140230000Y-74680000D03*
X140230000Y-77220000D03*
X140230000Y-79760000D03*
X140230000Y-82300000D03*
%TD*%
D25*
%TO.C,R44*%
X145115000Y-81060000D03*
X146765000Y-81060000D03*
%TD*%
D21*
%TO.C,R10*%
X108900000Y-96445000D03*
X108900000Y-98095000D03*
%TD*%
D36*
%TO.C,H4*%
X91920000Y-60180000D03*
X92579010Y-58589010D03*
X92579010Y-61770990D03*
X94170000Y-57930000D03*
D37*
X94170000Y-60180000D03*
D36*
X94170000Y-62430000D03*
X95760990Y-58589010D03*
X95760990Y-61770990D03*
X96420000Y-60180000D03*
%TD*%
D13*
%TO.C,C60*%
X160855000Y-89902500D03*
X162405000Y-89902500D03*
%TD*%
D23*
%TO.C,C9*%
X103680000Y-79450000D03*
X103680000Y-77900000D03*
%TD*%
D53*
%TO.C,C66*%
X190040000Y-108020000D03*
X190040000Y-103920000D03*
%TD*%
D26*
%TO.C,C65*%
X142720000Y-86990000D03*
X142720000Y-85090000D03*
%TD*%
D54*
%TO.C,Y2*%
X143850000Y-95392500D03*
X143850000Y-91292500D03*
%TD*%
D22*
%TO.C,TP15*%
X169570000Y-95200000D03*
%TD*%
D26*
%TO.C,C55*%
X136625000Y-97665000D03*
X136625000Y-95765000D03*
%TD*%
D13*
%TO.C,C75*%
X182785000Y-66340000D03*
X184335000Y-66340000D03*
%TD*%
D23*
%TO.C,C59*%
X150250000Y-86477500D03*
X150250000Y-84927500D03*
%TD*%
D55*
%TO.C,L3*%
X108207500Y-81612500D03*
X113757500Y-81612500D03*
%TD*%
D17*
%TO.C,J6*%
X164040000Y-70880000D03*
D18*
X166580000Y-70880000D03*
X164040000Y-73420000D03*
X166580000Y-73420000D03*
X164040000Y-75960000D03*
X166580000Y-75960000D03*
X164040000Y-78500000D03*
X166580000Y-78500000D03*
X164040000Y-81040000D03*
X166580000Y-81040000D03*
%TD*%
D17*
%TO.C,J18*%
X169520000Y-85915000D03*
D18*
X169520000Y-88455000D03*
%TD*%
D19*
%TO.C,D5*%
X91560000Y-74840000D03*
D20*
X94100000Y-74840000D03*
%TD*%
D27*
%TO.C,R66*%
X186230000Y-101400000D03*
X186230000Y-99750000D03*
%TD*%
D13*
%TO.C,C32*%
X133395000Y-72200000D03*
X134945000Y-72200000D03*
%TD*%
D25*
%TO.C,R29*%
X145330000Y-106240000D03*
X146980000Y-106240000D03*
%TD*%
D56*
%TO.C,F1*%
X93290000Y-104300000D03*
X93290000Y-101500000D03*
%TD*%
D29*
%TO.C,C29*%
X126755000Y-78732500D03*
X125205000Y-78732500D03*
%TD*%
D27*
%TO.C,R57*%
X168190000Y-118280000D03*
X168190000Y-116630000D03*
%TD*%
D25*
%TO.C,R43*%
X145115000Y-79110000D03*
X146765000Y-79110000D03*
%TD*%
D17*
%TO.C,J16*%
X159870000Y-73160000D03*
D18*
X159870000Y-70620000D03*
%TD*%
D52*
%TO.C,U6*%
X133370000Y-76687500D03*
X134320000Y-76687500D03*
X135270000Y-76687500D03*
X135270000Y-74412500D03*
X133370000Y-74412500D03*
%TD*%
D22*
%TO.C,TP3*%
X110490000Y-88470000D03*
%TD*%
D57*
%TO.C,J3*%
X93270000Y-110510000D03*
D58*
X93270000Y-107970000D03*
%TD*%
D25*
%TO.C,R45*%
X146340000Y-73130000D03*
X147990000Y-73130000D03*
%TD*%
D59*
%TO.C,J9*%
X108770000Y-67070000D03*
D60*
X111540000Y-67070000D03*
X114310000Y-67070000D03*
X117080000Y-67070000D03*
X119850000Y-67070000D03*
X110155000Y-64230000D03*
X112925000Y-64230000D03*
X115695000Y-64230000D03*
X118465000Y-64230000D03*
D61*
X101810000Y-65650000D03*
X126810000Y-65650000D03*
%TD*%
D62*
%TO.C,U11*%
X172400000Y-114220000D03*
X183830000Y-114220000D03*
D19*
X172400000Y-105330000D03*
D20*
X173670000Y-107870000D03*
X174940000Y-105330000D03*
X176210000Y-107870000D03*
X177480000Y-105330000D03*
X178750000Y-107870000D03*
X180020000Y-105330000D03*
X182560000Y-105330000D03*
X183830000Y-107870000D03*
D58*
X171480000Y-118280000D03*
X174020000Y-118280000D03*
X182200000Y-118280000D03*
X184740000Y-118280000D03*
D63*
X170235000Y-111170000D03*
X185985000Y-111170000D03*
%TD*%
D13*
%TO.C,C71*%
X123080000Y-89760000D03*
X124630000Y-89760000D03*
%TD*%
D17*
%TO.C,J5*%
X192790000Y-94000000D03*
D18*
X192790000Y-91460000D03*
X192790000Y-88920000D03*
X192790000Y-86380000D03*
X192790000Y-83840000D03*
X192790000Y-81300000D03*
X192790000Y-78760000D03*
X192790000Y-76220000D03*
%TD*%
D64*
%TO.C,U1*%
X102650000Y-98540000D03*
X103150000Y-98540000D03*
X103650000Y-98540000D03*
X103650000Y-97115000D03*
X103150000Y-97115000D03*
X102650000Y-97115000D03*
%TD*%
D23*
%TO.C,C34*%
X135080000Y-64425000D03*
X135080000Y-62875000D03*
%TD*%
D22*
%TO.C,FID2*%
X196210000Y-115700000D03*
%TD*%
%TO.C,TP1*%
X96420000Y-103390000D03*
%TD*%
D29*
%TO.C,C51*%
X150295000Y-67700000D03*
X148745000Y-67700000D03*
%TD*%
D11*
%TO.C,R13*%
X99915000Y-82130000D03*
X98265000Y-82130000D03*
%TD*%
D27*
%TO.C,R37*%
X135260000Y-80305000D03*
X135260000Y-78655000D03*
%TD*%
D14*
%TO.C,C67*%
X175190000Y-99800000D03*
X175190000Y-101350000D03*
%TD*%
D11*
%TO.C,R6*%
X107025000Y-94720000D03*
X105375000Y-94720000D03*
%TD*%
D19*
%TO.C,D4*%
X91510000Y-81070000D03*
D20*
X94050000Y-81070000D03*
%TD*%
D23*
%TO.C,C15*%
X121545000Y-81330000D03*
X121545000Y-79780000D03*
%TD*%
D16*
%TO.C,C5*%
X105100000Y-86090000D03*
X103200000Y-86090000D03*
%TD*%
D19*
%TO.C,D1*%
X91510000Y-93530000D03*
D20*
X94050000Y-93530000D03*
%TD*%
D27*
%TO.C,R55*%
X148420000Y-86537500D03*
X148420000Y-84887500D03*
%TD*%
D21*
%TO.C,R40*%
X136850000Y-62825000D03*
X136850000Y-64475000D03*
%TD*%
D22*
%TO.C,TP8*%
X124230000Y-76640000D03*
%TD*%
D23*
%TO.C,C6*%
X100960000Y-98500000D03*
X100960000Y-96950000D03*
%TD*%
D29*
%TO.C,C30*%
X133355000Y-78850000D03*
X131805000Y-78850000D03*
%TD*%
D65*
%TO.C,U3*%
X142270000Y-122950000D03*
X142270000Y-121680000D03*
X142270000Y-120410000D03*
X142270000Y-119140000D03*
X142270000Y-117870000D03*
X142270000Y-116600000D03*
X142270000Y-115330000D03*
X142270000Y-114060000D03*
X142270000Y-112790000D03*
X142270000Y-111520000D03*
X142270000Y-110250000D03*
X142270000Y-108980000D03*
X142270000Y-107710000D03*
X142270000Y-106440000D03*
D66*
X140505000Y-105190000D03*
X139235000Y-105190000D03*
X137965000Y-105190000D03*
X136695000Y-105190000D03*
X135425000Y-105190000D03*
X134155000Y-105190000D03*
X132885000Y-105190000D03*
X131615000Y-105190000D03*
X130345000Y-105190000D03*
X129075000Y-105190000D03*
X127805000Y-105190000D03*
X126535000Y-105190000D03*
D65*
X124770000Y-106440000D03*
X124770000Y-107710000D03*
X124770000Y-108980000D03*
X124770000Y-110250000D03*
X124770000Y-111520000D03*
X124770000Y-112790000D03*
X124770000Y-114060000D03*
X124770000Y-115330000D03*
X124770000Y-116600000D03*
X124770000Y-117870000D03*
X124770000Y-119140000D03*
X124770000Y-120410000D03*
X124770000Y-121680000D03*
X124770000Y-122950000D03*
D67*
X136420000Y-115930000D03*
X136420000Y-114530000D03*
X135720000Y-116630000D03*
X135720000Y-115230000D03*
X135720000Y-113830000D03*
X135020000Y-115930000D03*
D68*
X135020000Y-115230000D03*
D67*
X135020000Y-114530000D03*
X134320000Y-116630000D03*
X134320000Y-115230000D03*
X134320000Y-113830000D03*
X133620000Y-115930000D03*
X133620000Y-114530000D03*
%TD*%
D22*
%TO.C,J17*%
X138450000Y-119850000D03*
X130450000Y-119850000D03*
%TD*%
D69*
%TO.C,BT1*%
X121810000Y-105480000D03*
D70*
X121810000Y-85480000D03*
%TD*%
M02*
